<svg id="Layer_1" data-name="Layer 1" xmlns="http://www.w3.org/2000/svg" xmlns:xlink="http://www.w3.org/1999/xlink" viewBox="0 0 72 72"><defs><style>.cls-1,.cls-2,.cls-3{fill:none;}.cls-2,.cls-3{stroke:#000;}.cls-2{stroke-width:0.3px;}.cls-3{stroke-linecap:round;stroke-width:0.7px;}.cls-4{fill:#a73832;}.cls-5{fill:url(#_606);}</style><pattern id="_606" data-name="606" width="54.13" height="54.13" patternTransform="translate(-5.72 -10.63)" patternUnits="userSpaceOnUse" viewBox="0 0 54.13 54.13"><rect class="cls-1" width="54.13" height="54.13"/><path class="cls-2" d="M20.66,27.43l-2,2-2,.51v1.87a2.45,2.45,0,0,0,1.19,1c.68.17,3.06.34,3.91-.51s.85-3.4.85-3.4Z"/><polygon class="cls-2" points="19.88 25.99 19.08 24.59 17.48 24.19 16.48 26.59 18.08 27.19 19.88 25.99"/><polygon class="cls-2" points="21.53 15.69 16.93 16.89 16.33 20.89 19.33 21.69 20.73 19.09 22.93 18.09 21.53 15.69"/><polygon class="cls-2" points="29.96 4.94 28.53 2.29 25.47 3.11 26.08 7.19 30.77 8.41 32.2 5.96 29.96 4.94"/><path class="cls-2" d="M23.33,31.94l4,1.75s.75-2,0-2.5a11.69,11.69,0,0,1-1.5-1.25Z"/><polygon class="cls-2" points="21.83 4.38 19.83 4.38 18.33 4.88 17.83 6.63 21.83 8.13 21.83 4.38"/><polygon class="cls-2" points="27.83 27.44 29.33 30.02 31.67 27.02 27.83 27.44"/><path class="cls-2" d="M18.67,36.85c.5-1.25-1.25-1.5-2.25-2l-.25,3S18.17,38.1,18.67,36.85Z"/><polygon class="cls-2" points="40.33 24.69 41.83 23.44 38.33 21.44 38.58 23.19 40.33 24.69"/><polygon class="cls-2" points="35.83 28.94 39.03 30.94 39.43 26.14 35.23 24.94 33.63 25.94 35.83 28.94"/><polygon class="cls-2" points="32.83 34.44 35.83 32.44 33.03 30.64 31.83 30.24 30.83 31.84 32.83 34.44"/><path class="cls-2" d="M9.33,19.69a4.23,4.23,0,0,0,2,3l2.4,1.6.8-3Z"/><path class="cls-2" d="M2.33,17.44l-2,1.25,2.25,1.75.75,2.5s2.5.25,2.75-1.25S4.33,17.69,2.33,17.44Z"/><polygon class="cls-2" points="41.08 32.69 44.08 32.69 45.68 31.49 43.08 29.89 41.08 32.69"/><path class="cls-2" d="M36.58,37.44s1.2,2.2,2,2.2a3.88,3.88,0,0,0,3-2.4,2.86,2.86,0,0,0-1-2.6l-4-.6-2,2.6Z"/><path class="cls-2" d="M27.33,39.1l1.2,2.4s2.8,1.4,3.2-.4a4.84,4.84,0,0,0-.4-3.2l-4.4-1.8-1.4,2.6Z"/><path class="cls-2" d="M8.57,36.14c1,1.2,4.2,1,4.2,1l-.8-2.4-2.4-3.4C8.17,32.54,7.57,34.94,8.57,36.14Z"/><polygon class="cls-2" points="20.93 35.09 21.53 37.09 21.93 40.29 23.33 38.69 23.33 35.49 20.93 35.09"/><polygon class="cls-2" points="25.23 8.11 23.03 12.11 27.23 13.91 27.71 15.06 29.11 13.06 27.83 10.11 25.23 8.11"/><path class="cls-2" d="M17,15l3.36-2.16.24-3.12L14.39,7.3V9.7s1,1.92,1.68,2.16S17,15,17,15Z"/><polygon class="cls-2" points="12.43 12.54 11.23 15.74 12.63 18.34 14.63 18.14 15.23 14.74 12.43 12.54"/><polygon class="cls-2" points="36.83 21.82 35.43 20.43 33.83 20.43 32.43 19.23 30.83 22.23 32.83 24.63 36.83 21.82"/><polygon class="cls-2" points="2.59 44.92 5.52 46 7.58 41.58 5.67 41.06 4.29 41.86 2.47 41.52 2.59 44.92"/><polygon class="cls-2" points="36.08 9.07 33.92 7.39 32.72 11.23 34.4 13.63 36.08 12.19 36.08 9.07"/><polygon class="cls-2" points="17.08 44.64 19.08 46.44 22.68 46.64 25.88 45.24 23.48 42.64 20.68 42.04 17.68 42.24 17.08 44.64"/><polygon class="cls-2" points="31.83 42.94 34.63 45.14 36.03 42.54 35.03 40.54 31.83 42.94"/><polygon class="cls-2" points="42.53 41.09 40.33 39.89 39.33 42.89 41.13 44.69 45.13 44.89 44.33 41.69 42.53 41.09"/><polygon class="cls-2" points="50.78 31.59 48.68 29.19 48.08 32.19 46.28 33.69 49.88 35.49 50.78 31.59"/><polygon class="cls-2" points="12.56 8.91 10.36 7.31 7.16 8.31 8.56 10.11 8.56 12.11 12.56 8.91"/><polygon class="cls-2" points="7.58 28.09 10.58 29.69 13.78 28.49 11.38 25.09 7.38 23.89 6.38 25.69 7.58 28.09"/><polygon class="cls-2" points="6.08 13.19 4.58 15.44 5.33 16.94 7.33 16.94 8.58 14.19 6.08 13.19"/><polyline class="cls-2" points="0 8.68 1.33 8.44 1.83 10.69 4.83 10.44 6.08 3.44 1.83 2.44 0 3.47"/><polyline class="cls-2" points="9.56 0 8.33 1.69 9.08 4.44 11.08 3.69 13.33 6.19 14.08 2.94 11.33 0"/><polyline class="cls-2" points="6.83 0 6.83 1.19 4.58 1.19 5.65 0"/><polyline class="cls-2" points="0 28.19 1.58 28.19 4.33 25.69 0 22.27"/><polyline class="cls-2" points="0 16.52 1.46 16.19 1.46 12.94 0 12.08"/><polygon class="cls-2" points="2.46 30.88 3.21 32.88 5.46 31.88 5.71 28.63 3.46 29.13 2.46 30.88"/><polyline class="cls-2" points="0 33.7 2.08 35.19 1.58 38.69 0 38.05"/><polygon class="cls-2" points="3.58 38.69 7.08 38.44 5.58 34.19 3.58 38.69"/><polygon class="cls-2" points="22.71 19.88 21.46 22.88 24.21 23.38 25.46 25.88 29.96 23.13 26.71 19.13 22.71 19.88"/><polygon class="cls-2" points="50.58 3.69 47.08 1.44 42.83 1.13 41.58 4.13 45.58 4.94 46.83 7.19 50.58 3.69"/><polyline class="cls-2" points="14.68 0 14.83 0.69 20.83 2.69 21.33 0.44 21.04 0"/><polygon class="cls-2" points="47.33 48.19 46.08 45.69 45.08 47.19 45.58 49.69 47.33 48.19"/><polyline class="cls-2" points="0 1.13 3.08 0.69 2.97 0"/><polyline class="cls-2" points="27.5 0 26.33 0.94 22.83 0.44 23.13 0"/><polyline class="cls-2" points="34.46 0 34.58 1.69 34.08 4.69 37.58 5.94 39.83 2.94 38 0"/><polygon class="cls-2" points="32.33 3.69 31.83 0.19 30.58 1.69 32.33 3.69"/><polygon class="cls-2" points="43.77 7.25 40.52 6 38.52 7.25 37.77 9.25 38.77 12.25 42.52 11.5 43.77 7.25"/><polygon class="cls-2" points="36.33 17.44 35.08 15.69 32.58 15.69 30.58 14.69 28.83 17.19 30.08 18.19 36.33 17.44"/><polygon class="cls-2" points="44.83 20.44 44.83 17.69 43.08 16.19 44.33 13.44 38.08 14.94 38.33 17.94 40.83 20.19 44.83 20.44"/><polygon class="cls-2" points="4.46 49.06 5.21 51.06 8.96 51.31 12.21 50.56 11.71 47.56 8.96 45.81 4.46 49.06"/><polygon class="cls-2" points="12.58 44.81 12.83 46.81 16.33 46.81 15.58 44.56 12.58 44.81"/><polygon class="cls-2" points="20.27 49.28 21.77 51.78 24.52 49.28 22.27 48.28 20.27 49.28"/><polygon class="cls-2" points="29.58 52.44 32.83 51.69 34.08 47.94 31.83 44.94 27.83 43.69 26.58 47.69 29.58 52.44"/><polygon class="cls-2" points="36.08 45.69 38.08 49.44 41.33 47.94 39.08 45.94 36.08 45.69"/><polygon class="cls-2" points="49.83 44.69 52.08 39.19 48.58 37.19 44.83 38.19 46.58 41.94 49.83 44.69"/><polygon class="cls-2" points="50.83 11.19 48.58 9.44 45.08 9.69 47.58 12.44 50.83 11.19"/><polygon class="cls-2" points="9.83 40.19 11.33 43.19 15.58 41.44 15.08 39.19 9.83 40.19"/><polygon class="cls-2" points="49.83 22.94 52.58 19.69 50.58 17.44 49.58 14.69 46.08 15.94 47.08 21.19 49.83 22.94"/><polygon class="cls-2" points="50.08 26.69 47.58 24.19 44.33 22.94 42.83 25.44 46.58 28.19 50.08 26.69"/><polyline class="cls-2" points="0 49 1.08 48.19 1.33 45.69 0 45.87"/><polygon class="cls-2" points="42.58 50.19 40.33 52.19 44.08 53.19 48.58 51.69 42.58 50.19"/><polyline class="cls-2" points="54.13 3.47 51.96 4.69 52.71 8.94 54.13 8.68"/><polyline class="cls-2" points="54.13 22.27 53.71 21.94 52.46 24.94 51.71 28.19 54.13 28.19"/><polyline class="cls-2" points="54.13 12.08 52.59 11.19 51.59 13.94 52.34 16.94 54.13 16.52"/><polyline class="cls-2" points="54.13 33.7 52.71 32.69 53.21 37.69 54.13 38.05"/><polyline class="cls-2" points="54.13 1.13 51.96 1.44 51.84 0"/><polyline class="cls-2" points="9.56 54.13 10.33 53.06 11.33 54.13"/><polyline class="cls-2" points="5.65 54.13 6.83 52.81 6.83 54.13"/><polyline class="cls-2" points="21.04 54.13 18.33 50.06 13.83 50.31 14.68 54.13"/><polyline class="cls-2" points="0 52.12 0.33 52.06 2.33 50.31 2.97 54.13"/><polyline class="cls-2" points="23.13 54.13 25.58 50.56 27.08 51.56 27.58 54.06 27.5 54.13"/><polyline class="cls-2" points="34.46 54.13 34.33 52.31 36.08 51.06 38 54.13"/><polyline class="cls-2" points="54.13 52.12 51.71 52.56 51.84 54.13"/><polyline class="cls-2" points="54.13 45.87 51.71 46.19 48.96 49.19 52.21 50.44 54.13 49"/><line class="cls-2" x1="6.83" x2="5.65"/><line class="cls-3" x1="7.33" y1="5.35" x2="7.33" y2="5.35"/><line class="cls-3" x1="7.08" y1="2.56" x2="7.08" y2="2.56"/><line class="cls-3" x1="10.58" y1="5.81" x2="10.58" y2="5.81"/><line class="cls-3" x1="2.83" y1="1.56" x2="2.83" y2="1.56"/><line class="cls-3" x1="12.96" y1="7.81" x2="12.96" y2="7.81"/><line class="cls-3" x1="15.83" y1="5.56" x2="15.83" y2="5.56"/><line class="cls-3" x1="15.33" y1="2.31" x2="15.33" y2="2.31"/><line class="cls-3" x1="18.33" y1="3.31" x2="18.33" y2="3.31"/><line class="cls-3" x1="6.46" y1="10.19" x2="6.46" y2="10.19"/><line class="cls-3" x1="2.08" y1="12.06" x2="2.08" y2="12.06"/><line class="cls-3" x1="4.21" y1="13.56" x2="4.21" y2="13.56"/><line class="cls-3" x1="2.83" y1="15.94" x2="2.83" y2="15.94"/><line class="cls-3" x1="5.83" y1="18.44" x2="5.83" y2="18.44"/><line class="cls-3" x1="12.71" y1="11.19" x2="12.71" y2="11.19"/><line class="cls-3" x1="10.21" y1="13.19" x2="10.21" y2="13.19"/><line class="cls-3" x1="9.46" y1="17.06" x2="9.46" y2="17.06"/><line class="cls-3" x1="11.08" y1="18.81" x2="11.08" y2="18.81"/><line class="cls-3" x1="7.71" y1="20.94" x2="7.71" y2="20.94"/><line class="cls-3" x1="9.71" y1="23.19" x2="9.71" y2="23.19"/><line class="cls-3" x1="5.21" y1="24.44" x2="5.21" y2="24.44"/><line class="cls-3" x1="1.58" y1="21.94" x2="1.58" y2="21.94"/><line class="cls-3" x1="14.33" y1="26.44" x2="14.33" y2="26.44"/><line class="cls-3" x1="16.08" y1="22.94" x2="16.08" y2="22.94"/><line class="cls-3" x1="14.96" y1="19.81" x2="14.96" y2="19.81"/><line class="cls-3" x1="22.33" y1="1.31" x2="22.33" y2="1.31"/><line class="cls-3" x1="23.58" y1="4.19" x2="23.58" y2="4.19"/><line class="cls-3" x1="24.08" y1="7.31" x2="24.08" y2="7.31"/><line class="cls-3" x1="22.58" y1="9.81" x2="22.58" y2="9.81"/><line class="cls-3" x1="21.58" y1="13.44" x2="21.58" y2="13.44"/><line class="cls-3" x1="18.96" y1="15.31" x2="18.96" y2="15.31"/><line class="cls-3" x1="25.21" y1="14.56" x2="25.21" y2="14.56"/><line class="cls-3" x1="25.71" y1="17.94" x2="25.71" y2="17.94"/><line class="cls-3" x1="28.71" y1="19.06" x2="28.71" y2="19.06"/><line class="cls-3" x1="29.96" y1="21.06" x2="29.96" y2="21.06"/><line class="cls-3" x1="29.08" y1="15.06" x2="29.08" y2="15.06"/><line class="cls-3" x1="30.83" y1="12.56" x2="30.83" y2="12.56"/><line class="cls-3" x1="29.08" y1="9.56" x2="29.08" y2="9.56"/><line class="cls-3" x1="31.33" y1="9.69" x2="31.33" y2="9.69"/><line class="cls-3" x1="33.21" y1="6.44" x2="33.21" y2="6.44"/><line class="cls-3" x1="33.33" y1="1.77" x2="33.33" y2="1.77"/><line class="cls-3" x1="36.42" y1="6.52" x2="36.42" y2="6.52"/><line class="cls-3" x1="37" y1="8.52" x2="37" y2="8.52"/><line class="cls-3" x1="33" y1="14.44" x2="33" y2="14.44"/><line class="cls-3" x1="37.58" y1="12.19" x2="37.58" y2="12.19"/><line class="cls-3" x1="35.83" y1="14.19" x2="35.83" y2="14.19"/><line class="cls-3" x1="37" y1="16.27" x2="37" y2="16.27"/><line class="cls-3" x1="39.42" y1="13.52" x2="39.42" y2="13.52"/><line class="cls-3" x1="43.25" y1="12.52" x2="43.25" y2="12.52"/><line class="cls-3" x1="45.92" y1="12.52" x2="45.92" y2="12.52"/><line class="cls-3" x1="45.25" y1="14.94" x2="45.25" y2="14.94"/><line class="cls-3" x1="34.25" y1="19.1" x2="34.25" y2="19.1"/><line class="cls-3" x1="37.08" y1="19.19" x2="37.08" y2="19.19"/><line class="cls-3" x1="39.42" y1="20.69" x2="39.42" y2="20.69"/><line class="cls-3" x1="42.25" y1="21.85" x2="42.25" y2="21.85"/><line class="cls-3" x1="36.33" y1="23.85" x2="36.33" y2="23.85"/><line class="cls-3" x1="38.58" y1="24.69" x2="38.58" y2="24.69"/><line class="cls-3" x1="40.83" y1="25.85" x2="40.83" y2="25.85"/><line class="cls-3" x1="40.75" y1="28.52" x2="40.75" y2="28.52"/><line class="cls-3" x1="43.83" y1="28.35" x2="43.83" y2="28.35"/><line class="cls-3" x1="46.42" y1="30.1" x2="46.42" y2="30.1"/><line class="cls-3" x1="50" y1="28.35" x2="50" y2="28.35"/><line class="cls-3" x1="52.46" y1="30.69" x2="52.46" y2="30.69"/><line class="cls-3" x1="48.42" y1="23.52" x2="48.42" y2="23.52"/><line class="cls-3" x1="50.75" y1="25.02" x2="50.75" y2="25.02"/><line class="cls-3" x1="48.17" y1="13.77" x2="48.17" y2="13.77"/><line class="cls-3" x1="50.75" y1="12.52" x2="50.75" y2="12.52"/><line class="cls-3" x1="51" y1="15.44" x2="51" y2="15.44"/><line class="cls-3" x1="52.92" y1="18.27" x2="52.92" y2="18.27"/><line class="cls-3" x1="52.5" y1="21.94" x2="52.5" y2="21.94"/><line class="cls-3" x1="51.42" y1="34.1" x2="51.42" y2="34.1"/><line class="cls-3" x1="51.42" y1="37.02" x2="51.42" y2="37.02"/><line class="cls-3" x1="47.67" y1="36.02" x2="47.67" y2="36.02"/><line class="cls-3" x1="45.25" y1="33.35" x2="45.25" y2="33.35"/><line class="cls-3" x1="45.17" y1="35.85" x2="45.17" y2="35.85"/><line class="cls-3" x1="42.5" y1="34.35" x2="42.5" y2="34.35"/><line class="cls-3" x1="40.67" y1="30.77" x2="40.67" y2="30.77"/><line class="cls-3" x1="37.83" y1="32.35" x2="37.83" y2="32.35"/><line class="cls-3" x1="39.92" y1="33.6" x2="39.92" y2="33.6"/><line class="cls-3" x1="35.25" y1="34.1" x2="35.25" y2="34.1"/><line class="cls-3" x1="43" y1="36.94" x2="43" y2="36.94"/><line class="cls-3" x1="41.33" y1="39.02" x2="41.33" y2="39.02"/><line class="cls-3" x1="43.92" y1="39.52" x2="43.92" y2="39.52"/><line class="cls-3" x1="45.42" y1="41.52" x2="45.42" y2="41.52"/><line class="cls-3" x1="46.67" y1="44.19" x2="46.67" y2="44.19"/><line class="cls-3" x1="52.58" y1="42.02" x2="52.58" y2="42.02"/><line class="cls-3" x1="52.17" y1="44.52" x2="52.17" y2="44.52"/><line class="cls-3" x1="49.25" y1="46.35" x2="49.25" y2="46.35"/><line class="cls-3" x1="44" y1="46.19" x2="44" y2="46.19"/><line class="cls-3" x1="41.17" y1="46.19" x2="41.17" y2="46.19"/><line class="cls-3" x1="39" y1="44.35" x2="39" y2="44.35"/><line class="cls-3" x1="36.33" y1="44.6" x2="36.33" y2="44.6"/><line class="cls-3" x1="37.83" y1="41.52" x2="37.83" y2="41.52"/><line class="cls-3" x1="36.33" y1="39.27" x2="36.33" y2="39.27"/><line class="cls-3" x1="33.58" y1="40.02" x2="33.58" y2="40.02"/><line class="cls-3" x1="33.42" y1="37.1" x2="33.42" y2="37.1"/><line class="cls-3" x1="32" y1="35.52" x2="32" y2="35.52"/><line class="cls-3" x1="30.17" y1="36.35" x2="30.17" y2="36.35"/><line class="cls-3" x1="42.92" y1="48.35" x2="42.92" y2="48.35"/><line class="cls-3" x1="47.96" y1="50.06" x2="47.96" y2="50.06"/><line class="cls-3" x1="52.58" y1="51.44" x2="52.58" y2="51.44"/><line class="cls-3" x1="48.96" y1="52.94" x2="48.96" y2="52.94"/><line class="cls-3" x1="40.83" y1="49.94" x2="40.83" y2="49.94"/><line class="cls-3" x1="37.33" y1="50.31" x2="37.33" y2="50.31"/><line class="cls-3" x1="34.75" y1="47.19" x2="34.75" y2="47.19"/><line class="cls-3" x1="34.75" y1="50.52" x2="34.75" y2="50.52"/><line class="cls-3" x1="32.92" y1="44.77" x2="32.92" y2="44.77"/><line class="cls-3" x1="29.58" y1="43.19" x2="29.58" y2="43.19"/><line class="cls-3" x1="32.83" y1="53.1" x2="32.83" y2="53.1"/><line class="cls-3" x1="28.17" y1="51.85" x2="28.17" y2="51.85"/><line class="cls-3" x1="26.25" y1="49.52" x2="26.25" y2="49.52"/><line class="cls-3" x1="24.92" y1="47.35" x2="24.92" y2="47.35"/><line class="cls-3" x1="26.33" y1="43.27" x2="26.33" y2="43.27"/><line class="cls-3" x1="26.42" y1="40.52" x2="26.42" y2="40.52"/><line class="cls-3" x1="24.5" y1="38.69" x2="24.5" y2="38.69"/><line class="cls-3" x1="24" y1="41.69" x2="24" y2="41.69"/><line class="cls-3" x1="16.75" y1="42.02" x2="16.75" y2="42.02"/><line class="cls-3" x1="13.75" y1="43.6" x2="13.75" y2="43.6"/><line class="cls-3" x1="17.5" y1="46.6" x2="17.5" y2="46.6"/><line class="cls-3" x1="21.25" y1="47.85" x2="21.25" y2="47.85"/><line class="cls-3" x1="19.17" y1="49.35" x2="19.17" y2="49.35"/><line class="cls-3" x1="23.67" y1="51.52" x2="23.67" y2="51.52"/><line class="cls-3" x1="21.42" y1="53.27" x2="21.42" y2="53.27"/><line class="cls-3" x1="15.25" y1="47.85" x2="15.25" y2="47.85"/><line class="cls-3" x1="13.33" y1="49.52" x2="13.33" y2="49.52"/><line class="cls-3" x1="11.42" y1="46.1" x2="11.42" y2="46.1"/><line class="cls-3" x1="12.5" y1="52.77" x2="12.5" y2="52.77"/><line class="cls-3" x1="9.33" y1="52.19" x2="9.33" y2="52.19"/><line class="cls-3" x1="4.46" y1="51.81" x2="4.46" y2="51.81"/><line class="cls-3" x1="1.33" y1="49.85" x2="1.33" y2="49.85"/><line class="cls-3" x1="3" y1="47.27" x2="3" y2="47.27"/><line class="cls-3" x1="6.58" y1="46.52" x2="6.58" y2="46.52"/><line class="cls-3" x1="38.83" y1="52.81" x2="38.83" y2="52.81"/><line class="cls-3" x1="45.46" y1="0.19" x2="45.46" y2="0.19"/><line class="cls-3" x1="50.08" y1="1.56" x2="50.08" y2="1.56"/><line class="cls-3" x1="53.46" y1="2.69" x2="53.46" y2="2.69"/><line class="cls-3" x1="45.67" y1="22.02" x2="45.67" y2="22.02"/><line class="cls-3" x1="39.75" y1="5.27" x2="39.75" y2="5.27"/><line class="cls-3" x1="40.25" y1="1.19" x2="40.25" y2="1.19"/><line class="cls-3" x1="43.42" y1="5.69" x2="43.42" y2="5.69"/><line class="cls-3" x1="45.58" y1="7.85" x2="45.58" y2="7.85"/><line class="cls-3" x1="50.21" y1="8.31" x2="50.21" y2="8.31"/><line class="cls-3" x1="50.33" y1="6.27" x2="50.33" y2="6.27"/><line class="cls-3" x1="52.83" y1="10.06" x2="52.83" y2="10.06"/><line class="cls-3" x1="30.83" y1="3.81" x2="30.83" y2="3.81"/><line class="cls-3" x1="28.71" y1="0.81" x2="28.71" y2="0.81"/><line class="cls-3" x1="21.33" y1="20.19" x2="21.33" y2="20.19"/><line class="cls-3" x1="19.96" y1="23.06" x2="19.96" y2="23.06"/><line class="cls-3" x1="23.08" y1="24.69" x2="23.08" y2="24.69"/><line class="cls-3" x1="21.08" y1="26.44" x2="21.08" y2="26.44"/><line class="cls-3" x1="23.83" y1="27.94" x2="23.83" y2="27.94"/><line class="cls-3" x1="16.71" y1="28.69" x2="16.71" y2="28.69"/><line class="cls-3" x1="13.96" y1="30.06" x2="13.96" y2="30.06"/><line class="cls-3" x1="5.08" y1="27.56" x2="5.08" y2="27.56"/><line class="cls-3" x1="1.58" y1="29.81" x2="1.58" y2="29.81"/><line class="cls-3" x1="1.71" y1="33.19" x2="1.71" y2="33.19"/><line class="cls-3" x1="3.71" y1="34.94" x2="3.71" y2="34.94"/><line class="cls-3" x1="6.96" y1="33.69" x2="6.96" y2="33.69"/><line class="cls-3" x1="7.46" y1="30.56" x2="7.46" y2="30.56"/><line class="cls-3" x1="11.83" y1="32.31" x2="11.83" y2="32.31"/><line class="cls-3" x1="15.33" y1="32.56" x2="15.33" y2="32.56"/><line class="cls-3" x1="13.96" y1="34.81" x2="13.96" y2="34.81"/><line class="cls-3" x1="14.46" y1="37.81" x2="14.46" y2="37.81"/><line class="cls-3" x1="7.83" y1="36.94" x2="7.83" y2="36.94"/><line class="cls-3" x1="10.33" y1="39.06" x2="10.33" y2="39.06"/><line class="cls-3" x1="7.33" y1="40.19" x2="7.33" y2="40.19"/><line class="cls-3" x1="3.46" y1="40.44" x2="3.46" y2="40.44"/><line class="cls-3" x1="0.71" y1="39.94" x2="0.71" y2="39.94"/><line class="cls-3" x1="0.96" y1="43.94" x2="0.96" y2="43.94"/><line class="cls-3" x1="8.96" y1="43.94" x2="8.96" y2="43.94"/><line class="cls-3" x1="18.46" y1="34.31" x2="18.46" y2="34.31"/><line class="cls-3" x1="22.46" y1="33.94" x2="22.46" y2="33.94"/><line class="cls-3" x1="19.96" y1="36.94" x2="19.96" y2="36.94"/><line class="cls-3" x1="20.08" y1="40.81" x2="20.08" y2="40.81"/><line class="cls-3" x1="17.33" y1="39.44" x2="17.33" y2="39.44"/><line class="cls-3" x1="26.83" y1="28.44" x2="26.83" y2="28.44"/><line class="cls-3" x1="28.71" y1="25.69" x2="28.71" y2="25.69"/><line class="cls-3" x1="28.71" y1="31.19" x2="28.71" y2="31.19"/><line class="cls-3" x1="33.08" y1="29.06" x2="33.08" y2="29.06"/><line class="cls-3" x1="35.46" y1="30.56" x2="35.46" y2="30.56"/><line class="cls-3" x1="30.46" y1="34.19" x2="30.46" y2="34.19"/><line class="cls-3" x1="27.58" y1="35.06" x2="27.58" y2="35.06"/><line class="cls-3" x1="25.08" y1="35.56" x2="25.08" y2="35.56"/><line class="cls-3" x1="31.83" y1="25.56" x2="31.83" y2="25.56"/><line class="cls-3" x1="23.46" y1="16.44" x2="23.46" y2="16.44"/></pattern></defs><title>BBoBasic</title><rect class="cls-4" width="72" height="72"/><rect class="cls-5" width="72" height="72"/></svg>