<svg id="Layer_1" data-name="Layer 1" xmlns="http://www.w3.org/2000/svg" xmlns:xlink="http://www.w3.org/1999/xlink" viewBox="0 0 72 72"><defs><style>.cls-1,.cls-2,.cls-3{fill:none;}.cls-2,.cls-3{stroke:#000;stroke-linecap:round;}.cls-2{stroke-width:0.7px;}.cls-3{stroke-width:0.3px;}.cls-4{fill:#f58220;}.cls-5{fill:url(#_602);}</style><pattern id="_602" data-name="602" width="54.15" height="54.21" patternTransform="translate(-5.72 -10.63)" patternUnits="userSpaceOnUse" viewBox="0 0 54.15 54.21"><rect class="cls-1" width="54.15" height="54.21"/><line class="cls-2" x1="1.23" y1="12.16" x2="1.23" y2="12.16"/><line class="cls-2" x1="3.24" y1="12" x2="3.24" y2="12"/><line class="cls-2" x1="5.64" y1="12.82" x2="5.64" y2="12.82"/><line class="cls-2" x1="7.12" y1="11.83" x2="7.12" y2="11.83"/><line class="cls-2" x1="8.69" y1="13.24" x2="8.69" y2="13.24"/><line class="cls-2" x1="3.65" y1="13.98" x2="3.65" y2="13.98"/><line class="cls-2" x1="1.59" y1="15.13" x2="1.59" y2="15.13"/><line class="cls-2" x1="3.24" y1="16.95" x2="3.24" y2="16.95"/><line class="cls-2" x1="4.98" y1="16.21" x2="4.98" y2="16.21"/><line class="cls-2" x1="6.21" y1="18.6" x2="6.21" y2="18.6"/><line class="cls-2" x1="3.99" y1="18.93" x2="3.99" y2="18.93"/><line class="cls-2" x1="0.68" y1="21.57" x2="0.68" y2="21.57"/><line class="cls-2" x1="1.59" y1="24.21" x2="1.59" y2="24.21"/><line class="cls-2" x1="3.16" y1="22.64" x2="3.16" y2="22.64"/><line class="cls-2" x1="4.65" y1="21.24" x2="4.65" y2="21.24"/><line class="cls-2" x1="7.29" y1="20.5" x2="7.29" y2="20.5"/><line class="cls-2" x1="8.03" y1="17.77" x2="8.03" y2="17.77"/><line class="cls-2" x1="9.6" y1="19.92" x2="9.6" y2="19.92"/><line class="cls-2" x1="10.75" y1="17.94" x2="10.75" y2="17.94"/><line class="cls-2" x1="12.98" y1="17.86" x2="12.98" y2="17.86"/><line class="cls-2" x1="10.92" y1="15.55" x2="10.92" y2="15.55"/><line class="cls-2" x1="11.16" y1="12.91" x2="11.16" y2="12.91"/><line class="cls-2" x1="13.39" y1="14.47" x2="13.39" y2="14.47"/><line class="cls-2" x1="13.1" y1="11.79" x2="13.1" y2="11.79"/><line class="cls-2" x1="14.71" y1="16.29" x2="14.71" y2="16.29"/><line class="cls-2" x1="16.53" y1="14.8" x2="16.53" y2="14.8"/><line class="cls-2" x1="16.61" y1="17.44" x2="16.61" y2="17.44"/><line class="cls-2" x1="18.18" y1="16.04" x2="18.18" y2="16.04"/><line class="cls-2" x1="18.84" y1="18.43" x2="18.84" y2="18.43"/><line class="cls-2" x1="17.43" y1="20.25" x2="17.43" y2="20.25"/><line class="cls-2" x1="19.41" y1="20.74" x2="19.41" y2="20.74"/><line class="cls-2" x1="19.66" y1="23.05" x2="19.66" y2="23.05"/><line class="cls-2" x1="17.43" y1="23.05" x2="17.43" y2="23.05"/><line class="cls-2" x1="15.12" y1="22.31" x2="15.12" y2="22.31"/><line class="cls-2" x1="12.48" y1="20.91" x2="12.48" y2="20.91"/><line class="cls-2" x1="12.73" y1="23.8" x2="12.73" y2="23.8"/><line class="cls-2" x1="10.26" y1="21.98" x2="10.26" y2="21.98"/><line class="cls-2" x1="9.93" y1="24.62" x2="9.93" y2="24.62"/><line class="cls-2" x1="7.62" y1="25.94" x2="7.62" y2="25.94"/><line class="cls-2" x1="5.14" y1="24.62" x2="5.14" y2="24.62"/><line class="cls-2" x1="5.22" y1="27.26" x2="5.22" y2="27.26"/><line class="cls-2" x1="6.46" y1="29.24" x2="6.46" y2="29.24"/><line class="cls-2" x1="9.02" y1="27.76" x2="9.02" y2="27.76"/><line class="cls-2" x1="12.15" y1="26.19" x2="12.15" y2="26.19"/><line class="cls-2" x1="11.41" y1="28.42" x2="11.41" y2="28.42"/><line class="cls-2" x1="7.53" y1="32.38" x2="7.53" y2="32.38"/><line class="cls-2" x1="5.31" y1="33.45" x2="5.31" y2="33.45"/><line class="cls-2" x1="4.81" y1="31.22" x2="4.81" y2="31.22"/><line class="cls-2" x1="3.93" y1="29.29" x2="3.93" y2="29.29"/><line class="cls-2" x1="1.27" y1="28.79" x2="1.27" y2="28.79"/><line class="cls-2" x1="1.84" y1="31.3" x2="1.84" y2="31.3"/><line class="cls-2" x1="0.44" y1="33.28" x2="0.44" y2="33.28"/><line class="cls-2" x1="0.77" y1="35.51" x2="0.77" y2="35.51"/><line class="cls-2" x1="1.68" y1="37.74" x2="1.68" y2="37.74"/><line class="cls-2" x1="4.23" y1="37.49" x2="4.23" y2="37.49"/><line class="cls-2" x1="6.46" y1="36.01" x2="6.46" y2="36.01"/><line class="cls-2" x1="8.52" y1="34.52" x2="8.52" y2="34.52"/><line class="cls-2" x1="11" y1="33.53" x2="11" y2="33.53"/><line class="cls-2" x1="11.41" y1="31.14" x2="11.41" y2="31.14"/><line class="cls-2" x1="13.56" y1="30.07" x2="13.56" y2="30.07"/><line class="cls-2" x1="13.72" y1="32.54" x2="13.72" y2="32.54"/><line class="cls-2" x1="16.36" y1="32.05" x2="16.36" y2="32.05"/><line class="cls-2" x1="16.11" y1="29.65" x2="16.11" y2="29.65"/><line class="cls-2" x1="17.6" y1="27.76" x2="17.6" y2="27.76"/><line class="cls-2" x1="18.34" y1="25.45" x2="18.34" y2="25.45"/><line class="cls-2" x1="15.7" y1="24.7" x2="15.7" y2="24.7"/><line class="cls-2" x1="20.49" y1="26.6" x2="20.49" y2="26.6"/><line class="cls-2" x1="19.66" y1="28.99" x2="19.66" y2="28.99"/><line class="cls-2" x1="18.42" y1="30.89" x2="18.42" y2="30.89"/><line class="cls-2" x1="18.34" y1="33.12" x2="18.34" y2="33.12"/><line class="cls-2" x1="18.59" y1="35.18" x2="18.59" y2="35.18"/><line class="cls-2" x1="20.57" y1="33.78" x2="20.57" y2="33.78"/><line class="cls-2" x1="16.77" y1="36.5" x2="16.77" y2="36.5"/><line class="cls-2" x1="12.57" y1="35.35" x2="12.57" y2="35.35"/><line class="cls-2" x1="14.63" y1="37" x2="14.63" y2="37"/><line class="cls-2" x1="12.32" y1="38.07" x2="12.32" y2="38.07"/><line class="cls-2" x1="12.07" y1="40.21" x2="12.07" y2="40.21"/><line class="cls-2" x1="9.18" y1="40.54" x2="9.18" y2="40.54"/><line class="cls-2" x1="7.04" y1="38.32" x2="7.04" y2="38.32"/><line class="cls-2" x1="6.63" y1="40.63" x2="6.63" y2="40.63"/><line class="cls-2" x1="4.4" y1="39.8" x2="4.4" y2="39.8"/><line class="cls-2" x1="1.76" y1="40.13" x2="1.76" y2="40.13"/><line class="cls-2" x1="0.72" y1="41.5" x2="0.72" y2="41.5"/><line class="cls-2" x1="1.76" y1="43.35" x2="1.76" y2="43.35"/><line class="cls-2" x1="5.55" y1="42.85" x2="5.55" y2="42.85"/><line class="cls-2" x1="7.78" y1="43.43" x2="7.78" y2="43.43"/><line class="cls-2" x1="10.92" y1="42.11" x2="10.92" y2="42.11"/><line class="cls-2" x1="13.64" y1="42.11" x2="13.64" y2="42.11"/><line class="cls-2" x1="14.88" y1="39.39" x2="14.88" y2="39.39"/><line class="cls-2" x1="17.43" y1="38.73" x2="17.43" y2="38.73"/><line class="cls-2" x1="19.66" y1="36.83" x2="19.66" y2="36.83"/><line class="cls-2" x1="19.74" y1="39.31" x2="19.74" y2="39.31"/><line class="cls-2" x1="18.51" y1="41.2" x2="18.51" y2="41.2"/><line class="cls-2" x1="22.3" y1="35.59" x2="22.3" y2="35.59"/><line class="cls-2" x1="23.29" y1="33.37" x2="23.29" y2="33.37"/><line class="cls-2" x1="23.7" y1="31.22" x2="23.7" y2="31.22"/><line class="cls-2" x1="22.22" y1="28.83" x2="22.22" y2="28.83"/><line class="cls-2" x1="23.04" y1="26.68" x2="23.04" y2="26.68"/><line class="cls-2" x1="24.2" y1="28.99" x2="24.2" y2="28.99"/><line class="cls-2" x1="26.01" y1="30.31" x2="26.01" y2="30.31"/><line class="cls-2" x1="27.91" y1="29.49" x2="27.91" y2="29.49"/><line class="cls-2" x1="27.5" y1="31.55" x2="27.5" y2="31.55"/><line class="cls-2" x1="25.6" y1="32.46" x2="25.6" y2="32.46"/><line class="cls-2" x1="29.07" y1="32.46" x2="29.07" y2="32.46"/><line class="cls-2" x1="32.04" y1="32.13" x2="32.04" y2="32.13"/><line class="cls-2" x1="30.3" y1="34.11" x2="30.3" y2="34.11"/><line class="cls-2" x1="32.53" y1="34.69" x2="32.53" y2="34.69"/><line class="cls-2" x1="34.43" y1="33.45" x2="34.43" y2="33.45"/><line class="cls-2" x1="37.07" y1="34.77" x2="37.07" y2="34.77"/><line class="cls-2" x1="35.58" y1="36.5" x2="35.58" y2="36.5"/><line class="cls-2" x1="37.81" y1="37.16" x2="37.81" y2="37.16"/><line class="cls-2" x1="35.5" y1="38.73" x2="35.5" y2="38.73"/><line class="cls-2" x1="37.56" y1="39.8" x2="37.56" y2="39.8"/><line class="cls-2" x1="37.98" y1="41.95" x2="37.98" y2="41.95"/><line class="cls-2" x1="35.09" y1="40.96" x2="35.09" y2="40.96"/><line class="cls-2" x1="32.53" y1="39.97" x2="32.53" y2="39.97"/><line class="cls-2" x1="31.46" y1="36.67" x2="31.46" y2="36.67"/><line class="cls-2" x1="30.39" y1="38.89" x2="30.39" y2="38.89"/><line class="cls-2" x1="29.4" y1="36.67" x2="29.4" y2="36.67"/><line class="cls-2" x1="28.24" y1="39.39" x2="28.24" y2="39.39"/><line class="cls-2" x1="27.17" y1="37.49" x2="27.17" y2="37.49"/><line class="cls-2" x1="24.94" y1="38.48" x2="24.94" y2="38.48"/><line class="cls-2" x1="24.94" y1="35.59" x2="24.94" y2="35.59"/><line class="cls-2" x1="25.52" y1="41.29" x2="25.52" y2="41.29"/><line class="cls-2" x1="23.13" y1="40.13" x2="23.13" y2="40.13"/><line class="cls-2" x1="30.55" y1="41.53" x2="30.55" y2="41.53"/><line class="cls-2" x1="33.36" y1="42.28" x2="33.36" y2="42.28"/><line class="cls-2" x1="35.75" y1="43.02" x2="35.75" y2="43.02"/><line class="cls-2" x1="41.94" y1="35.1" x2="41.94" y2="35.1"/><line class="cls-2" x1="43.67" y1="33.37" x2="43.67" y2="33.37"/><line class="cls-2" x1="44" y1="35.92" x2="44" y2="35.92"/><line class="cls-2" x1="43.34" y1="38.48" x2="43.34" y2="38.48"/><line class="cls-2" x1="41.28" y1="37.08" x2="41.28" y2="37.08"/><line class="cls-2" x1="44.41" y1="40.3" x2="44.41" y2="40.3"/><line class="cls-2" x1="45.9" y1="38.81" x2="45.9" y2="38.81"/><line class="cls-2" x1="47.46" y1="36.5" x2="47.46" y2="36.5"/><line class="cls-2" x1="48.7" y1="34.11" x2="48.7" y2="34.11"/><line class="cls-2" x1="51.01" y1="36.25" x2="51.01" y2="36.25"/><line class="cls-2" x1="52.99" y1="36.83" x2="52.99" y2="36.83"/><line class="cls-2" x1="52.08" y1="39.47" x2="52.08" y2="39.47"/><line class="cls-2" x1="49.44" y1="38.23" x2="49.44" y2="38.23"/><line class="cls-2" x1="50.1" y1="41.04" x2="50.1" y2="41.04"/><line class="cls-2" x1="52.5" y1="42.61" x2="52.5" y2="42.61"/><line class="cls-2" x1="50.76" y1="43.93" x2="50.76" y2="43.93"/><line class="cls-2" x1="48.21" y1="43.51" x2="48.21" y2="43.51"/><line class="cls-2" x1="50.43" y1="46.32" x2="50.43" y2="46.32"/><line class="cls-2" x1="52.58" y1="47.64" x2="52.58" y2="47.64"/><line class="cls-2" x1="50.02" y1="48.63" x2="50.02" y2="48.63"/><line class="cls-2" x1="53.24" y1="51.02" x2="53.24" y2="51.02"/><line class="cls-2" x1="51.18" y1="50.77" x2="51.18" y2="50.77"/><line class="cls-2" x1="51.85" y1="52.62" x2="51.85" y2="52.62"/><line class="cls-2" x1="48.62" y1="50.2" x2="48.62" y2="50.2"/><line class="cls-2" x1="45.73" y1="49.78" x2="45.73" y2="49.78"/><line class="cls-2" x1="46.22" y1="51.69" x2="46.22" y2="51.69"/><line class="cls-2" x1="46.85" y1="53.62" x2="46.85" y2="53.62"/><line class="cls-2" x1="44.33" y1="52.84" x2="44.33" y2="52.84"/><line class="cls-2" x1="42.51" y1="50.77" x2="42.51" y2="50.77"/><line class="cls-2" x1="44.25" y1="47.89" x2="44.25" y2="47.89"/><line class="cls-2" x1="45.81" y1="45.91" x2="45.81" y2="45.91"/><line class="cls-2" x1="45.65" y1="43.02" x2="45.65" y2="43.02"/><line class="cls-2" x1="43.26" y1="43.93" x2="43.26" y2="43.93"/><line class="cls-2" x1="41.36" y1="45.99" x2="41.36" y2="45.99"/><line class="cls-2" x1="39.87" y1="44.09" x2="39.87" y2="44.09"/><line class="cls-2" x1="42.35" y1="41.37" x2="42.35" y2="41.37"/><line class="cls-2" x1="40.78" y1="39.8" x2="40.78" y2="39.8"/><line class="cls-2" x1="39.96" y1="50.2" x2="39.96" y2="50.2"/><line class="cls-2" x1="40.6" y1="51.87" x2="40.6" y2="51.87"/><line class="cls-2" x1="39.1" y1="52.76" x2="39.1" y2="52.76"/><line class="cls-2" x1="41.69" y1="53.58" x2="41.69" y2="53.58"/><line class="cls-2" x1="38.39" y1="48.38" x2="38.39" y2="48.38"/><line class="cls-2" x1="38.97" y1="46.81" x2="38.97" y2="46.81"/><line class="cls-2" x1="37.4" y1="45" x2="37.4" y2="45"/><line class="cls-2" x1="35.75" y1="47.64" x2="35.75" y2="47.64"/><line class="cls-2" x1="36.08" y1="49.78" x2="36.08" y2="49.78"/><line class="cls-2" x1="37.73" y1="51.27" x2="37.73" y2="51.27"/><line class="cls-2" x1="36.49" y1="53.41" x2="36.49" y2="53.41"/><line class="cls-2" x1="33.27" y1="50.03" x2="33.27" y2="50.03"/><line class="cls-2" x1="33.6" y1="47.72" x2="33.6" y2="47.72"/><line class="cls-2" x1="31.87" y1="46.32" x2="31.87" y2="46.32"/><line class="cls-2" x1="33.11" y1="44.42" x2="33.11" y2="44.42"/><line class="cls-2" x1="31.29" y1="43.68" x2="31.29" y2="43.68"/><line class="cls-2" x1="28.98" y1="44.09" x2="28.98" y2="44.09"/><line class="cls-2" x1="26.51" y1="43.43" x2="26.51" y2="43.43"/><line class="cls-2" x1="27.99" y1="45.82" x2="27.99" y2="45.82"/><line class="cls-2" x1="30.14" y1="48.22" x2="30.14" y2="48.22"/><line class="cls-2" x1="30.88" y1="50.36" x2="30.88" y2="50.36"/><line class="cls-2" x1="29.31" y1="51.76" x2="29.31" y2="51.76"/><line class="cls-2" x1="30.35" y1="53.62" x2="30.35" y2="53.62"/><line class="cls-2" x1="32.1" y1="51.79" x2="32.1" y2="51.79"/><line class="cls-2" x1="33.43" y1="53.57" x2="33.43" y2="53.57"/><line class="cls-2" x1="31.85" y1="0.62" x2="31.85" y2="0.62"/><line class="cls-2" x1="27.99" y1="53.17" x2="27.99" y2="53.17"/><line class="cls-2" x1="26.43" y1="51.27" x2="26.43" y2="51.27"/><line class="cls-2" x1="25.52" y1="48.96" x2="25.52" y2="48.96"/><line class="cls-2" x1="26.92" y1="47.8" x2="26.92" y2="47.8"/><line class="cls-2" x1="24.94" y1="46.24" x2="24.94" y2="46.24"/><line class="cls-2" x1="23.21" y1="48.46" x2="23.21" y2="48.46"/><line class="cls-2" x1="24.53" y1="50.86" x2="24.53" y2="50.86"/><line class="cls-2" x1="25.44" y1="53.17" x2="25.44" y2="53.17"/><line class="cls-2" x1="21.81" y1="50.36" x2="21.81" y2="50.36"/><line class="cls-2" x1="20.07" y1="47.72" x2="20.07" y2="47.72"/><line class="cls-2" x1="19.5" y1="50.11" x2="19.5" y2="50.11"/><line class="cls-2" x1="19.1" y1="52.25" x2="19.1" y2="52.25"/><line class="cls-2" x1="21.48" y1="53.58" x2="21.48" y2="53.58"/><line class="cls-2" x1="17.52" y1="50.61" x2="17.52" y2="50.61"/><line class="cls-2" x1="17.85" y1="48.46" x2="17.85" y2="48.46"/><line class="cls-2" x1="16.86" y1="46.24" x2="16.86" y2="46.24"/><line class="cls-2" x1="19" y1="45.08" x2="19" y2="45.08"/><line class="cls-2" x1="17.52" y1="43.51" x2="17.52" y2="43.51"/><line class="cls-2" x1="20.82" y1="43.68" x2="20.82" y2="43.68"/><line class="cls-2" x1="20.82" y1="41.62" x2="20.82" y2="41.62"/><line class="cls-2" x1="23.62" y1="43.27" x2="23.62" y2="43.27"/><line class="cls-2" x1="15.37" y1="51.1" x2="15.37" y2="51.1"/><line class="cls-2" x1="13.56" y1="52.59" x2="13.56" y2="52.59"/><line class="cls-2" x1="13.23" y1="50.28" x2="13.23" y2="50.28"/><line class="cls-2" x1="10.83" y1="50.36" x2="10.83" y2="50.36"/><line class="cls-2" x1="11.6" y1="52.62" x2="11.6" y2="52.62"/><line class="cls-2" x1="12.93" y1="0.35" x2="12.93" y2="0.35"/><line class="cls-2" x1="8.77" y1="53.17" x2="8.77" y2="53.17"/><line class="cls-2" x1="9.76" y1="48.3" x2="9.76" y2="48.3"/><line class="cls-2" x1="12.4" y1="48.63" x2="12.4" y2="48.63"/><line class="cls-2" x1="11.33" y1="46.48" x2="11.33" y2="46.48"/><line class="cls-2" x1="13.8" y1="46.32" x2="13.8" y2="46.32"/><line class="cls-2" x1="15.54" y1="44.5" x2="15.54" y2="44.5"/><line class="cls-2" x1="12.81" y1="44.42" x2="12.81" y2="44.42"/><line class="cls-2" x1="8.77" y1="46.07" x2="8.77" y2="46.07"/><line class="cls-2" x1="7.2" y1="47.89" x2="7.2" y2="47.89"/><line class="cls-2" x1="6.63" y1="49.87" x2="6.63" y2="49.87"/><line class="cls-2" x1="4.43" y1="46.62" x2="4.43" y2="46.62"/><line class="cls-2" x1="6.38" y1="45.41" x2="6.38" y2="45.41"/><line class="cls-2" x1="3.82" y1="44.5" x2="3.82" y2="44.5"/><line class="cls-2" x1="1.93" y1="46.62" x2="1.93" y2="46.62"/><line class="cls-2" x1="0.77" y1="45.12" x2="0.77" y2="45.12"/><line class="cls-2" x1="0.77" y1="49.87" x2="0.77" y2="49.87"/><line class="cls-2" x1="0.44" y1="52.92" x2="0.44" y2="52.92"/><line class="cls-2" x1="2.27" y1="51.62" x2="2.27" y2="51.62"/><line class="cls-2" x1="3.49" y1="53" x2="3.49" y2="53"/><line class="cls-2" x1="6.43" y1="52.79" x2="6.43" y2="52.79"/><line class="cls-2" x1="5.06" y1="51.6" x2="5.06" y2="51.6"/><line class="cls-2" x1="4.93" y1="48.96" x2="4.93" y2="48.96"/><line class="cls-2" x1="25.11" y1="25.94" x2="25.11" y2="25.94"/><line class="cls-2" x1="23.54" y1="23.8" x2="23.54" y2="23.8"/><line class="cls-2" x1="21.81" y1="21.32" x2="21.81" y2="21.32"/><line class="cls-2" x1="23.54" y1="19.51" x2="23.54" y2="19.51"/><line class="cls-2" x1="24.61" y1="21.98" x2="24.61" y2="21.98"/><line class="cls-2" x1="26.34" y1="23.96" x2="26.34" y2="23.96"/><line class="cls-2" x1="26.51" y1="20" x2="26.51" y2="20"/><line class="cls-2" x1="25.77" y1="18.1" x2="25.77" y2="18.1"/><line class="cls-2" x1="24.86" y1="15.55" x2="24.86" y2="15.55"/><line class="cls-2" x1="21.23" y1="15.71" x2="21.23" y2="15.71"/><line class="cls-2" x1="19.5" y1="14.23" x2="19.5" y2="14.23"/><line class="cls-2" x1="20.16" y1="12.08" x2="20.16" y2="12.08"/><line class="cls-2" x1="21.89" y1="13.98" x2="21.89" y2="13.98"/><line class="cls-2" x1="24.03" y1="13.98" x2="24.03" y2="13.98"/><line class="cls-2" x1="22.96" y1="12.16" x2="22.96" y2="12.16"/><line class="cls-2" x1="25.68" y1="12.49" x2="25.68" y2="12.49"/><line class="cls-2" x1="28.41" y1="12.08" x2="28.41" y2="12.08"/><line class="cls-2" x1="29.56" y1="14.56" x2="29.56" y2="14.56"/><line class="cls-2" x1="28.49" y1="16.78" x2="28.49" y2="16.78"/><line class="cls-2" x1="28.98" y1="19.09" x2="28.98" y2="19.09"/><line class="cls-2" x1="30.88" y1="18.02" x2="30.88" y2="18.02"/><line class="cls-2" x1="31.62" y1="15.79" x2="31.62" y2="15.79"/><line class="cls-2" x1="31.13" y1="13.24" x2="31.13" y2="13.24"/><line class="cls-2" x1="30.96" y1="20.58" x2="30.96" y2="20.58"/><line class="cls-2" x1="30.72" y1="23.3" x2="30.72" y2="23.3"/><line class="cls-2" x1="28.65" y1="24.46" x2="28.65" y2="24.46"/><line class="cls-2" x1="27.83" y1="26.44" x2="27.83" y2="26.44"/><line class="cls-2" x1="30.47" y1="25.94" x2="30.47" y2="25.94"/><line class="cls-2" x1="33.11" y1="22.48" x2="33.11" y2="22.48"/><line class="cls-2" x1="33.52" y1="19.92" x2="33.52" y2="19.92"/><line class="cls-2" x1="35.5" y1="22.31" x2="35.5" y2="22.31"/><line class="cls-2" x1="37.89" y1="21.65" x2="37.89" y2="21.65"/><line class="cls-2" x1="36.9" y1="19.84" x2="36.9" y2="19.84"/><line class="cls-2" x1="36.41" y1="17.28" x2="36.41" y2="17.28"/><line class="cls-2" x1="35.83" y1="15.46" x2="35.83" y2="15.46"/><line class="cls-2" x1="33.52" y1="14.47" x2="33.52" y2="14.47"/><line class="cls-2" x1="35.1" y1="13.12" x2="35.1" y2="13.12"/><line class="cls-2" x1="37.56" y1="12.25" x2="37.56" y2="12.25"/><line class="cls-2" x1="39.96" y1="13.48" x2="39.96" y2="13.48"/><line class="cls-2" x1="40.53" y1="16.04" x2="40.53" y2="16.04"/><line class="cls-2" x1="39.13" y1="17.94" x2="39.13" y2="17.94"/><line class="cls-2" x1="41.03" y1="19.67" x2="41.03" y2="19.67"/><line class="cls-2" x1="43.09" y1="18.27" x2="43.09" y2="18.27"/><line class="cls-2" x1="42.18" y1="12.41" x2="42.18" y2="12.41"/><line class="cls-2" x1="44.74" y1="11.75" x2="44.74" y2="11.75"/><line class="cls-2" x1="45.57" y1="14.14" x2="45.57" y2="14.14"/><line class="cls-2" x1="45.48" y1="17.36" x2="45.48" y2="17.36"/><line class="cls-2" x1="44.91" y1="19.34" x2="44.91" y2="19.34"/><line class="cls-2" x1="43.5" y1="21.16" x2="43.5" y2="21.16"/><line class="cls-2" x1="42.93" y1="23.22" x2="42.93" y2="23.22"/><line class="cls-2" x1="41.11" y1="24.21" x2="41.11" y2="24.21"/><line class="cls-2" x1="39.13" y1="23.63" x2="39.13" y2="23.63"/><line class="cls-2" x1="37.48" y1="25.12" x2="37.48" y2="25.12"/><line class="cls-2" x1="38.39" y1="27.34" x2="38.39" y2="27.34"/><line class="cls-2" x1="36" y1="26.27" x2="36" y2="26.27"/><line class="cls-2" x1="35.91" y1="27.92" x2="35.91" y2="27.92"/><line class="cls-2" x1="33.52" y1="26.6" x2="33.52" y2="26.6"/><line class="cls-2" x1="31.71" y1="28.09" x2="31.71" y2="28.09"/><line class="cls-2" x1="30.72" y1="30.07" x2="30.72" y2="30.07"/><line class="cls-2" x1="33.36" y1="29.49" x2="33.36" y2="29.49"/><line class="cls-2" x1="36.08" y1="29.74" x2="36.08" y2="29.74"/><line class="cls-2" x1="38.64" y1="29.57" x2="38.64" y2="29.57"/><line class="cls-2" x1="36.82" y1="31.39" x2="36.82" y2="31.39"/><line class="cls-2" x1="38.47" y1="33.04" x2="38.47" y2="33.04"/><line class="cls-2" x1="39.96" y1="30.89" x2="39.96" y2="30.89"/><line class="cls-2" x1="40.86" y1="33.2" x2="40.86" y2="33.2"/><line class="cls-2" x1="42.51" y1="31.39" x2="42.51" y2="31.39"/><line class="cls-2" x1="40.29" y1="26.11" x2="40.29" y2="26.11"/><line class="cls-2" x1="43.01" y1="27.18" x2="43.01" y2="27.18"/><line class="cls-2" x1="43.67" y1="29.41" x2="43.67" y2="29.41"/><line class="cls-2" x1="44.49" y1="25.36" x2="44.49" y2="25.36"/><line class="cls-2" x1="45.9" y1="22.97" x2="45.9" y2="22.97"/><line class="cls-2" x1="47.88" y1="23.55" x2="47.88" y2="23.55"/><line class="cls-2" x1="47.46" y1="25.61" x2="47.46" y2="25.61"/><line class="cls-2" x1="45.4" y1="31.14" x2="45.4" y2="31.14"/><line class="cls-2" x1="48.62" y1="32.13" x2="48.62" y2="32.13"/><line class="cls-2" x1="47.96" y1="29.82" x2="47.96" y2="29.82"/><line class="cls-2" x1="50.76" y1="30.4" x2="50.76" y2="30.4"/><line class="cls-2" x1="53.07" y1="32.05" x2="53.07" y2="32.05"/><line class="cls-2" x1="53.07" y1="29.57" x2="53.07" y2="29.57"/><line class="cls-2" x1="52.33" y1="27.26" x2="52.33" y2="27.26"/><line class="cls-2" x1="49.77" y1="28" x2="49.77" y2="28"/><line class="cls-2" x1="50.43" y1="25.61" x2="50.43" y2="25.61"/><line class="cls-2" x1="50.02" y1="22.64" x2="50.02" y2="22.64"/><line class="cls-2" x1="52.91" y1="22.39" x2="52.91" y2="22.39"/><line class="cls-2" x1="51.84" y1="20.5" x2="51.84" y2="20.5"/><line class="cls-2" x1="49.53" y1="20.41" x2="49.53" y2="20.41"/><line class="cls-2" x1="48.21" y1="19.01" x2="48.21" y2="19.01"/><line class="cls-2" x1="50.35" y1="17.94" x2="50.35" y2="17.94"/><line class="cls-2" x1="52.74" y1="18.43" x2="52.74" y2="18.43"/><line class="cls-2" x1="47.96" y1="16.29" x2="47.96" y2="16.29"/><line class="cls-2" x1="26.01" y1="27.76" x2="26.01" y2="27.76"/><circle class="cls-3" cx="47.63" cy="47.47" r="0.93"/><circle class="cls-3" cx="47.55" cy="40.87" r="0.93"/><circle class="cls-3" cx="52.99" cy="45.16" r="0.82"/><ellipse class="cls-3" cx="49.54" cy="52.62" rx="0.82" ry="0.7"/><circle class="cls-3" cx="41.36" cy="48.22" r="0.93"/><circle class="cls-3" cx="40.2" cy="41.53" r="0.93"/><ellipse class="cls-3" cx="34.57" cy="51.43" rx="0.86" ry="0.78"/><circle class="cls-3" cx="35.17" cy="45.11" r="0.86"/><ellipse class="cls-3" cx="28.63" cy="49.29" rx="0.78" ry="0.86"/><ellipse class="cls-3" cx="23.02" cy="52.2" rx="0.93" ry="0.86"/><circle class="cls-3" cx="22.03" cy="46.1" r="0.86"/><circle class="cls-3" cx="28.46" cy="41.86" r="0.93"/><ellipse class="cls-3" cx="33.36" cy="37.3" rx="0.78" ry="0.86"/><circle class="cls-3" cx="39.52" cy="35.48" r="0.86"/><ellipse class="cls-3" cx="15.1" cy="48.24" rx="0.78" ry="0.86"/><ellipse class="cls-3" cx="8.66" cy="50.22" rx="0.86" ry="0.93"/><ellipse class="cls-3" cx="10.09" cy="44.06" rx="0.86" ry="0.78"/><circle class="cls-3" cx="16.31" cy="40.71" r="0.78"/><circle class="cls-3" cx="21.75" cy="37.52" r="0.93"/><ellipse class="cls-3" cx="27.47" cy="34.16" rx="0.93" ry="0.86"/><ellipse class="cls-3" cx="34.51" cy="31.14" rx="0.86" ry="0.78"/><ellipse class="cls-3" cx="45.9" cy="34.77" rx="0.78" ry="0.86"/><circle class="cls-3" cx="15.26" cy="34.27" r="0.78"/><circle class="cls-3" cx="21.37" cy="30.97" r="0.86"/><ellipse class="cls-3" cx="29.12" cy="27.78" rx="0.93" ry="0.86"/><ellipse class="cls-3" cx="40.73" cy="28.66" rx="0.93" ry="0.86"/><ellipse class="cls-3" cx="46.06" cy="27.56" rx="0.93" ry="0.7"/><ellipse class="cls-3" cx="51.73" cy="33.67" rx="0.93" ry="0.86" transform="translate(-2.26 3.76) rotate(-4.07)"/><circle class="cls-3" cx="52.17" cy="24.48" r="0.86"/><ellipse class="cls-3" cx="46.72" cy="20.69" rx="0.93" ry="0.78"/><ellipse class="cls-3" cx="40.18" cy="21.4" rx="0.93" ry="0.7"/><ellipse class="cls-3" cx="34.9" cy="24.48" rx="0.93" ry="0.78"/><ellipse class="cls-3" cx="27.75" cy="21.84" rx="1.01" ry="0.78"/><ellipse class="cls-3" cx="33.74" cy="17.61" rx="0.78" ry="0.86"/><ellipse class="cls-3" cx="50.41" cy="15.08" rx="0.93" ry="0.86"/><ellipse class="cls-3" cx="43.48" cy="14.69" rx="0.86" ry="0.78"/><circle class="cls-3" cx="37.98" cy="14.47" r="0.86"/><ellipse class="cls-3" cx="27.31" cy="14.25" rx="0.86" ry="0.78"/><ellipse class="cls-3" cx="21.48" cy="24.32" rx="0.86" ry="0.7"/><ellipse class="cls-3" cx="36.1" cy="1.55" rx="0.86" ry="0.7"/><ellipse class="cls-3" cx="1.1" cy="1.17" rx="0.86" ry="0.7"/><ellipse class="cls-3" cx="21.81" cy="17.55" rx="0.78" ry="0.86"/><ellipse class="cls-3" cx="17.63" cy="12.71" rx="0.93" ry="0.86"/><ellipse class="cls-3" cx="14.66" cy="19.53" rx="0.86" ry="0.93"/><ellipse class="cls-3" cx="14.27" cy="27.12" rx="0.86" ry="0.93"/><ellipse class="cls-3" cx="7.51" cy="14.97" rx="0.86" ry="0.78"/><circle class="cls-3" cx="7.12" cy="22.67" r="0.86"/><circle class="cls-3" cx="1.35" cy="18.32" r="0.86"/><ellipse class="cls-3" cx="2.23" cy="26.46" rx="0.93" ry="1.01"/><ellipse class="cls-3" cx="8.72" cy="30.04" rx="0.93" ry="0.86"/><line class="cls-2" x1="46.35" y1="2.87" x2="46.35" y2="2.87"/><line class="cls-2" x1="47.6" y1="11.5" x2="47.6" y2="11.5"/><line class="cls-2" x1="48.16" y1="1.69" x2="48.16" y2="1.69"/><line class="cls-2" x1="10.58" y1="1.43" x2="10.58" y2="1.43"/><line class="cls-2" x1="8.36" y1="1.43" x2="8.36" y2="1.43"/><line class="cls-2" x1="6.05" y1="0.68" x2="6.05" y2="0.68"/><line class="cls-2" x1="47.35" y1="8" x2="47.35" y2="8"/><line class="cls-2" x1="3.65" y1="2.17" x2="3.65" y2="2.17"/><line class="cls-2" x1="0.85" y1="2.99" x2="0.85" y2="2.99"/><line class="cls-2" x1="45.72" y1="6.25" x2="45.72" y2="6.25"/><line class="cls-2" x1="3.08" y1="4.56" x2="3.08" y2="4.56"/><line class="cls-2" x1="2.33" y1="6.79" x2="2.33" y2="6.79"/><line class="cls-2" x1="2.33" y1="9.51" x2="2.33" y2="9.51"/><line class="cls-2" x1="4.48" y1="8.44" x2="4.48" y2="8.44"/><line class="cls-2" x1="5.43" y1="10.29" x2="5.43" y2="10.29"/><line class="cls-2" x1="9.77" y1="11.12" x2="9.77" y2="11.12"/><line class="cls-2" x1="15.43" y1="11.46" x2="15.43" y2="11.46"/><line class="cls-2" x1="7.04" y1="8.03" x2="7.04" y2="8.03"/><line class="cls-2" x1="8.52" y1="6.13" x2="8.52" y2="6.13"/><line class="cls-2" x1="9.26" y1="3.82" x2="9.26" y2="3.82"/><line class="cls-2" x1="6.62" y1="3.08" x2="6.62" y2="3.08"/><line class="cls-2" x1="11.41" y1="4.97" x2="11.41" y2="4.97"/><line class="cls-2" x1="10.58" y1="7.37" x2="10.58" y2="7.37"/><line class="cls-2" x1="9.35" y1="9.26" x2="9.35" y2="9.26"/><line class="cls-2" x1="14.63" y1="9.59" x2="14.63" y2="9.59"/><line class="cls-2" x1="13.14" y1="7.2" x2="13.14" y2="7.2"/><line class="cls-2" x1="13.97" y1="5.06" x2="13.97" y2="5.06"/><line class="cls-2" x1="15.12" y1="7.37" x2="15.12" y2="7.37"/><line class="cls-2" x1="16.94" y1="8.69" x2="16.94" y2="8.69"/><line class="cls-2" x1="18.83" y1="7.86" x2="18.83" y2="7.86"/><line class="cls-2" x1="18.42" y1="9.92" x2="18.42" y2="9.92"/><line class="cls-2" x1="20.77" y1="10.12" x2="20.77" y2="10.12"/><line class="cls-2" x1="34.6" y1="11.12" x2="34.6" y2="11.12"/><line class="cls-2" x1="22.96" y1="10.5" x2="22.96" y2="10.5"/><line class="cls-2" x1="16.03" y1="4.31" x2="16.03" y2="4.31"/><line class="cls-2" x1="14.46" y1="2.17" x2="14.46" y2="2.17"/><line class="cls-2" x1="49.72" y1="3.5" x2="49.72" y2="3.5"/><line class="cls-2" x1="50.6" y1="1.79" x2="50.6" y2="1.79"/><line class="cls-2" x1="18.77" y1="0.79" x2="18.77" y2="0.79"/><line class="cls-2" x1="17.27" y1="2.33" x2="17.27" y2="2.33"/><line class="cls-2" x1="52.72" y1="3.37" x2="52.72" y2="3.37"/><line class="cls-2" x1="51.47" y1="5.5" x2="51.47" y2="5.5"/><line class="cls-2" x1="50.47" y1="7.75" x2="50.47" y2="7.75"/><line class="cls-2" x1="21.64" y1="1.67" x2="21.64" y2="1.67"/><line class="cls-2" x1="19.58" y1="2.83" x2="19.58" y2="2.83"/><line class="cls-2" x1="18.75" y1="4.81" x2="18.75" y2="4.81"/><line class="cls-2" x1="21.39" y1="4.31" x2="21.39" y2="4.31"/><line class="cls-2" x1="24.03" y1="0.85" x2="24.03" y2="0.85"/><line class="cls-2" x1="53.1" y1="7.25" x2="53.1" y2="7.25"/><line class="cls-2" x1="28.1" y1="1.46" x2="28.1" y2="1.46"/><line class="cls-2" x1="49.72" y1="13.12" x2="49.72" y2="13.12"/><line class="cls-2" x1="48.77" y1="9.29" x2="48.77" y2="9.29"/><line class="cls-2" x1="52.85" y1="12.75" x2="52.85" y2="12.75"/><line class="cls-2" x1="52.72" y1="15.5" x2="52.72" y2="15.5"/><line class="cls-2" x1="34.43" y1="1.96" x2="34.43" y2="1.96"/><line class="cls-2" x1="32.03" y1="2.58" x2="32.03" y2="2.58"/><line class="cls-2" x1="30.05" y1="2" x2="30.05" y2="2"/><line class="cls-2" x1="28.4" y1="3.49" x2="28.4" y2="3.49"/><line class="cls-2" x1="29.31" y1="5.72" x2="29.31" y2="5.72"/><line class="cls-2" x1="26.92" y1="4.64" x2="26.92" y2="4.64"/><line class="cls-2" x1="26.84" y1="6.29" x2="26.84" y2="6.29"/><line class="cls-2" x1="24.44" y1="4.97" x2="24.44" y2="4.97"/><line class="cls-2" x1="22.63" y1="6.46" x2="22.63" y2="6.46"/><line class="cls-2" x1="21.64" y1="8.44" x2="21.64" y2="8.44"/><line class="cls-2" x1="24.28" y1="7.86" x2="24.28" y2="7.86"/><line class="cls-2" x1="27" y1="8.11" x2="27" y2="8.11"/><line class="cls-2" x1="29.56" y1="7.94" x2="29.56" y2="7.94"/><line class="cls-2" x1="27.74" y1="9.76" x2="27.74" y2="9.76"/><line class="cls-2" x1="31.93" y1="11.46" x2="31.93" y2="11.46"/><line class="cls-2" x1="30.93" y1="9.12" x2="30.93" y2="9.12"/><line class="cls-2" x1="33.44" y1="9.76" x2="33.44" y2="9.76"/><line class="cls-2" x1="31.21" y1="4.48" x2="31.21" y2="4.48"/><line class="cls-2" x1="33.93" y1="5.55" x2="33.93" y2="5.55"/><line class="cls-2" x1="34.59" y1="7.78" x2="34.59" y2="7.78"/><line class="cls-2" x1="35.42" y1="3.74" x2="35.42" y2="3.74"/><line class="cls-2" x1="38.85" y1="0.5" x2="38.85" y2="0.5"/><line class="cls-2" x1="38.39" y1="3.98" x2="38.39" y2="3.98"/><line class="cls-2" x1="36.32" y1="9.51" x2="36.32" y2="9.51"/><line class="cls-2" x1="37.93" y1="10.46" x2="37.93" y2="10.46"/><line class="cls-2" x1="40.27" y1="10.79" x2="40.27" y2="10.79"/><line class="cls-2" x1="47.6" y1="13.46" x2="47.6" y2="13.46"/><line class="cls-2" x1="50.6" y1="10.79" x2="50.6" y2="10.79"/><line class="cls-2" x1="38.88" y1="8.19" x2="38.88" y2="8.19"/><line class="cls-2" x1="41.69" y1="8.77" x2="41.69" y2="8.77"/><line class="cls-2" x1="42.72" y1="10.62" x2="42.72" y2="10.62"/><line class="cls-2" x1="44" y1="7.94" x2="44" y2="7.94"/><line class="cls-2" x1="43.25" y1="5.63" x2="43.25" y2="5.63"/><line class="cls-2" x1="40.85" y1="5.62" x2="40.85" y2="5.62"/><line class="cls-2" x1="40.6" y1="3" x2="40.6" y2="3"/><line class="cls-2" x1="41.43" y1="1.46" x2="41.43" y2="1.46"/><line class="cls-2" x1="44.77" y1="0.83" x2="44.77" y2="0.83"/><line class="cls-2" x1="0.35" y1="5.5" x2="0.35" y2="5.5"/><line class="cls-2" x1="16.94" y1="6.13" x2="16.94" y2="6.13"/><ellipse class="cls-3" cx="25.43" cy="9.51" rx="0.86" ry="0.78"/><circle class="cls-3" cx="12.29" cy="9.35" r="0.86"/><ellipse class="cls-3" cx="20.04" cy="6.16" rx="0.93" ry="0.86"/><ellipse class="cls-3" cx="31.65" cy="7.04" rx="0.93" ry="0.86"/><ellipse class="cls-3" cx="38.1" cy="6.88" rx="0.93" ry="0.7"/><circle class="cls-3" cx="43.09" cy="2.86" r="0.86"/><ellipse class="cls-3" cx="48.42" cy="5.5" rx="0.93" ry="0.78"/><ellipse class="cls-3" cx="25.82" cy="2.86" rx="0.93" ry="0.78"/><ellipse class="cls-3" cx="44.72" cy="9.97" rx="1.01" ry="0.78"/><ellipse class="cls-3" cx="12.6" cy="2.88" rx="0.86" ry="0.7"/><ellipse class="cls-3" cx="16.27" cy="53.21" rx="0.86" ry="0.7"/><ellipse class="cls-3" cx="52.97" cy="9.69" rx="0.86" ry="0.93"/><ellipse class="cls-3" cx="5.85" cy="5.69" rx="0.86" ry="0.93"/><ellipse class="cls-3" cx="3" cy="34.44" rx="1.01" ry="0.78"/><ellipse class="cls-3" cx="9.54" cy="36.53" rx="1.01" ry="0.93"/><ellipse class="cls-3" cx="3.88" cy="41.64" rx="0.93" ry="0.86"/><ellipse class="cls-3" cx="2.43" cy="49.01" rx="0.86" ry="0.78"/><line class="cls-2" x1="52.66" y1="0.69" x2="52.66" y2="0.69"/><rect class="cls-1" x="0.03" y="0.08" width="54.13" height="54.13"/></pattern></defs><title>CCobBasic</title><rect class="cls-4" width="72" height="72"/><rect class="cls-5" width="72" height="72"/></svg>