<svg id="Layer_1" data-name="Layer 1" xmlns="http://www.w3.org/2000/svg" xmlns:xlink="http://www.w3.org/1999/xlink" viewBox="0 0 72 72"><defs><style>.cls-1,.cls-2,.cls-3{fill:none;}.cls-2,.cls-3{stroke:#000;}.cls-2{stroke-linecap:round;stroke-width:0.7px;}.cls-3{stroke-width:0.3px;}.cls-4{fill:#faa61a;}.cls-5{fill:url(#_601);}</style><pattern id="_601" data-name="601" width="54.13" height="54.13" patternTransform="translate(-5.72 -10.63)" patternUnits="userSpaceOnUse" viewBox="0 0 54.13 54.13"><rect class="cls-1" width="54.13" height="54.13"/><line class="cls-2" x1="25.22" y1="26.35" x2="25.22" y2="26.35"/><line class="cls-2" x1="0.83" y1="12.26" x2="0.83" y2="12.26"/><line class="cls-2" x1="3.36" y1="13.69" x2="3.36" y2="13.69"/><line class="cls-2" x1="6.06" y1="11.93" x2="6.06" y2="11.93"/><line class="cls-2" x1="6.06" y1="15.01" x2="6.06" y2="15.01"/><line class="cls-2" x1="9.41" y1="12.92" x2="9.41" y2="12.92"/><line class="cls-2" x1="12.38" y1="11.88" x2="12.38" y2="11.88"/><line class="cls-2" x1="9.47" y1="16.44" x2="9.47" y2="16.44"/><line class="cls-2" x1="12.85" y1="18.45" x2="12.85" y2="18.45"/><line class="cls-2" x1="12.68" y1="15.29" x2="12.68" y2="15.29"/><line class="cls-2" x1="15.24" y1="13.14" x2="15.24" y2="13.14"/><line class="cls-2" x1="18.32" y1="11.12" x2="18.32" y2="11.12"/><line class="cls-2" x1="4.19" y1="17.1" x2="4.19" y2="17.1"/><line class="cls-2" x1="1.16" y1="16.61" x2="1.16" y2="16.61"/><line class="cls-2" x1="2.65" y1="19.58" x2="2.65" y2="19.58"/><line class="cls-2" x1="5.78" y1="20.24" x2="5.78" y2="20.24"/><line class="cls-2" x1="9.03" y1="20.13" x2="9.03" y2="20.13"/><line class="cls-2" x1="16.23" y1="17.98" x2="16.23" y2="17.98"/><line class="cls-2" x1="14.85" y1="20.95" x2="14.85" y2="20.95"/><line class="cls-2" x1="12.11" y1="22.27" x2="12.11" y2="22.27"/><line class="cls-2" x1="17.77" y1="21.06" x2="17.77" y2="21.06"/><line class="cls-2" x1="19.64" y1="18.2" x2="19.64" y2="18.2"/><line class="cls-2" x1="18.6" y1="13.86" x2="18.6" y2="13.86"/><line class="cls-2" x1="9.39" y1="9.43" x2="9.39" y2="9.43"/><line class="cls-2" x1="22.94" y1="12.32" x2="22.94" y2="12.32"/><line class="cls-2" x1="21.57" y1="15.07" x2="21.57" y2="15.07"/><line class="cls-2" x1="22.61" y1="18.2" x2="22.61" y2="18.2"/><line class="cls-2" x1="21.07" y1="21.17" x2="21.07" y2="21.17"/><line class="cls-2" x1="24.98" y1="15.45" x2="24.98" y2="15.45"/><line class="cls-2" x1="26.96" y1="12.87" x2="26.96" y2="12.87"/><line class="cls-2" x1="26.13" y1="18.15" x2="26.13" y2="18.15"/><line class="cls-2" x1="24.32" y1="21.34" x2="24.32" y2="21.34"/><line class="cls-2" x1="28.66" y1="16.39" x2="28.66" y2="16.39"/><line class="cls-2" x1="1.05" y1="22.38" x2="1.05" y2="22.38"/><line class="cls-2" x1="4.24" y1="22.88" x2="4.24" y2="22.88"/><line class="cls-2" x1="7.49" y1="23.1" x2="7.49" y2="23.1"/><line class="cls-2" x1="30.53" y1="13.47" x2="30.53" y2="13.47"/><line class="cls-2" x1="30.26" y1="18.62" x2="30.26" y2="18.62"/><line class="cls-2" x1="33.01" y1="17.12" x2="33.01" y2="17.12"/><line class="cls-2" x1="31.52" y1="21.83" x2="31.52" y2="21.83"/><line class="cls-2" x1="34.88" y1="20.9" x2="34.88" y2="20.9"/><line class="cls-2" x1="36.31" y1="17.54" x2="36.31" y2="17.54"/><line class="cls-2" x1="36.2" y1="13.03" x2="36.2" y2="13.03"/><line class="cls-2" x1="39.28" y1="15.89" x2="39.28" y2="15.89"/><line class="cls-2" x1="41.26" y1="12.87" x2="41.26" y2="12.87"/><line class="cls-2" x1="43.35" y1="16" x2="43.35" y2="16"/><line class="cls-2" x1="40.54" y1="19.3" x2="40.54" y2="19.3"/><line class="cls-2" x1="38.18" y1="22.05" x2="38.18" y2="22.05"/><line class="cls-2" x1="44.83" y1="13.14" x2="44.83" y2="13.14"/><line class="cls-2" x1="48.76" y1="9.12" x2="48.76" y2="9.12"/><line class="cls-2" x1="52.01" y1="6.37" x2="52.01" y2="6.37"/><line class="cls-2" x1="52.51" y1="10.37" x2="52.51" y2="10.37"/><line class="cls-2" x1="49.64" y1="4.87" x2="49.64" y2="4.87"/><line class="cls-2" x1="46.51" y1="7.37" x2="46.51" y2="7.37"/><line class="cls-2" x1="43.01" y1="5.74" x2="43.01" y2="5.74"/><line class="cls-2" x1="45.7" y1="4.49" x2="45.7" y2="4.49"/><line class="cls-2" x1="52.45" y1="1.93" x2="52.45" y2="1.93"/><line class="cls-2" x1="47.14" y1="1.24" x2="47.14" y2="1.24"/><line class="cls-2" x1="43.32" y1="1.68" x2="43.32" y2="1.68"/><line class="cls-2" x1="43.2" y1="9.93" x2="43.2" y2="9.93"/><line class="cls-2" x1="40.32" y1="3.62" x2="40.32" y2="3.62"/><line class="cls-2" x1="37.26" y1="2.12" x2="37.26" y2="2.12"/><line class="cls-2" x1="34.35" y1="0.85" x2="34.35" y2="0.85"/><line class="cls-2" x1="36.95" y1="5.06" x2="36.95" y2="5.06"/><line class="cls-2" x1="35.26" y1="7.81" x2="35.26" y2="7.81"/><line class="cls-2" x1="33.07" y1="11.18" x2="33.07" y2="11.18"/><line class="cls-2" x1="31.89" y1="7.37" x2="31.89" y2="7.37"/><line class="cls-2" x1="31.57" y1="3.74" x2="31.57" y2="3.74"/><line class="cls-2" x1="27.76" y1="6.24" x2="27.76" y2="6.24"/><line class="cls-2" x1="29.39" y1="10.12" x2="29.39" y2="10.12"/><line class="cls-2" x1="29.51" y1="1.12" x2="29.51" y2="1.12"/><line class="cls-2" x1="28.26" y1="4.12" x2="28.26" y2="4.12"/><line class="cls-2" x1="26.01" y1="1.37" x2="26.01" y2="1.37"/><line class="cls-2" x1="22.7" y1="0.81" x2="22.7" y2="0.81"/><line class="cls-2" x1="24.32" y1="6.87" x2="24.32" y2="6.87"/><line class="cls-2" x1="22.45" y1="9.31" x2="22.45" y2="9.31"/><line class="cls-2" x1="20.95" y1="6.99" x2="20.95" y2="6.99"/><line class="cls-2" x1="22.82" y1="3.81" x2="22.82" y2="3.81"/><line class="cls-2" x1="18.95" y1="3.81" x2="18.95" y2="3.81"/><line class="cls-2" x1="6.01" y1="9.06" x2="6.01" y2="9.06"/><line class="cls-2" x1="3.01" y1="10.06" x2="3.01" y2="10.06"/><line class="cls-2" x1="0.51" y1="7.99" x2="0.51" y2="7.99"/><line class="cls-2" x1="8.32" y1="6.62" x2="8.32" y2="6.62"/><line class="cls-2" x1="10.82" y1="4.49" x2="10.82" y2="4.49"/><line class="cls-2" x1="9.26" y1="0.81" x2="9.26" y2="0.81"/><line class="cls-2" x1="7.76" y1="3.37" x2="7.76" y2="3.37"/><line class="cls-2" x1="5.68" y1="0.45" x2="5.68" y2="0.45"/><line class="cls-2" x1="3.82" y1="5.49" x2="3.82" y2="5.49"/><line class="cls-2" x1="4.51" y1="3.12" x2="4.51" y2="3.12"/><line class="cls-2" x1="1.51" y1="0.62" x2="1.51" y2="0.62"/><line class="cls-2" x1="0.51" y1="4.24" x2="0.51" y2="4.24"/><line class="cls-2" x1="18.07" y1="5.99" x2="18.07" y2="5.99"/><line class="cls-2" x1="17.95" y1="8.31" x2="17.95" y2="8.31"/><line class="cls-2" x1="13.95" y1="9.68" x2="13.95" y2="9.68"/><line class="cls-2" x1="14.64" y1="5.62" x2="14.64" y2="5.62"/><line class="cls-2" x1="16.32" y1="1.62" x2="16.32" y2="1.62"/><line class="cls-2" x1="14.01" y1="3.12" x2="14.01" y2="3.12"/><line class="cls-2" x1="12.51" y1="0.62" x2="12.51" y2="0.62"/><line class="cls-2" x1="39.64" y1="6.99" x2="39.64" y2="6.99"/><line class="cls-2" x1="38.01" y1="10.37" x2="38.01" y2="10.37"/><line class="cls-2" x1="47.69" y1="15.18" x2="47.69" y2="15.18"/><line class="cls-2" x1="48.26" y1="11.62" x2="48.26" y2="11.62"/><line class="cls-2" x1="52.01" y1="28.87" x2="52.01" y2="28.87"/><line class="cls-2" x1="53.01" y1="31.62" x2="53.01" y2="31.62"/><line class="cls-2" x1="52.76" y1="25.37" x2="52.76" y2="25.37"/><line class="cls-2" x1="46.92" y1="18.53" x2="46.92" y2="18.53"/><line class="cls-2" x1="50.76" y1="16.87" x2="50.76" y2="16.87"/><line class="cls-2" x1="50.51" y1="22.62" x2="50.51" y2="22.62"/><line class="cls-2" x1="50.01" y1="50.37" x2="50.01" y2="50.37"/><line class="cls-2" x1="47.86" y1="21.78" x2="47.86" y2="21.78"/><line class="cls-2" x1="52.51" y1="20.37" x2="52.51" y2="20.37"/><line class="cls-2" x1="47.36" y1="27.83" x2="47.36" y2="27.83"/><line class="cls-2" x1="45.96" y1="24.2" x2="45.96" y2="24.2"/><line class="cls-2" x1="42.16" y1="23.37" x2="42.16" y2="23.37"/><line class="cls-2" x1="39.94" y1="26.34" x2="39.94" y2="26.34"/><line class="cls-2" x1="43.4" y1="26.92" x2="43.4" y2="26.92"/><line class="cls-2" x1="33.17" y1="25.02" x2="33.17" y2="25.02"/><line class="cls-2" x1="30.12" y1="24.78" x2="30.12" y2="24.78"/><line class="cls-2" x1="26.65" y1="24.45" x2="26.65" y2="24.45"/><line class="cls-2" x1="22.86" y1="24.28" x2="22.86" y2="24.28"/><line class="cls-2" x1="19.97" y1="23.7" x2="19.97" y2="23.7"/><line class="cls-2" x1="15.93" y1="23.79" x2="15.93" y2="23.79"/><line class="cls-2" x1="11.64" y1="24.94" x2="11.64" y2="24.94"/><line class="cls-2" x1="2.56" y1="25.19" x2="2.56" y2="25.19"/><line class="cls-2" x1="5.53" y1="26.43" x2="5.53" y2="26.43"/><line class="cls-2" x1="4.46" y1="29.07" x2="4.46" y2="29.07"/><line class="cls-2" x1="1.57" y1="27.91" x2="1.57" y2="27.91"/><line class="cls-2" x1="2.48" y1="30.88" x2="2.48" y2="30.88"/><line class="cls-2" x1="6.11" y1="32.2" x2="6.11" y2="32.2"/><line class="cls-2" x1="7.84" y1="29.23" x2="7.84" y2="29.23"/><line class="cls-2" x1="9.41" y1="31.87" x2="9.41" y2="31.87"/><line class="cls-2" x1="10.98" y1="28.41" x2="10.98" y2="28.41"/><line class="cls-2" x1="12.3" y1="31.21" x2="12.3" y2="31.21"/><line class="cls-2" x1="14.53" y1="30.22" x2="14.53" y2="30.22"/><line class="cls-2" x1="13.62" y1="27.5" x2="13.62" y2="27.5"/><line class="cls-2" x1="16.67" y1="27.99" x2="16.67" y2="27.99"/><line class="cls-2" x1="19.64" y1="29.15" x2="19.64" y2="29.15"/><line class="cls-2" x1="21.21" y1="26.92" x2="21.21" y2="26.92"/><line class="cls-2" x1="18.07" y1="31.38" x2="18.07" y2="31.38"/><line class="cls-2" x1="15.6" y1="32.7" x2="15.6" y2="32.7"/><line class="cls-2" x1="12.88" y1="33.93" x2="12.88" y2="33.93"/><line class="cls-2" x1="10.32" y1="34.1" x2="10.32" y2="34.1"/><line class="cls-2" x1="7.18" y1="34.59" x2="7.18" y2="34.59"/><line class="cls-2" x1="4.54" y1="35.17" x2="4.54" y2="35.17"/><line class="cls-2" x1="1.66" y1="36.57" x2="1.66" y2="36.57"/><line class="cls-2" x1="0.91" y1="39.87" x2="0.91" y2="39.87"/><line class="cls-2" x1="3.64" y1="38.47" x2="3.64" y2="38.47"/><line class="cls-2" x1="6.69" y1="37.56" x2="6.69" y2="37.56"/><line class="cls-2" x1="6.44" y1="40.2" x2="6.44" y2="40.2"/><line class="cls-2" x1="3.97" y1="41.85" x2="3.97" y2="41.85"/><line class="cls-2" x1="1.16" y1="43.59" x2="1.16" y2="43.59"/><line class="cls-2" x1="3.97" y1="44.66" x2="3.97" y2="44.66"/><line class="cls-2" x1="7.27" y1="43.09" x2="7.27" y2="43.09"/><line class="cls-2" x1="9.41" y1="41.28" x2="9.41" y2="41.28"/><line class="cls-2" x1="10.65" y1="44.16" x2="10.65" y2="44.16"/><line class="cls-2" x1="13.21" y1="42.6" x2="13.21" y2="42.6"/><line class="cls-2" x1="15.19" y1="44.41" x2="15.19" y2="44.41"/><line class="cls-2" x1="17.41" y1="42.18" x2="17.41" y2="42.18"/><line class="cls-2" x1="14.53" y1="40.12" x2="14.53" y2="40.12"/><line class="cls-2" x1="11.8" y1="39.54" x2="11.8" y2="39.54"/><line class="cls-2" x1="11.64" y1="36.57" x2="11.64" y2="36.57"/><line class="cls-2" x1="14.61" y1="36.99" x2="14.61" y2="36.99"/><line class="cls-2" x1="17.08" y1="35.58" x2="17.08" y2="35.58"/><line class="cls-2" x1="17.58" y1="39.13" x2="17.58" y2="39.13"/><line class="cls-2" x1="20.8" y1="38.8" x2="20.8" y2="38.8"/><line class="cls-2" x1="20.22" y1="41.44" x2="20.22" y2="41.44"/><line class="cls-2" x1="21.13" y1="44.08" x2="21.13" y2="44.08"/><line class="cls-2" x1="23.35" y1="42.93" x2="23.35" y2="42.93"/><line class="cls-2" x1="26.41" y1="42.35" x2="26.41" y2="42.35"/><line class="cls-2" x1="25.58" y1="45.32" x2="25.58" y2="45.32"/><line class="cls-2" x1="23.68" y1="40.12" x2="23.68" y2="40.12"/><line class="cls-2" x1="24.34" y1="37.48" x2="24.34" y2="37.48"/><line class="cls-2" x1="26.74" y1="34.43" x2="26.74" y2="34.43"/><line class="cls-2" x1="22.78" y1="35.09" x2="22.78" y2="35.09"/><line class="cls-2" x1="20.71" y1="33.44" x2="20.71" y2="33.44"/><line class="cls-2" x1="21.54" y1="30.96" x2="21.54" y2="30.96"/><line class="cls-2" x1="24.51" y1="32.53" x2="24.51" y2="32.53"/><line class="cls-2" x1="26.57" y1="30.55" x2="26.57" y2="30.55"/><line class="cls-2" x1="24.01" y1="28.9" x2="24.01" y2="28.9"/><line class="cls-2" x1="28.72" y1="27.75" x2="28.72" y2="27.75"/><line class="cls-2" x1="31.69" y1="27.5" x2="31.69" y2="27.5"/><line class="cls-2" x1="33.09" y1="31.05" x2="33.09" y2="31.05"/><line class="cls-2" x1="31.03" y1="33.19" x2="31.03" y2="33.19"/><line class="cls-2" x1="32.26" y1="36" x2="32.26" y2="36"/><line class="cls-2" x1="34.74" y1="34.84" x2="34.74" y2="34.84"/><line class="cls-2" x1="36.8" y1="31.87" x2="36.8" y2="31.87"/><line class="cls-2" x1="35.65" y1="28.08" x2="35.65" y2="28.08"/><line class="cls-2" x1="39.28" y1="29.07" x2="39.28" y2="29.07"/><line class="cls-2" x1="43.48" y1="29.89" x2="43.48" y2="29.89"/><line class="cls-2" x1="40.18" y1="32.61" x2="40.18" y2="32.61"/><line class="cls-2" x1="38.29" y1="35.17" x2="38.29" y2="35.17"/><line class="cls-2" x1="41.83" y1="35.75" x2="41.83" y2="35.75"/><line class="cls-2" x1="45.3" y1="36.41" x2="45.3" y2="36.41"/><line class="cls-2" x1="48.1" y1="34.35" x2="48.1" y2="34.35"/><line class="cls-2" x1="52.23" y1="34.84" x2="52.23" y2="34.84"/><line class="cls-2" x1="49.92" y1="31.71" x2="49.92" y2="31.71"/><line class="cls-2" x1="46.78" y1="31.05" x2="46.78" y2="31.05"/><line class="cls-2" x1="47.2" y1="39.38" x2="47.2" y2="39.38"/><line class="cls-2" x1="49.35" y1="36.62" x2="49.35" y2="36.62"/><line class="cls-2" x1="49.75" y1="42.27" x2="49.75" y2="42.27"/><line class="cls-2" x1="51.9" y1="45.32" x2="51.9" y2="45.32"/><line class="cls-2" x1="47.28" y1="43.83" x2="47.28" y2="43.83"/><line class="cls-2" x1="44.14" y1="41.28" x2="44.14" y2="41.28"/><line class="cls-2" x1="42.91" y1="38.64" x2="42.91" y2="38.64"/><line class="cls-2" x1="39.36" y1="38.88" x2="39.36" y2="38.88"/><line class="cls-2" x1="40.84" y1="41.77" x2="40.84" y2="41.77"/><line class="cls-2" x1="41.59" y1="44.58" x2="41.59" y2="44.58"/><line class="cls-2" x1="38.29" y1="44.08" x2="38.29" y2="44.08"/><line class="cls-2" x1="36.55" y1="41.52" x2="36.55" y2="41.52"/><line class="cls-2" x1="33.75" y1="39.71" x2="33.75" y2="39.71"/><line class="cls-2" x1="34.82" y1="43.42" x2="34.82" y2="43.42"/><line class="cls-2" x1="31.11" y1="41.61" x2="31.11" y2="41.61"/><line class="cls-2" x1="27.26" y1="38.87" x2="27.26" y2="38.87"/><line class="cls-2" x1="29.46" y1="44.74" x2="29.46" y2="44.74"/><line class="cls-2" x1="32.59" y1="45.48" x2="32.59" y2="45.48"/><line class="cls-2" x1="52.56" y1="49.61" x2="52.56" y2="49.61"/><line class="cls-2" x1="52.56" y1="53.07" x2="52.56" y2="53.07"/><line class="cls-2" x1="48.93" y1="47.3" x2="48.93" y2="47.3"/><line class="cls-2" x1="45.79" y1="49.44" x2="45.79" y2="49.44"/><line class="cls-2" x1="47.44" y1="52.25" x2="47.44" y2="52.25"/><line class="cls-2" x1="44.31" y1="46.14" x2="44.31" y2="46.14"/><line class="cls-2" x1="40.93" y1="48.04" x2="40.93" y2="48.04"/><line class="cls-2" x1="42.33" y1="50.93" x2="42.33" y2="50.93"/><line class="cls-2" x1="44.68" y1="52.45" x2="44.68" y2="52.45"/><line class="cls-2" x1="40.01" y1="53.12" x2="40.01" y2="53.12"/><line class="cls-2" x1="37.35" y1="52.79" x2="37.35" y2="52.79"/><line class="cls-2" x1="38.01" y1="50.79" x2="38.01" y2="50.79"/><line class="cls-2" x1="35.01" y1="51.12" x2="35.01" y2="51.12"/><line class="cls-2" x1="29.26" y1="36.12" x2="29.26" y2="36.12"/><line class="cls-2" x1="31.01" y1="38.62" x2="31.01" y2="38.62"/><line class="cls-2" x1="31.52" y1="52.41" x2="31.52" y2="52.41"/><line class="cls-2" x1="33.09" y1="49.03" x2="33.09" y2="49.03"/><line class="cls-2" x1="36.39" y1="46.47" x2="36.39" y2="46.47"/><line class="cls-2" x1="30.28" y1="47.71" x2="30.28" y2="47.71"/><line class="cls-2" x1="26.74" y1="47.88" x2="26.74" y2="47.88"/><line class="cls-2" x1="24.18" y1="49.44" x2="24.18" y2="49.44"/><line class="cls-2" x1="25.91" y1="52.66" x2="25.91" y2="52.66"/><line class="cls-2" x1="22.53" y1="46.97" x2="22.53" y2="46.97"/><line class="cls-2" x1="20.3" y1="48.45" x2="20.3" y2="48.45"/><line class="cls-2" x1="21.95" y1="51.34" x2="21.95" y2="51.34"/><line class="cls-2" x1="20.01" y1="52.79" x2="20.01" y2="52.79"/><line class="cls-2" x1="16.92" y1="47.38" x2="16.92" y2="47.38"/><line class="cls-2" x1="18.32" y1="50.35" x2="18.32" y2="50.35"/><line class="cls-2" x1="16.84" y1="52.83" x2="16.84" y2="52.83"/><line class="cls-2" x1="14.86" y1="49.69" x2="14.86" y2="49.69"/><line class="cls-2" x1="13.29" y1="46.56" x2="13.29" y2="46.56"/><line class="cls-2" x1="9.91" y1="46.64" x2="9.91" y2="46.64"/><line class="cls-2" x1="6.77" y1="45.9" x2="6.77" y2="45.9"/><line class="cls-2" x1="0.83" y1="47.05" x2="0.83" y2="47.05"/><line class="cls-2" x1="5.29" y1="49.2" x2="5.29" y2="49.2"/><line class="cls-2" x1="8.42" y1="49.28" x2="8.42" y2="49.28"/><line class="cls-2" x1="7.76" y1="52.58" x2="7.76" y2="52.58"/><line class="cls-2" x1="12.38" y1="52.66" x2="12.38" y2="52.66"/><line class="cls-2" x1="4.54" y1="51.75" x2="4.54" y2="51.75"/><line class="cls-2" x1="1.24" y1="50.35" x2="1.24" y2="50.35"/><line class="cls-2" x1="1.82" y1="52.83" x2="1.82" y2="52.83"/><path class="cls-3" d="M20.26.87c1.31,0,1.56,1.56.19,1.63A.82.82,0,1,1,20.26.87Z"/><path class="cls-3" d="M33.76,2.68c1.31-.06,1.38,1.63.13,1.63A.82.82,0,1,1,33.76,2.68Z"/><path class="cls-3" d="M41.83,7.56c1.31-.06,1.63,1.56.31,1.62S40.83,7.62,41.83,7.56Z"/><path class="cls-3" d="M26.39,9.49c1-.06,1.44,1.38.19,1.5S25.2,9.62,26.39,9.49Z"/><path class="cls-3" d="M34.08,13.56c.81-.06,1.56,1.44.13,1.56S33,13.68,34.08,13.56Z"/><path class="cls-3" d="M12.14,6.24c1.19.06,1.25,1.5.13,1.56A.79.79,0,1,1,12.14,6.24Z"/><path class="cls-3" d="M2.7,7.31c1,.06,1.5,1.19.19,1.44S1.39,7.43,2.7,7.31Z"/><path class="cls-3" d="M17,14.81A.79.79,0,1,1,17,16.37C15.76,16.43,16.08,14.87,17,14.81Z"/><path class="cls-3" d="M7.14,15.74c1.25,0,1.62,1.38.13,1.56S5.76,15.81,7.14,15.74Z"/><path class="cls-3" d="M28.14,20.43a1,1,0,0,1-1.94.06C26.08,19.31,28,19.18,28.14,20.43Z"/><path class="cls-3" d="M36.2,23.93a.82.82,0,1,1,.13,1.63A.82.82,0,1,1,36.2,23.93Z"/><path class="cls-3" d="M45.39,20.12a.94.94,0,0,1-1.87.13A.94.94,0,1,1,45.39,20.12Z"/><path class="cls-3" d="M51,12.87c1.13-.06,1.63,1.5.19,1.5S50,13,51,12.87Z"/><path class="cls-3" d="M49.33,2.56A.77.77,0,0,1,49,1.06C49.89.93,51.14,2.31,49.33,2.56Z"/><path class="cls-3" d="M50,25.37c1.19-.06,1.31,1.44.19,1.5S48.76,25.62,50,25.37Z"/><path class="cls-3" d="M45,33.12c0,1.13-1.94,1.13-1.94.06S45,31.74,45,33.12Z"/><path class="cls-3" d="M36.64,37.12c1.31-.06,1.25,1.44.19,1.5S35.26,37.24,36.64,37.12Z"/><path class="cls-3" d="M52.89,40a1,1,0,0,1-1.94.13A1,1,0,0,1,52.89,40Z"/><path class="cls-3" d="M29.14,29.68c1.19,0,1.56,1.5.19,1.63A.82.82,0,1,1,29.14,29.68Z"/><path class="cls-3" d="M19.2,25.37a.91.91,0,1,1-1.81.06C17.39,24.12,19.14,23.93,19.2,25.37Z"/><path class="cls-3" d="M28.83,40.31c.88,0,1.63,1.81.06,1.75S27.39,40.24,28.83,40.31Z"/><path class="cls-3" d="M19.76,34.49c1.06.06,1.38,1.69.06,1.75S18.7,34.56,19.76,34.49Z"/><path class="cls-3" d="M10.14,37.93c0,1.13-1.87,1.63-1.94.13A1,1,0,1,1,10.14,37.93Z"/><path class="cls-3" d="M9.64,26.31c.06,1.69-1.75,1.63-1.81.31A.92.92,0,0,1,9.64,26.31Z"/><path class="cls-3" d="M2.08,32.24c1.13,0,1.38,2,.06,2A1,1,0,1,1,2.08,32.24Z"/><path class="cls-3" d="M4.14,47.43C4.2,48.56,2,48.87,2,47.56A1.1,1.1,0,0,1,4.14,47.43Z"/><path class="cls-3" d="M12.33,49.49c1.13,0,1.5,1.69.13,1.81S10.7,49.62,12.33,49.49Z"/><path class="cls-3" d="M19.45,44.24a.82.82,0,1,1,.13,1.63C18.45,45.93,17.77,44.41,19.45,44.24Z"/><path class="cls-3" d="M29.83,50.18c0,1.19-1.87,1.31-1.87.13S29.76,49,29.83,50.18Z"/><path class="cls-3" d="M38.64,47.93a.94.94,0,0,1-1.87.13A.94.94,0,1,1,38.64,47.93Z"/><path class="cls-3" d="M47.26,45.18c1.19-.06,1.44,1.63.25,1.75S45.83,45.31,47.26,45.18Z"/></pattern></defs><title>CGrBasic</title><rect class="cls-4" width="72" height="72"/><rect class="cls-5" width="72" height="72"/></svg>