<svg id="Layer_1" data-name="Layer 1" xmlns="http://www.w3.org/2000/svg" xmlns:xlink="http://www.w3.org/1999/xlink" viewBox="0 0 72 72"><defs><style>.cls-1,.cls-2{fill:none;}.cls-2{stroke:#231f20;stroke-width:0.3px;}.cls-3{fill:#50b848;}.cls-4{fill:url(#_620);}</style><pattern id="_620" data-name="620" width="53.58" height="53.58" patternTransform="translate(-5.72 -10.63)" patternUnits="userSpaceOnUse" viewBox="0 0 53.58 53.58"><rect class="cls-1" width="53.58" height="53.58"/><line class="cls-2" x1="3.78" y1="1.26" y2="1.26"/><line class="cls-2" x1="6.36" y1="1.26" x2="12.73" y2="1.26"/><line class="cls-2" x1="15.27" y1="1.26" x2="21.64" y2="1.26"/><line class="cls-2" x1="24.19" y1="1.26" x2="30.56" y2="1.26"/><line class="cls-2" x1="33.11" y1="1.26" x2="39.48" y2="1.26"/><line class="cls-2" x1="42.02" y1="1.26" x2="48.39" y2="1.26"/><line class="cls-2" x1="53.58" y1="1.26" x2="50.94" y2="1.26"/><line class="cls-2" x1="8.11" y1="4.4" x2="1.74" y2="4.4"/><line class="cls-2" x1="17.02" y1="4.4" x2="10.66" y2="4.4"/><line class="cls-2" x1="25.94" y1="4.4" x2="19.57" y2="4.4"/><line class="cls-2" x1="34.86" y1="4.4" x2="28.49" y2="4.4"/><line class="cls-2" x1="43.77" y1="4.4" x2="37.41" y2="4.4"/><line class="cls-2" x1="46.32" y1="4.4" x2="52.69" y2="4.4"/><line class="cls-2" y1="7.37" x2="2.02" y2="7.37"/><line class="cls-2" x1="10.97" y1="7.37" x2="4.61" y2="7.37"/><line class="cls-2" x1="13.52" y1="7.37" x2="19.89" y2="7.37"/><line class="cls-2" x1="22.44" y1="7.37" x2="28.81" y2="7.37"/><line class="cls-2" x1="31.36" y1="7.37" x2="37.72" y2="7.37"/><line class="cls-2" x1="40.27" y1="7.37" x2="46.64" y2="7.37"/><line class="cls-2" x1="49.19" y1="7.37" x2="53.58" y2="7.37"/><line class="cls-2" x1="7.31" y1="10.17" x2="0.94" y2="10.17"/><line class="cls-2" x1="16.23" y1="10.17" x2="9.86" y2="10.17"/><line class="cls-2" x1="25.15" y1="10.17" x2="18.78" y2="10.17"/><line class="cls-2" x1="34.06" y1="10.17" x2="27.69" y2="10.17"/><line class="cls-2" x1="42.98" y1="10.17" x2="36.61" y2="10.17"/><line class="cls-2" x1="45.53" y1="10.17" x2="51.9" y2="10.17"/><line class="cls-2" x1="1.71" y1="13.14" y2="13.14"/><line class="cls-2" x1="4.29" y1="13.14" x2="10.66" y2="13.14"/><line class="cls-2" x1="19.57" y1="13.14" x2="13.2" y2="13.14"/><line class="cls-2" x1="22.12" y1="13.14" x2="28.49" y2="13.14"/><line class="cls-2" x1="31.04" y1="13.14" x2="37.41" y2="13.14"/><line class="cls-2" x1="39.95" y1="13.14" x2="46.32" y2="13.14"/><line class="cls-2" x1="48.87" y1="13.14" x2="53.58" y2="13.14"/><line class="cls-2" x1="5.24" y1="16.15" y2="16.15"/><line class="cls-2" x1="14.16" y1="16.15" x2="7.79" y2="16.15"/><line class="cls-2" x1="23.08" y1="16.15" x2="16.71" y2="16.15"/><line class="cls-2" x1="25.62" y1="16.15" x2="31.99" y2="16.15"/><line class="cls-2" x1="34.54" y1="16.15" x2="40.91" y2="16.15"/><line class="cls-2" x1="43.46" y1="16.15" x2="49.83" y2="16.15"/><line class="cls-2" x1="53.58" y1="16.15" x2="52.37" y2="16.15"/><line class="cls-2" x1="2.18" y1="19.31" y2="19.31"/><line class="cls-2" x1="11.13" y1="19.31" x2="4.76" y2="19.31"/><line class="cls-2" x1="13.68" y1="19.31" x2="20.05" y2="19.31"/><line class="cls-2" x1="28.97" y1="19.31" x2="22.6" y2="19.31"/><line class="cls-2" x1="37.88" y1="19.31" x2="31.51" y2="19.31"/><line class="cls-2" x1="46.8" y1="19.31" x2="40.43" y2="19.31"/><line class="cls-2" x1="53.58" y1="19.31" x2="49.35" y2="19.31"/><line class="cls-2" x1="6.67" y1="22.23" x2="0.31" y2="22.23"/><line class="cls-2" x1="15.59" y1="22.23" x2="9.22" y2="22.23"/><line class="cls-2" x1="24.51" y1="22.23" x2="18.14" y2="22.23"/><line class="cls-2" x1="27.06" y1="22.23" x2="33.42" y2="22.23"/><line class="cls-2" x1="35.97" y1="22.23" x2="42.34" y2="22.23"/><line class="cls-2" x1="44.89" y1="22.23" x2="51.26" y2="22.23"/><line class="cls-2" x1="3.46" y1="25.2" y2="25.2"/><line class="cls-2" x1="6.04" y1="25.2" x2="12.41" y2="25.2"/><line class="cls-2" x1="21.32" y1="25.2" x2="14.96" y2="25.2"/><line class="cls-2" x1="30.24" y1="25.2" x2="23.87" y2="25.2"/><line class="cls-2" x1="32.79" y1="25.2" x2="39.16" y2="25.2"/><line class="cls-2" x1="41.71" y1="25.2" x2="48.07" y2="25.2"/><line class="cls-2" x1="50.62" y1="25.2" x2="53.58" y2="25.2"/><line class="cls-2" x1="7.95" y1="28.05" x2="1.58" y2="28.05"/><line class="cls-2" x1="16.87" y1="28.05" x2="10.5" y2="28.05"/><line class="cls-2" x1="25.78" y1="28.05" x2="19.41" y2="28.05"/><line class="cls-2" x1="28.33" y1="28.05" x2="34.7" y2="28.05"/><line class="cls-2" x1="43.62" y1="28.05" x2="37.25" y2="28.05"/><line class="cls-2" x1="46.16" y1="28.05" x2="52.53" y2="28.05"/><line class="cls-2" x1="2.98" y1="31.14" y2="31.14"/><line class="cls-2" x1="11.93" y1="31.14" x2="5.56" y2="31.14"/><line class="cls-2" x1="14.48" y1="31.14" x2="20.85" y2="31.14"/><line class="cls-2" x1="23.39" y1="31.14" x2="29.76" y2="31.14"/><line class="cls-2" x1="32.31" y1="31.14" x2="38.68" y2="31.14"/><line class="cls-2" x1="41.23" y1="31.14" x2="47.6" y2="31.14"/><line class="cls-2" x1="50.14" y1="31.14" x2="53.58" y2="31.14"/><line class="cls-2" x1="6.83" y1="34.27" x2="0.46" y2="34.27"/><line class="cls-2" x1="15.75" y1="34.27" x2="9.38" y2="34.27"/><line class="cls-2" x1="24.67" y1="34.27" x2="18.3" y2="34.27"/><line class="cls-2" x1="27.21" y1="34.27" x2="33.58" y2="34.27"/><line class="cls-2" x1="42.5" y1="34.27" x2="36.13" y2="34.27"/><line class="cls-2" x1="45.05" y1="34.27" x2="51.42" y2="34.27"/><line class="cls-2" y1="37.24" x2="2.18" y2="37.24"/><line class="cls-2" x1="4.76" y1="37.24" x2="11.13" y2="37.24"/><line class="cls-2" x1="20.05" y1="37.24" x2="13.68" y2="37.24"/><line class="cls-2" x1="22.6" y1="37.24" x2="28.97" y2="37.24"/><line class="cls-2" x1="31.51" y1="37.24" x2="37.88" y2="37.24"/><line class="cls-2" x1="40.43" y1="37.24" x2="46.8" y2="37.24"/><line class="cls-2" x1="49.35" y1="37.24" x2="53.58" y2="37.24"/><line class="cls-2" x1="6.04" y1="40.21" y2="40.21"/><line class="cls-2" x1="14.96" y1="40.21" x2="8.59" y2="40.21"/><line class="cls-2" x1="23.87" y1="40.21" x2="17.5" y2="40.21"/><line class="cls-2" x1="26.42" y1="40.21" x2="32.79" y2="40.21"/><line class="cls-2" x1="35.34" y1="40.21" x2="41.71" y2="40.21"/><line class="cls-2" x1="44.25" y1="40.21" x2="50.62" y2="40.21"/><line class="cls-2" x1="53.58" y1="40.21" x2="53.17" y2="40.21"/><line class="cls-2" y1="43.01" x2="3.14" y2="43.01"/><line class="cls-2" x1="12.09" y1="43.01" x2="5.72" y2="43.01"/><line class="cls-2" x1="14.64" y1="43.01" x2="21.01" y2="43.01"/><line class="cls-2" x1="23.55" y1="43.01" x2="29.92" y2="43.01"/><line class="cls-2" x1="32.47" y1="43.01" x2="38.84" y2="43.01"/><line class="cls-2" x1="47.75" y1="43.01" x2="41.39" y2="43.01"/><line class="cls-2" x1="50.3" y1="43.01" x2="53.58" y2="43.01"/><line class="cls-2" x1="8.27" y1="46.14" x2="1.9" y2="46.14"/><line class="cls-2" x1="17.18" y1="46.14" x2="10.81" y2="46.14"/><line class="cls-2" x1="26.1" y1="46.14" x2="19.73" y2="46.14"/><line class="cls-2" x1="35.02" y1="46.14" x2="28.65" y2="46.14"/><line class="cls-2" x1="37.56" y1="46.14" x2="43.93" y2="46.14"/><line class="cls-2" x1="46.48" y1="46.14" x2="52.85" y2="46.14"/><line class="cls-2" x1="4.73" y1="49.11" y2="49.11"/><line class="cls-2" x1="7.31" y1="49.11" x2="13.68" y2="49.11"/><line class="cls-2" x1="16.23" y1="49.11" x2="22.6" y2="49.11"/><line class="cls-2" x1="25.15" y1="49.11" x2="31.51" y2="49.11"/><line class="cls-2" x1="34.06" y1="49.11" x2="40.43" y2="49.11"/><line class="cls-2" x1="42.98" y1="49.11" x2="49.35" y2="49.11"/><line class="cls-2" x1="51.9" y1="49.11" x2="53.58" y2="49.11"/><line class="cls-2" x1="8.59" y1="52.08" x2="2.22" y2="52.08"/><line class="cls-2" x1="17.5" y1="52.08" x2="11.13" y2="52.08"/><line class="cls-2" x1="26.42" y1="52.08" x2="20.05" y2="52.08"/><line class="cls-2" x1="35.34" y1="52.08" x2="28.97" y2="52.08"/><line class="cls-2" x1="44.25" y1="52.08" x2="37.88" y2="52.08"/><line class="cls-2" x1="53.17" y1="52.08" x2="46.8" y2="52.08"/></pattern></defs><title>MudBasic</title><rect class="cls-3" width="72" height="72"/><rect class="cls-4" width="72" height="72"/></svg>