<svg id="Layer_1" data-name="Layer 1" xmlns="http://www.w3.org/2000/svg" xmlns:xlink="http://www.w3.org/1999/xlink" viewBox="0 0 72 72"><defs><style>.cls-1,.cls-2,.cls-3{fill:none;}.cls-2,.cls-3{stroke:#000;}.cls-2{stroke-width:0.3px;}.cls-3{stroke-linecap:round;stroke-width:0.7px;}.cls-4{fill:#9fd18b;}.cls-5{fill:url(#_616);}</style><pattern id="_616" data-name="616" width="54.13" height="54.13" patternTransform="translate(-5.72 -10.63)" patternUnits="userSpaceOnUse" viewBox="0 0 54.13 54.13"><rect class="cls-1" width="54.13" height="54.13"/><line class="cls-2" x1="5.63" y1="1.35" x2="14.71" y2="1.35"/><line class="cls-2" x1="23.75" y1="1.35" x2="32.83" y2="1.35"/><line class="cls-2" x1="50.96" y1="1.35" x2="41.88" y2="1.35"/><line class="cls-2" x1="6.83" y1="4.54" y2="4.54"/><line class="cls-2" x1="24.71" y1="4.54" x2="15.63" y2="4.54"/><line class="cls-2" x1="33.75" y1="4.54" x2="42.83" y2="4.54"/><line class="cls-2" x1="16.96" y1="7.54" x2="7.88" y2="7.54"/><line class="cls-2" x1="34.96" y1="7.54" x2="25.88" y2="7.54"/><line class="cls-2" x1="43.75" y1="7.54" x2="52.83" y2="7.54"/><line class="cls-2" x1="6.83" y1="10.42" y2="10.42"/><line class="cls-2" x1="24.71" y1="10.42" x2="15.63" y2="10.42"/><line class="cls-2" x1="33.63" y1="10.42" x2="42.71" y2="10.42"/><line class="cls-2" x1="50.71" y1="13.42" x2="41.63" y2="13.42"/><line class="cls-2" x1="32.71" y1="13.42" x2="23.63" y2="13.42"/><line class="cls-2" x1="14.58" y1="13.42" x2="5.5" y2="13.42"/><line class="cls-2" y1="16.54" x2="5.08" y2="16.54"/><line class="cls-2" x1="23.08" y1="16.54" x2="14" y2="16.54"/><line class="cls-2" x1="31.88" y1="16.54" x2="40.96" y2="16.54"/><line class="cls-2" x1="41.63" y1="19.42" x2="50.71" y2="19.42"/><line class="cls-2" x1="23.75" y1="19.42" x2="32.83" y2="19.42"/><line class="cls-2" x1="5.88" y1="19.42" x2="14.96" y2="19.42"/><line class="cls-2" x1="4.96" y1="22.54" y2="22.54"/><line class="cls-2" x1="13.75" y1="22.54" x2="22.83" y2="22.54"/><line class="cls-2" x1="31.75" y1="22.54" x2="40.83" y2="22.54"/><line class="cls-2" x1="39.75" y1="25.54" x2="48.83" y2="25.54"/><line class="cls-2" x1="30.83" y1="25.54" x2="21.75" y2="25.54"/><line class="cls-2" x1="12.58" y1="25.54" x2="3.5" y2="25.54"/><line class="cls-2" y1="28.67" x2="2.96" y2="28.67"/><line class="cls-2" x1="20.83" y1="28.67" x2="11.75" y2="28.67"/><line class="cls-2" x1="29.88" y1="28.67" x2="38.96" y2="28.67"/><line class="cls-2" x1="37.63" y1="31.54" x2="46.71" y2="31.54"/><line class="cls-2" x1="19.63" y1="31.54" x2="28.71" y2="31.54"/><line class="cls-2" x1="10.83" y1="31.54" x2="1.75" y2="31.54"/><line class="cls-2" x1="2.58" y1="34.67" y2="34.67"/><line class="cls-2" x1="20.58" y1="34.67" x2="11.5" y2="34.67"/><line class="cls-2" x1="29.5" y1="34.67" x2="38.58" y2="34.67"/><line class="cls-2" x1="39.75" y1="37.67" x2="48.83" y2="37.67"/><line class="cls-2" x1="21.75" y1="37.67" x2="30.83" y2="37.67"/><line class="cls-2" x1="12.83" y1="37.67" x2="3.75" y2="37.67"/><line class="cls-2" x1="5.08" y1="40.67" y2="40.67"/><line class="cls-2" x1="13.88" y1="40.67" x2="22.96" y2="40.67"/><line class="cls-2" x1="31.75" y1="40.67" x2="40.83" y2="40.67"/><line class="cls-2" x1="41.63" y1="43.54" x2="50.71" y2="43.54"/><line class="cls-2" x1="32.96" y1="43.54" x2="23.88" y2="43.54"/><line class="cls-2" x1="14.96" y1="43.54" x2="5.88" y2="43.54"/><line class="cls-2" x1="6.46" y1="46.79" y2="46.79"/><line class="cls-2" x1="15.5" y1="46.79" x2="24.58" y2="46.79"/><line class="cls-2" x1="33.63" y1="46.79" x2="42.71" y2="46.79"/><line class="cls-2" x1="50.71" y1="49.67" x2="41.63" y2="49.67"/><line class="cls-2" x1="32.96" y1="49.67" x2="23.88" y2="49.67"/><line class="cls-2" x1="14.83" y1="49.67" x2="5.75" y2="49.67"/><line class="cls-2" y1="52.79" x2="5.08" y2="52.79"/><line class="cls-2" x1="22.83" y1="52.79" x2="13.75" y2="52.79"/><line class="cls-2" x1="40.71" y1="52.79" x2="31.63" y2="52.79"/><line class="cls-2" x1="51.92" y1="4.54" x2="54.13" y2="4.54"/><line class="cls-2" x1="51.92" y1="10.42" x2="54.13" y2="10.42"/><line class="cls-2" x1="50.17" y1="16.54" x2="54.13" y2="16.54"/><line class="cls-2" x1="54.13" y1="22.54" x2="50.04" y2="22.54"/><line class="cls-2" x1="48.04" y1="28.67" x2="54.13" y2="28.67"/><line class="cls-2" x1="47.67" y1="34.67" x2="54.13" y2="34.67"/><line class="cls-2" x1="50.17" y1="40.67" x2="54.13" y2="40.67"/><line class="cls-2" x1="51.54" y1="46.79" x2="54.13" y2="46.79"/><line class="cls-2" x1="50.17" y1="52.79" x2="54.13" y2="52.79"/><line class="cls-3" x1="11.29" y1="4.54" x2="11.29" y2="4.54"/><line class="cls-3" x1="13.57" y1="4.54" x2="13.57" y2="4.54"/><line class="cls-3" x1="8.9" y1="4.54" x2="8.9" y2="4.54"/><line class="cls-3" x1="29.29" y1="4.54" x2="29.29" y2="4.54"/><line class="cls-3" x1="31.57" y1="4.54" x2="31.57" y2="4.54"/><line class="cls-3" x1="26.91" y1="4.54" x2="26.91" y2="4.54"/><line class="cls-3" x1="47.38" y1="4.54" x2="47.38" y2="4.54"/><line class="cls-3" x1="49.66" y1="4.54" x2="49.66" y2="4.54"/><line class="cls-3" x1="44.99" y1="4.54" x2="44.99" y2="4.54"/><line class="cls-3" x1="39.46" y1="7.54" x2="39.46" y2="7.54"/><line class="cls-3" x1="41.74" y1="7.54" x2="41.74" y2="7.54"/><line class="cls-3" x1="37.07" y1="7.54" x2="37.07" y2="7.54"/><line class="cls-3" x1="21.46" y1="7.54" x2="21.46" y2="7.54"/><line class="cls-3" x1="23.74" y1="7.54" x2="23.74" y2="7.54"/><line class="cls-3" x1="19.07" y1="7.54" x2="19.07" y2="7.54"/><line class="cls-3" x1="3.5" y1="7.54" x2="3.5" y2="7.54"/><line class="cls-3" x1="5.78" y1="7.54" x2="5.78" y2="7.54"/><line class="cls-3" x1="1.11" y1="7.54" x2="1.11" y2="7.54"/><line class="cls-3" x1="19.13" y1="1.42" x2="19.13" y2="1.42"/><line class="cls-3" x1="21.41" y1="1.42" x2="21.41" y2="1.42"/><line class="cls-3" x1="16.74" y1="1.42" x2="16.74" y2="1.42"/><line class="cls-3" x1="1.25" y1="1.42" x2="1.25" y2="1.42"/><line class="cls-3" x1="3.53" y1="1.42" x2="3.53" y2="1.42"/><line class="cls-3" x1="37.38" y1="1.42" x2="37.38" y2="1.42"/><line class="cls-3" x1="39.66" y1="1.42" x2="39.66" y2="1.42"/><line class="cls-3" x1="34.99" y1="1.42" x2="34.99" y2="1.42"/><line class="cls-3" x1="52.78" y1="1.42" x2="52.78" y2="1.42"/><line class="cls-3" x1="29.15" y1="10.44" x2="29.15" y2="10.44"/><line class="cls-3" x1="31.43" y1="10.44" x2="31.43" y2="10.44"/><line class="cls-3" x1="26.77" y1="10.44" x2="26.77" y2="10.44"/><line class="cls-3" x1="11.28" y1="10.44" x2="11.28" y2="10.44"/><line class="cls-3" x1="13.56" y1="10.44" x2="13.56" y2="10.44"/><line class="cls-3" x1="8.89" y1="10.44" x2="8.89" y2="10.44"/><line class="cls-3" x1="47.4" y1="10.44" x2="47.4" y2="10.44"/><line class="cls-3" x1="49.68" y1="10.44" x2="49.68" y2="10.44"/><line class="cls-3" x1="45.02" y1="10.44" x2="45.02" y2="10.44"/><line class="cls-3" x1="19" y1="13.44" x2="19" y2="13.44"/><line class="cls-3" x1="21.28" y1="13.44" x2="21.28" y2="13.44"/><line class="cls-3" x1="16.61" y1="13.44" x2="16.61" y2="13.44"/><line class="cls-3" x1="1.12" y1="13.44" x2="1.12" y2="13.44"/><line class="cls-3" x1="3.4" y1="13.44" x2="3.4" y2="13.44"/><line class="cls-3" x1="37.25" y1="13.44" x2="37.25" y2="13.44"/><line class="cls-3" x1="39.53" y1="13.44" x2="39.53" y2="13.44"/><line class="cls-3" x1="34.86" y1="13.44" x2="34.86" y2="13.44"/><line class="cls-3" x1="52.65" y1="13.44" x2="52.65" y2="13.44"/><line class="cls-3" x1="27.44" y1="16.56" x2="27.44" y2="16.56"/><line class="cls-3" x1="29.72" y1="16.56" x2="29.72" y2="16.56"/><line class="cls-3" x1="25.05" y1="16.56" x2="25.05" y2="16.56"/><line class="cls-3" x1="9.56" y1="16.56" x2="9.56" y2="16.56"/><line class="cls-3" x1="11.84" y1="16.56" x2="11.84" y2="16.56"/><line class="cls-3" x1="7.17" y1="16.56" x2="7.17" y2="16.56"/><line class="cls-3" x1="45.69" y1="16.56" x2="45.69" y2="16.56"/><line class="cls-3" x1="47.97" y1="16.56" x2="47.97" y2="16.56"/><line class="cls-3" x1="43.3" y1="16.56" x2="43.3" y2="16.56"/><line class="cls-3" x1="18.88" y1="19.44" x2="18.88" y2="19.44"/><line class="cls-3" x1="21.16" y1="19.44" x2="21.16" y2="19.44"/><line class="cls-3" x1="16.49" y1="19.44" x2="16.49" y2="19.44"/><line class="cls-3" x1="1" y1="19.44" x2="1" y2="19.44"/><line class="cls-3" x1="3.28" y1="19.44" x2="3.28" y2="19.44"/><line class="cls-3" x1="37.13" y1="19.44" x2="37.13" y2="19.44"/><line class="cls-3" x1="39.41" y1="19.44" x2="39.41" y2="19.44"/><line class="cls-3" x1="34.74" y1="19.44" x2="34.74" y2="19.44"/><line class="cls-3" x1="52.53" y1="19.44" x2="52.53" y2="19.44"/><line class="cls-3" x1="27.31" y1="22.5" x2="27.31" y2="22.5"/><line class="cls-3" x1="29.59" y1="22.5" x2="29.59" y2="22.5"/><line class="cls-3" x1="24.93" y1="22.5" x2="24.93" y2="22.5"/><line class="cls-3" x1="9.44" y1="22.5" x2="9.44" y2="22.5"/><line class="cls-3" x1="11.72" y1="22.5" x2="11.72" y2="22.5"/><line class="cls-3" x1="7.05" y1="22.5" x2="7.05" y2="22.5"/><line class="cls-3" x1="45.56" y1="22.5" x2="45.56" y2="22.5"/><line class="cls-3" x1="47.84" y1="22.5" x2="47.84" y2="22.5"/><line class="cls-3" x1="43.18" y1="22.5" x2="43.18" y2="22.5"/><line class="cls-3" x1="17.06" y1="25.5" x2="17.06" y2="25.5"/><line class="cls-3" x1="19.34" y1="25.5" x2="19.34" y2="25.5"/><line class="cls-3" x1="14.68" y1="25.5" x2="14.68" y2="25.5"/><line class="cls-3" x1="1.47" y1="25.5" x2="1.47" y2="25.5"/><line class="cls-3" x1="35.31" y1="25.5" x2="35.31" y2="25.5"/><line class="cls-3" x1="37.59" y1="25.5" x2="37.59" y2="25.5"/><line class="cls-3" x1="32.93" y1="25.5" x2="32.93" y2="25.5"/><line class="cls-3" x1="53.1" y1="25.5" x2="53.1" y2="25.5"/><line class="cls-3" x1="50.72" y1="25.5" x2="50.72" y2="25.5"/><line class="cls-3" x1="25.25" y1="28.63" x2="25.25" y2="28.63"/><line class="cls-3" x1="27.53" y1="28.63" x2="27.53" y2="28.63"/><line class="cls-3" x1="22.86" y1="28.63" x2="22.86" y2="28.63"/><line class="cls-3" x1="7.37" y1="28.63" x2="7.37" y2="28.63"/><line class="cls-3" x1="9.65" y1="28.63" x2="9.65" y2="28.63"/><line class="cls-3" x1="4.99" y1="28.63" x2="4.99" y2="28.63"/><line class="cls-3" x1="43.5" y1="28.63" x2="43.5" y2="28.63"/><line class="cls-3" x1="45.78" y1="28.63" x2="45.78" y2="28.63"/><line class="cls-3" x1="41.11" y1="28.63" x2="41.11" y2="28.63"/><line class="cls-3" x1="14.94" y1="31.56" x2="14.94" y2="31.56"/><line class="cls-3" x1="17.22" y1="31.56" x2="17.22" y2="31.56"/><line class="cls-3" x1="12.55" y1="31.56" x2="12.55" y2="31.56"/><line class="cls-3" x1="33.19" y1="31.56" x2="33.19" y2="31.56"/><line class="cls-3" x1="35.47" y1="31.56" x2="35.47" y2="31.56"/><line class="cls-3" x1="30.8" y1="31.56" x2="30.8" y2="31.56"/><line class="cls-3" x1="50.98" y1="31.56" x2="50.98" y2="31.56"/><line class="cls-3" x1="53.26" y1="31.56" x2="53.26" y2="31.56"/><line class="cls-3" x1="48.59" y1="31.56" x2="48.59" y2="31.56"/><line class="cls-3" x1="24.94" y1="34.69" x2="24.94" y2="34.69"/><line class="cls-3" x1="27.22" y1="34.69" x2="27.22" y2="34.69"/><line class="cls-3" x1="22.55" y1="34.69" x2="22.55" y2="34.69"/><line class="cls-3" x1="7.06" y1="34.69" x2="7.06" y2="34.69"/><line class="cls-3" x1="9.34" y1="34.69" x2="9.34" y2="34.69"/><line class="cls-3" x1="4.67" y1="34.69" x2="4.67" y2="34.69"/><line class="cls-3" x1="43.19" y1="34.69" x2="43.19" y2="34.69"/><line class="cls-3" x1="45.47" y1="34.69" x2="45.47" y2="34.69"/><line class="cls-3" x1="40.8" y1="34.69" x2="40.8" y2="34.69"/><line class="cls-3" x1="17.13" y1="37.69" x2="17.13" y2="37.69"/><line class="cls-3" x1="19.41" y1="37.69" x2="19.41" y2="37.69"/><line class="cls-3" x1="14.74" y1="37.69" x2="14.74" y2="37.69"/><line class="cls-3" x1="1.53" y1="37.69" x2="1.53" y2="37.69"/><line class="cls-3" x1="35.38" y1="37.69" x2="35.38" y2="37.69"/><line class="cls-3" x1="37.66" y1="37.69" x2="37.66" y2="37.69"/><line class="cls-3" x1="32.99" y1="37.69" x2="32.99" y2="37.69"/><line class="cls-3" x1="53.16" y1="37.69" x2="53.16" y2="37.69"/><line class="cls-3" x1="50.78" y1="37.69" x2="50.78" y2="37.69"/><line class="cls-3" x1="27.31" y1="40.69" x2="27.31" y2="40.69"/><line class="cls-3" x1="29.59" y1="40.69" x2="29.59" y2="40.69"/><line class="cls-3" x1="24.93" y1="40.69" x2="24.93" y2="40.69"/><line class="cls-3" x1="9.44" y1="40.69" x2="9.44" y2="40.69"/><line class="cls-3" x1="11.72" y1="40.69" x2="11.72" y2="40.69"/><line class="cls-3" x1="7.05" y1="40.69" x2="7.05" y2="40.69"/><line class="cls-3" x1="45.56" y1="40.69" x2="45.56" y2="40.69"/><line class="cls-3" x1="47.84" y1="40.69" x2="47.84" y2="40.69"/><line class="cls-3" x1="43.18" y1="40.69" x2="43.18" y2="40.69"/><line class="cls-3" x1="19.13" y1="43.5" x2="19.13" y2="43.5"/><line class="cls-3" x1="21.41" y1="43.5" x2="21.41" y2="43.5"/><line class="cls-3" x1="16.74" y1="43.5" x2="16.74" y2="43.5"/><line class="cls-3" x1="1.25" y1="43.5" x2="1.25" y2="43.5"/><line class="cls-3" x1="3.53" y1="43.5" x2="3.53" y2="43.5"/><line class="cls-3" x1="37.38" y1="43.5" x2="37.38" y2="43.5"/><line class="cls-3" x1="39.66" y1="43.5" x2="39.66" y2="43.5"/><line class="cls-3" x1="34.99" y1="43.5" x2="34.99" y2="43.5"/><line class="cls-3" x1="52.78" y1="43.5" x2="52.78" y2="43.5"/><line class="cls-3" x1="29" y1="46.81" x2="29" y2="46.81"/><line class="cls-3" x1="31.28" y1="46.81" x2="31.28" y2="46.81"/><line class="cls-3" x1="26.61" y1="46.81" x2="26.61" y2="46.81"/><line class="cls-3" x1="11.12" y1="46.81" x2="11.12" y2="46.81"/><line class="cls-3" x1="13.4" y1="46.81" x2="13.4" y2="46.81"/><line class="cls-3" x1="8.74" y1="46.81" x2="8.74" y2="46.81"/><line class="cls-3" x1="47.25" y1="46.81" x2="47.25" y2="46.81"/><line class="cls-3" x1="49.53" y1="46.81" x2="49.53" y2="46.81"/><line class="cls-3" x1="44.86" y1="46.81" x2="44.86" y2="46.81"/><line class="cls-3" x1="19.19" y1="49.69" x2="19.19" y2="49.69"/><line class="cls-3" x1="21.47" y1="49.69" x2="21.47" y2="49.69"/><line class="cls-3" x1="16.8" y1="49.69" x2="16.8" y2="49.69"/><line class="cls-3" x1="1.31" y1="49.69" x2="1.31" y2="49.69"/><line class="cls-3" x1="3.59" y1="49.69" x2="3.59" y2="49.69"/><line class="cls-3" x1="37.44" y1="49.69" x2="37.44" y2="49.69"/><line class="cls-3" x1="39.72" y1="49.69" x2="39.72" y2="49.69"/><line class="cls-3" x1="35.05" y1="49.69" x2="35.05" y2="49.69"/><line class="cls-3" x1="52.84" y1="49.69" x2="52.84" y2="49.69"/><line class="cls-3" x1="27.38" y1="52.81" x2="27.38" y2="52.81"/><line class="cls-3" x1="29.66" y1="52.81" x2="29.66" y2="52.81"/><line class="cls-3" x1="24.99" y1="52.81" x2="24.99" y2="52.81"/><line class="cls-3" x1="9.5" y1="52.81" x2="9.5" y2="52.81"/><line class="cls-3" x1="11.78" y1="52.81" x2="11.78" y2="52.81"/><line class="cls-3" x1="7.11" y1="52.81" x2="7.11" y2="52.81"/><line class="cls-3" x1="45.63" y1="52.81" x2="45.63" y2="52.81"/><line class="cls-3" x1="47.91" y1="52.81" x2="47.91" y2="52.81"/><line class="cls-3" x1="43.24" y1="52.81" x2="43.24" y2="52.81"/></pattern></defs><title>SiltBasic</title><rect class="cls-4" width="72" height="72"/><rect class="cls-5" width="72" height="72"/></svg>