<svg id="Layer_1" data-name="Layer 1" xmlns="http://www.w3.org/2000/svg" xmlns:xlink="http://www.w3.org/1999/xlink" viewBox="0 0 72 72"><defs><style>.cls-1,.cls-2{fill:none;}.cls-2{stroke:#000;stroke-linecap:round;stroke-width:0.7px;}.cls-3{fill:#ffd800;}.cls-4{fill:url(#_607);}</style><pattern id="_607" data-name="607" width="49.68" height="49.68" patternTransform="translate(-5.72 -10.63)" patternUnits="userSpaceOnUse" viewBox="0 0 49.68 49.68"><rect class="cls-1" width="49.68" height="49.68"/><line class="cls-2" x1="14.49" y1="1.9" x2="14.49" y2="1.9"/><line class="cls-2" x1="14.49" y1="4.66" x2="14.49" y2="4.66"/><line class="cls-2" x1="13.97" y1="7.07" x2="13.97" y2="7.07"/><line class="cls-2" x1="10.01" y1="7.24" x2="10.01" y2="7.24"/><line class="cls-2" x1="16.56" y1="14.32" x2="16.56" y2="14.32"/><line class="cls-2" x1="9.14" y1="17.94" x2="9.14" y2="17.94"/><line class="cls-2" x1="16.56" y1="18.46" x2="16.56" y2="18.46"/><line class="cls-2" x1="20.53" y1="18.46" x2="20.53" y2="18.46"/><line class="cls-2" x1="21.56" y1="15.87" x2="21.56" y2="15.87"/><line class="cls-2" x1="20.18" y1="12.42" x2="20.18" y2="12.42"/><line class="cls-2" x1="23.46" y1="13.46" x2="23.46" y2="13.46"/><line class="cls-2" x1="23.46" y1="10.18" x2="23.46" y2="10.18"/><line class="cls-2" x1="21.91" y1="7.93" x2="21.91" y2="7.93"/><line class="cls-2" x1="22.25" y1="4.66" x2="22.25" y2="4.66"/><line class="cls-2" x1="21.39" y1="2.24" x2="21.39" y2="2.24"/><line class="cls-2" x1="23.46" y1="0.69" x2="23.46" y2="0.69"/><line class="cls-2" x1="28.64" y1="4.66" x2="28.64" y2="4.66"/><line class="cls-2" x1="31.4" y1="4.48" x2="31.4" y2="4.48"/><line class="cls-2" x1="29.33" y1="9.14" x2="29.33" y2="9.14"/><line class="cls-2" x1="32.43" y1="9.66" x2="32.43" y2="9.66"/><line class="cls-2" x1="32.43" y1="13.11" x2="32.43" y2="13.11"/><line class="cls-2" x1="26.91" y1="14.15" x2="26.91" y2="14.15"/><line class="cls-2" x1="34.67" y1="9.14" x2="34.67" y2="9.14"/><line class="cls-2" x1="37.78" y1="7.42" x2="37.78" y2="7.42"/><line class="cls-2" x1="38.99" y1="0.35" x2="38.99" y2="0.35"/><line class="cls-2" x1="46.58" y1="1.03" x2="46.58" y2="1.03"/><line class="cls-2" x1="46.92" y1="6.9" x2="46.92" y2="6.9"/><line class="cls-2" x1="44.33" y1="8.28" x2="44.33" y2="8.28"/><line class="cls-2" x1="45.02" y1="10.7" x2="45.02" y2="10.7"/><line class="cls-2" x1="44.16" y1="13.46" x2="44.16" y2="13.46"/><line class="cls-2" x1="44.33" y1="15.35" x2="44.33" y2="15.35"/><line class="cls-2" x1="46.92" y1="14.49" x2="46.92" y2="14.49"/><line class="cls-2" x1="4.83" y1="35.88" x2="4.83" y2="35.88"/><line class="cls-2" x1="5" y1="37.43" x2="5" y2="37.43"/><line class="cls-2" x1="1.55" y1="37.43" x2="1.55" y2="37.43"/><line class="cls-2" x1="6.73" y1="43.99" x2="6.73" y2="43.99"/><line class="cls-2" x1="0.69" y1="46.75" x2="0.69" y2="46.75"/><line class="cls-2" x1="7.59" y1="48.82" x2="7.59" y2="48.82"/><path class="cls-2" d="M12.77,45h0"/><line class="cls-2" x1="11.21" y1="42.78" x2="11.21" y2="42.78"/><line class="cls-2" x1="13.45" y1="39.68" x2="13.45" y2="39.68"/><line class="cls-2" x1="8.45" y1="42.61" x2="8.45" y2="42.61"/><line class="cls-2" x1="11.21" y1="37.61" x2="11.21" y2="37.61"/><line class="cls-2" x1="13.28" y1="35.02" x2="13.28" y2="35.02"/><line class="cls-2" x1="10.18" y1="35.02" x2="10.18" y2="35.02"/><line class="cls-2" x1="11.21" y1="32.43" x2="11.21" y2="32.43"/><line class="cls-2" x1="22.43" y1="34.85" x2="22.43" y2="34.85"/><line class="cls-2" x1="18.8" y1="37.26" x2="18.8" y2="37.26"/><line class="cls-2" x1="22.08" y1="38.3" x2="22.08" y2="38.3"/><line class="cls-2" x1="21.39" y1="40.54" x2="21.39" y2="40.54"/><line class="cls-2" x1="17.94" y1="43.82" x2="17.94" y2="43.82"/><line class="cls-2" x1="24.84" y1="38.64" x2="24.84" y2="38.64"/><line class="cls-2" x1="28.81" y1="34.85" x2="28.81" y2="34.85"/><line class="cls-2" x1="30.02" y1="30.71" x2="30.02" y2="30.71"/><line class="cls-2" x1="34.67" y1="35.36" x2="34.67" y2="35.36"/><line class="cls-2" x1="35.54" y1="32.78" x2="35.54" y2="32.78"/><line class="cls-2" x1="37.95" y1="32.26" x2="37.95" y2="32.26"/><line class="cls-2" x1="37.95" y1="37.26" x2="37.95" y2="37.26"/><line class="cls-2" x1="35.36" y1="38.64" x2="35.36" y2="38.64"/><line class="cls-2" x1="32.95" y1="41.4" x2="32.95" y2="41.4"/><line class="cls-2" x1="38.12" y1="40.02" x2="38.12" y2="40.02"/><line class="cls-2" x1="40.19" y1="42.26" x2="40.19" y2="42.26"/><line class="cls-2" x1="14.14" y1="15.35" x2="14.14" y2="15.35"/><line class="cls-2" x1="26.91" y1="16.91" x2="26.91" y2="16.91"/><line class="cls-2" x1="32.78" y1="18.63" x2="32.78" y2="18.63"/><line class="cls-2" x1="38.12" y1="19.15" x2="38.12" y2="19.15"/><line class="cls-2" x1="35.36" y1="17.25" x2="35.36" y2="17.25"/><line class="cls-2" x1="35.88" y1="20.18" x2="35.88" y2="20.18"/><line class="cls-2" x1="43.13" y1="24.32" x2="43.13" y2="24.32"/><line class="cls-2" x1="39.16" y1="26.74" x2="39.16" y2="26.74"/><line class="cls-2" x1="33.29" y1="25.53" x2="33.29" y2="25.53"/><line class="cls-2" x1="33.12" y1="28.29" x2="33.12" y2="28.29"/><line class="cls-2" x1="33.12" y1="30.36" x2="33.12" y2="30.36"/><line class="cls-2" x1="40.71" y1="31.74" x2="40.71" y2="31.74"/><line class="cls-2" x1="43.47" y1="33.64" x2="43.47" y2="33.64"/><line class="cls-2" x1="47.27" y1="30.02" x2="47.27" y2="30.02"/><line class="cls-2" x1="42.61" y1="26.74" x2="42.61" y2="26.74"/><line class="cls-2" x1="22.43" y1="32.26" x2="22.43" y2="32.26"/><line class="cls-2" x1="18.69" y1="27.89" x2="18.69" y2="27.89"/><line class="cls-2" x1="20.53" y1="24.32" x2="20.53" y2="24.32"/><line class="cls-2" x1="7.19" y1="18.83" x2="7.19" y2="18.83"/><line class="cls-2" x1="4.14" y1="21.56" x2="4.14" y2="21.56"/><line class="cls-2" x1="1.72" y1="24.15" x2="1.72" y2="24.15"/><line class="cls-2" x1="11.73" y1="28.81" x2="11.73" y2="28.81"/><line class="cls-2" x1="9.66" y1="23.29" x2="9.66" y2="23.29"/><line class="cls-2" x1="18.29" y1="20.7" x2="18.29" y2="20.7"/><line class="cls-2" x1="28.64" y1="21.56" x2="28.64" y2="21.56"/><line class="cls-2" x1="25.7" y1="21.56" x2="25.7" y2="21.56"/><line class="cls-2" x1="21.05" y1="27.26" x2="21.05" y2="27.26"/><line class="cls-2" x1="4.48" y1="13.97" x2="4.48" y2="13.97"/><line class="cls-2" x1="6.73" y1="12.77" x2="6.73" y2="12.77"/><line class="cls-2" x1="8.11" y1="16.04" x2="8.11" y2="16.04"/><line class="cls-2" x1="2.07" y1="17.6" x2="2.07" y2="17.6"/><line class="cls-2" x1="44.33" y1="20.18" x2="44.33" y2="20.18"/><line class="cls-2" x1="47.96" y1="20.35" x2="47.96" y2="20.35"/><line class="cls-2" x1="1.03" y1="6.04" x2="1.03" y2="6.04"/><line class="cls-2" x1="12.25" y1="4.48" x2="12.25" y2="4.48"/><line class="cls-2" x1="2.59" y1="3.97" x2="2.59" y2="3.97"/><line class="cls-2" x1="8.8" y1="9.66" x2="8.8" y2="9.66"/><line class="cls-2" x1="12.77" y1="13.11" x2="12.77" y2="13.11"/><line class="cls-2" x1="14.66" y1="25.36" x2="14.66" y2="25.36"/><line class="cls-2" x1="0.52" y1="30.36" x2="0.52" y2="30.36"/><line class="cls-2" x1="47.96" y1="45.2" x2="47.96" y2="45.2"/><line class="cls-2" x1="39.68" y1="47.44" x2="39.68" y2="47.44"/><line class="cls-2" x1="27.95" y1="46.75" x2="27.95" y2="46.75"/><line class="cls-2" x1="3.1" y1="41.23" x2="3.1" y2="41.23"/><line class="cls-2" x1="18.29" y1="40.88" x2="18.29" y2="40.88"/><line class="cls-2" x1="25.7" y1="33.29" x2="25.7" y2="33.29"/><line class="cls-2" x1="6.04" y1="27.6" x2="6.04" y2="27.6"/><line class="cls-2" x1="36.05" y1="26.05" x2="36.05" y2="26.05"/><line class="cls-2" x1="44.68" y1="31.4" x2="44.68" y2="31.4"/><line class="cls-2" x1="35.36" y1="45.54" x2="35.36" y2="45.54"/><line class="cls-2" x1="27.6" y1="25.88" x2="27.6" y2="25.88"/><line class="cls-2" x1="18.98" y1="9.14" x2="18.98" y2="9.14"/><line class="cls-2" x1="13.63" y1="18.11" x2="13.63" y2="18.11"/><line class="cls-2" x1="8.11" y1="1.03" x2="8.11" y2="1.03"/><line class="cls-2" x1="38.12" y1="2.41" x2="38.12" y2="2.41"/><line class="cls-2" x1="33.12" y1="47.44" x2="33.12" y2="47.44"/><line class="cls-2" x1="2.59" y1="27.95" x2="2.59" y2="27.95"/><line class="cls-2" x1="47.44" y1="8.97" x2="47.44" y2="8.97"/><line class="cls-2" x1="16.04" y1="9.49" x2="16.04" y2="9.49"/><line class="cls-2" x1="12.94" y1="10.69" x2="12.94" y2="10.69"/><line class="cls-2" x1="10.18" y1="11.73" x2="10.18" y2="11.73"/><line class="cls-2" x1="3.45" y1="7.62" x2="3.45" y2="7.62"/><line class="cls-2" x1="4.83" y1="1.72" x2="4.83" y2="1.72"/><line class="cls-2" x1="9.83" y1="5.52" x2="9.83" y2="5.52"/><line class="cls-2" x1="17.77" y1="4.66" x2="17.77" y2="4.66"/><line class="cls-2" x1="25.53" y1="5" x2="25.53" y2="5"/><line class="cls-2" x1="25.88" y1="2.76" x2="25.88" y2="2.76"/><line class="cls-2" x1="30.02" y1="0.86" x2="30.02" y2="0.86"/><line class="cls-2" x1="35.36" y1="6.04" x2="35.36" y2="6.04"/><line class="cls-2" x1="24.67" y1="7.42" x2="24.67" y2="7.42"/><line class="cls-2" x1="27.08" y1="10.18" x2="27.08" y2="10.18"/><line class="cls-2" x1="17.08" y1="12.25" x2="17.08" y2="12.25"/><line class="cls-2" x1="5" y1="18.98" x2="5" y2="18.98"/><line class="cls-2" x1="11.04" y1="21.74" x2="11.04" y2="21.74"/><line class="cls-2" x1="7.24" y1="22.94" x2="7.24" y2="22.94"/><line class="cls-2" x1="3.62" y1="25.36" x2="3.62" y2="25.36"/><line class="cls-2" x1="2.24" y1="13.97" x2="2.24" y2="13.97"/><line class="cls-2" x1="14.14" y1="21.05" x2="14.14" y2="21.05"/><line class="cls-2" x1="12.07" y1="24.32" x2="12.07" y2="24.32"/><line class="cls-2" x1="11.04" y1="26.74" x2="11.04" y2="26.74"/><line class="cls-2" x1="8.8" y1="28.29" x2="8.8" y2="28.29"/><line class="cls-2" x1="8.8" y1="31.91" x2="8.8" y2="31.91"/><line class="cls-2" x1="15.87" y1="33.64" x2="15.87" y2="33.64"/><line class="cls-2" x1="7.59" y1="37.43" x2="7.59" y2="37.43"/><line class="cls-2" x1="10.69" y1="40.19" x2="10.69" y2="40.19"/><line class="cls-2" x1="4.14" y1="43.64" x2="4.14" y2="43.64"/><line class="cls-2" x1="1.55" y1="42.61" x2="1.55" y2="42.61"/><line class="cls-2" x1="6.21" y1="46.75" x2="6.21" y2="46.75"/><line class="cls-2" x1="9.31" y1="47.78" x2="9.31" y2="47.78"/><line class="cls-2" x1="15.01" y1="48.65" x2="15.01" y2="48.65"/><line class="cls-2" x1="15.87" y1="45.2" x2="15.87" y2="45.2"/><line class="cls-2" x1="15.35" y1="41.23" x2="15.35" y2="41.23"/><line class="cls-2" x1="16.73" y1="39.5" x2="16.73" y2="39.5"/><line class="cls-2" x1="18.11" y1="32.78" x2="18.11" y2="32.78"/><line class="cls-2" x1="17.77" y1="29.84" x2="17.77" y2="29.84"/><line class="cls-2" x1="22.25" y1="21.22" x2="22.25" y2="21.22"/><line class="cls-2" x1="23.63" y1="18.46" x2="23.63" y2="18.46"/><line class="cls-2" x1="30.19" y1="17.08" x2="30.19" y2="17.08"/><line class="cls-2" x1="29.67" y1="14.15" x2="29.67" y2="14.15"/><line class="cls-2" x1="19.15" y1="15.18" x2="19.15" y2="15.18"/><line class="cls-2" x1="35.88" y1="15.01" x2="35.88" y2="15.01"/><line class="cls-2" x1="29.84" y1="12.08" x2="29.84" y2="12.08"/><line class="cls-2" x1="34.85" y1="12.25" x2="34.85" y2="12.25"/><line class="cls-2" x1="41.06" y1="11.73" x2="41.06" y2="11.73"/><line class="cls-2" x1="40.19" y1="9.49" x2="40.19" y2="9.49"/><line class="cls-2" x1="41.06" y1="7.24" x2="41.06" y2="7.24"/><line class="cls-2" x1="40.54" y1="5" x2="40.54" y2="5"/><line class="cls-2" x1="41.4" y1="3.1" x2="41.4" y2="3.1"/><line class="cls-2" x1="46.58" y1="3.97" x2="46.58" y2="3.97"/><line class="cls-2" x1="43.82" y1="6.21" x2="43.82" y2="6.21"/><line class="cls-2" x1="41.57" y1="16.22" x2="41.57" y2="16.22"/><line class="cls-2" x1="38.3" y1="16.22" x2="38.3" y2="16.22"/><line class="cls-2" x1="38.3" y1="12.77" x2="38.3" y2="12.77"/><line class="cls-2" x1="44.85" y1="17.6" x2="44.85" y2="17.6"/><line class="cls-2" x1="41.06" y1="21.05" x2="41.06" y2="21.05"/><line class="cls-2" x1="36.4" y1="22.43" x2="36.4" y2="22.43"/><line class="cls-2" x1="32.78" y1="23.12" x2="32.78" y2="23.12"/><line class="cls-2" x1="30.53" y1="26.91" x2="30.53" y2="26.91"/><line class="cls-2" x1="23.46" y1="28.46" x2="23.46" y2="28.46"/><line class="cls-2" x1="27.63" y1="31.57" x2="27.63" y2="31.57"/><line class="cls-2" x1="31.57" y1="35.88" x2="31.57" y2="35.88"/><line class="cls-2" x1="32.09" y1="38.99" x2="32.09" y2="38.99"/><line class="cls-2" x1="28.98" y1="40.88" x2="28.98" y2="40.88"/><line class="cls-2" x1="27.6" y1="43.13" x2="27.6" y2="43.13"/><line class="cls-2" x1="24.84" y1="43.13" x2="24.84" y2="43.13"/><line class="cls-2" x1="25.19" y1="36.23" x2="25.19" y2="36.23"/><line class="cls-2" x1="20.87" y1="42.78" x2="20.87" y2="42.78"/><line class="cls-2" x1="21.74" y1="47.09" x2="21.74" y2="47.09"/><line class="cls-2" x1="25.88" y1="48.13" x2="25.88" y2="48.13"/><line class="cls-2" x1="43.47" y1="39.16" x2="43.47" y2="39.16"/><line class="cls-2" x1="41.4" y1="34.85" x2="41.4" y2="34.85"/><line class="cls-2" x1="37.61" y1="34.67" x2="37.61" y2="34.67"/><line class="cls-2" x1="37.78" y1="28.64" x2="37.78" y2="28.64"/><line class="cls-2" x1="43.13" y1="28.98" x2="43.13" y2="28.98"/><line class="cls-2" x1="47.78" y1="33.29" x2="47.78" y2="33.29"/><line class="cls-2" x1="47.96" y1="37.26" x2="47.96" y2="37.26"/><line class="cls-2" x1="43.82" y1="42.44" x2="43.82" y2="42.44"/><line class="cls-2" x1="48.47" y1="40.71" x2="48.47" y2="40.71"/><line class="cls-2" x1="44.68" y1="45.02" x2="44.68" y2="45.02"/><line class="cls-2" x1="45.37" y1="46.92" x2="45.37" y2="46.92"/><line class="cls-2" x1="43.13" y1="48.3" x2="43.13" y2="48.3"/><line class="cls-2" x1="36.4" y1="47.96" x2="36.4" y2="47.96"/><line class="cls-2" x1="30.88" y1="45.71" x2="30.88" y2="45.71"/><line class="cls-2" x1="19.67" y1="48.99" x2="19.67" y2="48.99"/><line class="cls-2" x1="1.38" y1="20.01" x2="1.38" y2="20.01"/><line class="cls-2" x1="9.14" y1="3.28" x2="9.14" y2="3.28"/><line class="cls-2" x1="48.47" y1="23.63" x2="48.47" y2="23.63"/><line class="cls-2" x1="49.16" y1="28.29" x2="49.16" y2="28.29"/><line class="cls-2" x1="2.07" y1="35.02" x2="2.07" y2="35.02"/><line class="cls-2" x1="47.61" y1="18.11" x2="47.61" y2="18.11"/><line class="cls-2" x1="46.58" y1="42.44" x2="46.58" y2="42.44"/><line class="cls-2" x1="0.35" y1="39.68" x2="0.35" y2="39.68"/><line class="cls-2" x1="1.9" y1="48.99" x2="1.9" y2="48.99"/><line class="cls-2" x1="49.05" y1="15.96" x2="49.05" y2="15.96"/><line class="cls-2" x1="0.86" y1="11.39" x2="0.86" y2="11.39"/><line class="cls-2" x1="12.42" y1="8.63" x2="12.42" y2="8.63"/><line class="cls-2" x1="20.18" y1="6.73" x2="20.18" y2="6.73"/><line class="cls-2" x1="18.46" y1="2.41" x2="18.46" y2="2.41"/><line class="cls-2" x1="27.77" y1="6.9" x2="27.77" y2="6.9"/><line class="cls-2" x1="31.91" y1="6.9" x2="31.91" y2="6.9"/><line class="cls-2" x1="32.6" y1="15.53" x2="32.6" y2="15.53"/><line class="cls-2" x1="37.78" y1="4.48" x2="37.78" y2="4.48"/><line class="cls-2" x1="44.16" y1="4.31" x2="44.16" y2="4.31"/><line class="cls-2" x1="43.3" y1="1.21" x2="43.3" y2="1.21"/><line class="cls-2" x1="47.96" y1="12.25" x2="47.96" y2="12.25"/><line class="cls-2" x1="5.52" y1="32.26" x2="5.52" y2="32.26"/><line class="cls-2" x1="3.45" y1="38.99" x2="3.45" y2="38.99"/><line class="cls-2" x1="2.24" y1="45.2" x2="2.24" y2="45.2"/><line class="cls-2" x1="12.25" y1="47.96" x2="12.25" y2="47.96"/><line class="cls-2" x1="14.49" y1="43.3" x2="14.49" y2="43.3"/><line class="cls-2" x1="14.49" y1="31.05" x2="14.49" y2="31.05"/><line class="cls-2" x1="19.67" y1="35.02" x2="19.67" y2="35.02"/><line class="cls-2" x1="25.19" y1="41.23" x2="25.19" y2="41.23"/><line class="cls-2" x1="23.63" y1="45.89" x2="23.63" y2="45.89"/><line class="cls-2" x1="28.81" y1="37.78" x2="28.81" y2="37.78"/><line class="cls-2" x1="36.05" y1="41.06" x2="36.05" y2="41.06"/><line class="cls-2" x1="34.16" y1="43.47" x2="34.16" y2="43.47"/><line class="cls-2" x1="37.95" y1="44.85" x2="37.95" y2="44.85"/><line class="cls-2" x1="17.42" y1="16.73" x2="17.42" y2="16.73"/><line class="cls-2" x1="24.32" y1="15.87" x2="24.32" y2="15.87"/><line class="cls-2" x1="29.33" y1="19.32" x2="29.33" y2="19.32"/><line class="cls-2" x1="35.88" y1="29.5" x2="35.88" y2="29.5"/><line class="cls-2" x1="46.23" y1="35.54" x2="46.23" y2="35.54"/><line class="cls-2" x1="32.6" y1="32.78" x2="32.6" y2="32.78"/><line class="cls-2" x1="25.53" y1="30.53" x2="25.53" y2="30.53"/><line class="cls-2" x1="11.73" y1="19.49" x2="11.73" y2="19.49"/><line class="cls-2" x1="7.76" y1="25.19" x2="7.76" y2="25.19"/><line class="cls-2" x1="45.54" y1="22.25" x2="45.54" y2="22.25"/><line class="cls-2" x1="5" y1="10.7" x2="5" y2="10.7"/><line class="cls-2" x1="5.86" y1="3.45" x2="5.86" y2="3.45"/><line class="cls-2" x1="2.41" y1="1.55" x2="2.41" y2="1.55"/><line class="cls-2" x1="45.89" y1="25.53" x2="45.89" y2="25.53"/><line class="cls-2" x1="30.36" y1="43.3" x2="30.36" y2="43.3"/><line class="cls-2" x1="17.77" y1="48.13" x2="17.77" y2="48.13"/><line class="cls-2" x1="15.18" y1="28.64" x2="15.18" y2="28.64"/><line class="cls-2" x1="28.64" y1="23.63" x2="28.64" y2="23.63"/><line class="cls-2" x1="45.71" y1="27.77" x2="45.71" y2="27.77"/><line class="cls-2" x1="36.74" y1="10.18" x2="36.74" y2="10.18"/><line class="cls-2" x1="26.22" y1="12.08" x2="26.22" y2="12.08"/><line class="cls-2" x1="8.97" y1="13.63" x2="8.97" y2="13.63"/><line class="cls-2" x1="34.16" y1="2.93" x2="34.16" y2="2.93"/><line class="cls-2" x1="40.71" y1="14.15" x2="40.71" y2="14.15"/><line class="cls-2" x1="46.58" y1="39.33" x2="46.58" y2="39.33"/><line class="cls-2" x1="3.62" y1="47.96" x2="3.62" y2="47.96"/><line class="cls-2" x1="1.9" y1="8.97" x2="1.9" y2="8.97"/><line class="cls-2" x1="11.73" y1="1.72" x2="11.73" y2="1.72"/><line class="cls-2" x1="29.33" y1="2.93" x2="29.33" y2="2.93"/><line class="cls-2" x1="1.9" y1="21.91" x2="1.9" y2="21.91"/><line class="cls-2" x1="5.18" y1="17.08" x2="5.18" y2="17.08"/><line class="cls-2" x1="2.24" y1="32.43" x2="2.24" y2="32.43"/><line class="cls-2" x1="8.48" y1="35.79" x2="8.48" y2="35.79"/><line class="cls-2" x1="6.9" y1="41.06" x2="6.9" y2="41.06"/><line class="cls-2" x1="9.31" y1="45.2" x2="9.31" y2="45.2"/><line class="cls-2" x1="15.18" y1="36.57" x2="15.18" y2="36.57"/><line class="cls-2" x1="23.46" y1="23.29" x2="23.46" y2="23.29"/><line class="cls-2" x1="17.94" y1="23.29" x2="17.94" y2="23.29"/><line class="cls-2" x1="25.7" y1="19.49" x2="25.7" y2="19.49"/><line class="cls-2" x1="42.26" y1="18.46" x2="42.26" y2="18.46"/><line class="cls-2" x1="40.54" y1="39.16" x2="40.54" y2="39.16"/><line class="cls-2" x1="40.54" y1="29.15" x2="40.54" y2="29.15"/><line class="cls-2" x1="38.47" y1="24.32" x2="38.47" y2="24.32"/><line class="cls-2" x1="47.78" y1="48.47" x2="47.78" y2="48.47"/><line class="cls-2" x1="41.92" y1="45.2" x2="41.92" y2="45.2"/><line class="cls-2" x1="30.71" y1="48.99" x2="30.71" y2="48.99"/><line class="cls-2" x1="16.91" y1="0.52" x2="16.91" y2="0.52"/><line class="cls-2" x1="19.49" y1="46.1" x2="19.49" y2="46.1"/><line class="cls-2" x1="23.98" y1="25.53" x2="23.98" y2="25.53"/><line class="cls-2" x1="27.26" y1="28.12" x2="27.26" y2="28.12"/><line class="cls-2" x1="40.71" y1="22.94" x2="40.71" y2="22.94"/><line class="cls-2" x1="5" y1="29.5" x2="5" y2="29.5"/><line class="cls-2" x1="7.07" y1="6.21" x2="7.07" y2="6.21"/><line class="cls-2" x1="31.91" y1="20.96" x2="31.91" y2="20.96"/><line class="cls-2" x1="11.21" y1="15.35" x2="11.21" y2="15.35"/><line class="cls-2" x1="16.73" y1="7.07" x2="16.73" y2="7.07"/><line class="cls-2" x1="4.66" y1="5.69" x2="4.66" y2="5.69"/><line class="cls-2" x1="4.48" y1="23.29" x2="4.48" y2="23.29"/><line class="cls-2" x1="15.18" y1="22.94" x2="15.18" y2="22.94"/><line class="cls-2" x1="20.53" y1="30.36" x2="20.53" y2="30.36"/><line class="cls-2" x1="43.64" y1="36.92" x2="43.64" y2="36.92"/><line class="cls-2" x1="14.84" y1="46.75" x2="14.84" y2="46.75"/><line class="cls-2" x1="34.33" y1="0.69" x2="34.33" y2="0.69"/><line class="cls-2" x1="49.16" y1="43.3" x2="49.16" y2="43.3"/><line class="cls-2" x1="48.65" y1="2.59" x2="48.65" y2="2.59"/><line class="cls-2" x1="49.34" y1="34.67" x2="49.34" y2="34.67"/><line class="cls-2" x1="48.65" y1="7.42" x2="48.65" y2="7.42"/><line class="cls-2" x1="48.99" y1="26.22" x2="48.99" y2="26.22"/><line class="cls-2" x1="27.43" y1="1.03" x2="27.43" y2="1.03"/><line class="cls-2" x1="14.49" y1="1.9" x2="14.49" y2="1.9"/><line class="cls-2" x1="21.91" y1="7.93" x2="21.91" y2="7.93"/><line class="cls-2" x1="46.92" y1="14.49" x2="46.92" y2="14.49"/><line class="cls-2" x1="29.47" y1="33.06" x2="29.47" y2="33.06"/><line class="cls-2" x1="21.39" y1="40.54" x2="21.39" y2="40.54"/><line class="cls-2" x1="37.95" y1="37.26" x2="37.95" y2="37.26"/><line class="cls-2" x1="8.62" y1="21.27" x2="8.62" y2="21.27"/><line class="cls-2" x1="6.61" y1="9.2" x2="6.61" y2="9.2"/><line class="cls-2" x1="14.95" y1="12.79" x2="14.95" y2="12.79"/><line class="cls-2" x1="23.63" y1="18.46" x2="23.63" y2="18.46"/><line class="cls-2" x1="34.85" y1="12.25" x2="34.85" y2="12.25"/><line class="cls-2" x1="41.4" y1="3.1" x2="41.4" y2="3.1"/><line class="cls-2" x1="31.19" y1="24.58" x2="31.19" y2="24.58"/><line class="cls-2" x1="49.16" y1="28.29" x2="49.16" y2="28.29"/><line class="cls-2" x1="7.33" y1="33.92" x2="7.33" y2="33.92"/><line class="cls-2" x1="9.31" y1="45.2" x2="9.31" y2="45.2"/><line class="cls-2" x1="30.71" y1="48.99" x2="30.71" y2="48.99"/><line class="cls-2" x1="40.71" y1="22.94" x2="40.71" y2="22.94"/><line class="cls-2" x1="17.25" y1="25.59" x2="17.25" y2="25.59"/><line class="cls-2" x1="49.16" y1="43.3" x2="49.16" y2="43.3"/></pattern></defs><title>VCBasic</title><rect class="cls-3" width="72" height="72"/><rect class="cls-4" width="72" height="72"/></svg>