<svg id="Layer_1" data-name="Layer 1" xmlns="http://www.w3.org/2000/svg" xmlns:xlink="http://www.w3.org/1999/xlink" viewBox="0 0 72 72"><defs><style>.cls-1,.cls-2{fill:none;}.cls-2{stroke:#231f20;stroke-width:0.3px;}.cls-3{fill:#39bb9d;}.cls-4{fill:url(#_623);}</style><pattern id="_623" data-name="623" width="53.58" height="53.58" patternTransform="translate(-5.72 -10.63)" patternUnits="userSpaceOnUse" viewBox="0 0 53.58 53.58"><rect class="cls-1" width="53.58" height="53.58"/><line class="cls-2" x1="3.78" y1="1.83" y2="1.83"/><line class="cls-2" x1="6.36" y1="1.83" x2="12.73" y2="1.83"/><line class="cls-2" x1="15.27" y1="1.83" x2="21.64" y2="1.83"/><line class="cls-2" x1="24.19" y1="1.83" x2="30.56" y2="1.83"/><line class="cls-2" x1="33.11" y1="1.83" x2="39.48" y2="1.83"/><line class="cls-2" x1="42.02" y1="1.83" x2="48.39" y2="1.83"/><line class="cls-2" x1="53.58" y1="1.83" x2="50.94" y2="1.83"/><line class="cls-2" x1="8.11" y1="4.96" x2="1.74" y2="4.96"/><line class="cls-2" x1="17.02" y1="4.96" x2="10.66" y2="4.96"/><line class="cls-2" x1="25.94" y1="4.96" x2="19.57" y2="4.96"/><line class="cls-2" x1="34.86" y1="4.96" x2="28.49" y2="4.96"/><line class="cls-2" x1="43.77" y1="4.96" x2="37.41" y2="4.96"/><line class="cls-2" x1="46.32" y1="4.96" x2="52.69" y2="4.96"/><line class="cls-2" x1="2.02" y1="7.94" y2="7.94"/><line class="cls-2" x1="4.6" y1="7.94" x2="5.94" y2="7.94"/><line class="cls-2" x1="10.97" y1="7.94" x2="5.94" y2="7.94"/><line class="cls-2" x1="13.52" y1="7.94" x2="19.89" y2="7.94"/><line class="cls-2" x1="23.79" y1="7.94" x2="22.44" y2="7.94"/><line class="cls-2" x1="23.79" y1="7.94" x2="28.81" y2="7.94"/><line class="cls-2" x1="31.35" y1="7.94" x2="37.72" y2="7.94"/><line class="cls-2" x1="41.56" y1="7.94" x2="46.64" y2="7.94"/><line class="cls-2" x1="41.56" y1="7.94" x2="40.27" y2="7.94"/><line class="cls-2" x1="49.19" y1="7.94" x2="53.58" y2="7.94"/><line class="cls-2" x1="7.31" y1="10.74" x2="0.94" y2="10.74"/><line class="cls-2" x1="16.23" y1="10.74" x2="9.86" y2="10.74"/><line class="cls-2" x1="25.14" y1="10.74" x2="18.78" y2="10.74"/><line class="cls-2" x1="34.06" y1="10.74" x2="27.69" y2="10.74"/><line class="cls-2" x1="42.98" y1="10.74" x2="36.61" y2="10.74"/><line class="cls-2" x1="51.89" y1="10.74" x2="45.53" y2="10.74"/><line class="cls-2" x1="1.71" y1="13.71" y2="13.71"/><line class="cls-2" x1="5.34" y1="13.71" x2="10.66" y2="13.71"/><line class="cls-2" x1="4.29" y1="13.71" x2="5.34" y2="13.71"/><line class="cls-2" x1="19.57" y1="13.71" x2="13.2" y2="13.71"/><line class="cls-2" x1="23.38" y1="13.71" x2="28.49" y2="13.71"/><line class="cls-2" x1="23.38" y1="13.71" x2="22.12" y2="13.71"/><line class="cls-2" x1="31.04" y1="13.71" x2="37.41" y2="13.71"/><line class="cls-2" x1="41.15" y1="13.71" x2="46.32" y2="13.71"/><line class="cls-2" x1="39.95" y1="13.71" x2="41.15" y2="13.71"/><line class="cls-2" x1="48.87" y1="13.71" x2="53.58" y2="13.71"/><line class="cls-2" x1="5.24" y1="16.71" y2="16.71"/><line class="cls-2" x1="14.16" y1="16.71" x2="7.79" y2="16.71"/><line class="cls-2" x1="16.71" y1="16.71" x2="23.08" y2="16.71"/><line class="cls-2" x1="31.99" y1="16.71" x2="25.62" y2="16.71"/><line class="cls-2" x1="34.54" y1="16.71" x2="40.91" y2="16.71"/><line class="cls-2" x1="43.46" y1="16.71" x2="49.83" y2="16.71"/><line class="cls-2" x1="52.37" y1="16.71" x2="53.58" y2="16.71"/><line class="cls-2" x1="2.18" y1="19.6" y2="19.6"/><line class="cls-2" x1="11.13" y1="19.6" x2="4.76" y2="19.6"/><line class="cls-2" x1="13.68" y1="19.6" x2="14.81" y2="19.6"/><line class="cls-2" x1="20.05" y1="19.6" x2="14.81" y2="19.6"/><line class="cls-2" x1="28.97" y1="19.6" x2="22.6" y2="19.6"/><line class="cls-2" x1="37.88" y1="19.6" x2="32.77" y2="19.6"/><line class="cls-2" x1="32.77" y1="19.6" x2="31.51" y2="19.6"/><line class="cls-2" x1="46.8" y1="19.6" x2="40.43" y2="19.6"/><line class="cls-2" x1="49.35" y1="19.6" x2="50.54" y2="19.6"/><line class="cls-2" x1="50.54" y1="19.6" x2="53.58" y2="19.6"/><line class="cls-2" x1="6.67" y1="22.79" x2="0.31" y2="22.79"/><line class="cls-2" x1="15.59" y1="22.79" x2="9.22" y2="22.79"/><line class="cls-2" x1="24.51" y1="22.79" x2="18.14" y2="22.79"/><line class="cls-2" x1="27.06" y1="22.79" x2="33.42" y2="22.79"/><line class="cls-2" x1="35.97" y1="22.79" x2="42.34" y2="22.79"/><line class="cls-2" x1="44.89" y1="22.79" x2="51.26" y2="22.79"/><line class="cls-2" x1="3.46" y1="25.76" y2="25.76"/><line class="cls-2" x1="12.41" y1="25.76" x2="6.04" y2="25.76"/><line class="cls-2" x1="21.32" y1="25.76" x2="15.98" y2="25.76"/><line class="cls-2" x1="14.95" y1="25.76" x2="15.98" y2="25.76"/><line class="cls-2" x1="23.87" y1="25.76" x2="30.24" y2="25.76"/><line class="cls-2" x1="34" y1="25.76" x2="39.16" y2="25.76"/><line class="cls-2" x1="34" y1="25.76" x2="32.79" y2="25.76"/><line class="cls-2" x1="41.7" y1="25.76" x2="48.07" y2="25.76"/><line class="cls-2" x1="51.94" y1="25.76" x2="53.58" y2="25.76"/><line class="cls-2" x1="50.62" y1="25.76" x2="51.94" y2="25.76"/><line class="cls-2" x1="1.58" y1="28.9" x2="7.95" y2="28.9"/><line class="cls-2" x1="16.87" y1="28.9" x2="10.5" y2="28.9"/><line class="cls-2" x1="25.78" y1="28.9" x2="19.41" y2="28.9"/><line class="cls-2" x1="34.7" y1="28.9" x2="28.33" y2="28.9"/><line class="cls-2" x1="43.62" y1="28.9" x2="37.25" y2="28.9"/><line class="cls-2" x1="46.16" y1="28.9" x2="52.53" y2="28.9"/><line class="cls-2" x1="2.98" y1="31.7" y2="31.7"/><line class="cls-2" x1="11.93" y1="31.7" x2="5.56" y2="31.7"/><line class="cls-2" x1="14.48" y1="31.7" x2="20.85" y2="31.7"/><line class="cls-2" x1="23.39" y1="31.7" x2="29.76" y2="31.7"/><line class="cls-2" x1="32.31" y1="31.7" x2="38.68" y2="31.7"/><line class="cls-2" x1="41.23" y1="31.7" x2="47.6" y2="31.7"/><line class="cls-2" x1="50.14" y1="31.7" x2="53.58" y2="31.7"/><line class="cls-2" x1="6.83" y1="34.84" x2="0.46" y2="34.84"/><line class="cls-2" x1="15.75" y1="34.84" x2="9.38" y2="34.84"/><line class="cls-2" x1="24.67" y1="34.84" x2="18.3" y2="34.84"/><line class="cls-2" x1="27.21" y1="34.84" x2="33.58" y2="34.84"/><line class="cls-2" x1="42.5" y1="34.84" x2="36.13" y2="34.84"/><line class="cls-2" x1="45.05" y1="34.84" x2="51.42" y2="34.84"/><line class="cls-2" y1="37.81" x2="2.18" y2="37.81"/><line class="cls-2" x1="4.76" y1="37.81" x2="11.13" y2="37.81"/><line class="cls-2" x1="20.05" y1="37.81" x2="13.68" y2="37.81"/><line class="cls-2" x1="22.6" y1="37.81" x2="28.97" y2="37.81"/><line class="cls-2" x1="31.51" y1="37.81" x2="37.88" y2="37.81"/><line class="cls-2" x1="40.43" y1="37.81" x2="46.8" y2="37.81"/><line class="cls-2" x1="49.35" y1="37.81" x2="53.58" y2="37.81"/><line class="cls-2" x1="1.34" y1="40.78" y2="40.78"/><line class="cls-2" x1="6.04" y1="40.78" x2="1.34" y2="40.78"/><line class="cls-2" x1="14.95" y1="40.78" x2="8.59" y2="40.78"/><line class="cls-2" x1="23.87" y1="40.78" x2="18.73" y2="40.78"/><line class="cls-2" x1="18.73" y1="40.78" x2="17.5" y2="40.78"/><line class="cls-2" x1="32.79" y1="40.78" x2="26.42" y2="40.78"/><line class="cls-2" x1="36.55" y1="40.78" x2="41.7" y2="40.78"/><line class="cls-2" x1="36.55" y1="40.78" x2="35.34" y2="40.78"/><line class="cls-2" x1="44.25" y1="40.78" x2="50.62" y2="40.78"/><line class="cls-2" x1="53.58" y1="40.78" x2="53.17" y2="40.78"/><line class="cls-2" x1="3.14" y1="43.58" y2="43.58"/><line class="cls-2" x1="12.09" y1="43.58" x2="5.72" y2="43.58"/><line class="cls-2" x1="14.64" y1="43.58" x2="21" y2="43.58"/><line class="cls-2" x1="23.55" y1="43.58" x2="29.92" y2="43.58"/><line class="cls-2" x1="32.47" y1="43.58" x2="38.84" y2="43.58"/><line class="cls-2" x1="41.39" y1="43.58" x2="47.75" y2="43.58"/><line class="cls-2" x1="50.3" y1="43.58" x2="53.58" y2="43.58"/><line class="cls-2" x1="8.27" y1="46.71" x2="1.9" y2="46.71"/><line class="cls-2" x1="17.18" y1="46.71" x2="10.81" y2="46.71"/><line class="cls-2" x1="26.1" y1="46.71" x2="19.73" y2="46.71"/><line class="cls-2" x1="35.02" y1="46.71" x2="28.65" y2="46.71"/><line class="cls-2" x1="43.93" y1="46.71" x2="37.56" y2="46.71"/><line class="cls-2" x1="46.48" y1="46.71" x2="52.85" y2="46.71"/><line class="cls-2" y1="49.68" x2="4.73" y2="49.68"/><line class="cls-2" x1="7.31" y1="49.68" x2="13.68" y2="49.68"/><line class="cls-2" x1="16.23" y1="49.68" x2="22.6" y2="49.68"/><line class="cls-2" x1="25.14" y1="49.68" x2="31.51" y2="49.68"/><line class="cls-2" x1="34.06" y1="49.68" x2="40.43" y2="49.68"/><line class="cls-2" x1="42.98" y1="49.68" x2="49.35" y2="49.68"/><line class="cls-2" x1="51.89" y1="49.68" x2="53.58" y2="49.68"/><line class="cls-2" x1="8.59" y1="52.65" x2="2.22" y2="52.65"/><line class="cls-2" x1="17.5" y1="52.65" x2="11.13" y2="52.65"/><line class="cls-2" x1="26.42" y1="52.65" x2="20.05" y2="52.65"/><line class="cls-2" x1="35.34" y1="52.65" x2="28.97" y2="52.65"/><line class="cls-2" x1="44.25" y1="52.65" x2="37.88" y2="52.65"/><line class="cls-2" x1="53.17" y1="52.65" x2="46.8" y2="52.65"/><line class="cls-2" x1="7.67" y1="1.77" x2="7.67" y2="0.08"/><line class="cls-2" x1="25.6" y1="1.77" x2="25.61" y2="0.08"/><line class="cls-2" x1="43.63" y1="1.77" x2="43.63" y2="0.08"/><line class="cls-2" x1="47.8" y1="3.26" x2="47.79" y2="4.96"/><line class="cls-2" x1="29.99" y1="3.26" x2="29.98" y2="4.96"/><line class="cls-2" x1="11.84" y1="3.26" x2="11.83" y2="4.96"/><line class="cls-2" x1="5.94" y1="7.98" x2="5.94" y2="7.94"/><line class="cls-2" x1="5.94" y1="7.94" x2="5.95" y2="6.28"/><line class="cls-2" x1="23.79" y1="7.98" x2="23.79" y2="7.94"/><line class="cls-2" x1="23.79" y1="7.94" x2="23.8" y2="6.28"/><line class="cls-2" x1="41.56" y1="7.94" x2="41.57" y2="6.28"/><line class="cls-2" x1="41.56" y1="7.98" x2="41.56" y2="7.94"/><line class="cls-2" x1="37.92" y1="10.69" x2="37.92" y2="8.99"/><line class="cls-2" x1="20.17" y1="10.69" x2="20.17" y2="8.99"/><line class="cls-2" x1="2.21" y1="10.69" x2="2.22" y2="8.99"/><line class="cls-2" x1="41.15" y1="13.71" x2="41.15" y2="13.73"/><line class="cls-2" x1="41.15" y1="13.71" x2="41.15" y2="12.03"/><line class="cls-2" x1="23.38" y1="13.71" x2="23.38" y2="12.03"/><line class="cls-2" x1="23.38" y1="13.73" x2="23.38" y2="13.71"/><line class="cls-2" x1="5.34" y1="13.73" x2="5.34" y2="13.71"/><line class="cls-2" x1="5.34" y1="13.71" x2="5.34" y2="12.03"/><line class="cls-2" x1="44.7" y1="14.99" x2="44.69" y2="16.69"/><line class="cls-2" x1="26.95" y1="14.99" x2="26.94" y2="16.69"/><line class="cls-2" x1="9.04" y1="16.69" x2="9.05" y2="14.99"/><line class="cls-2" x1="32.78" y1="17.93" x2="32.77" y2="19.6"/><line class="cls-2" x1="32.77" y1="19.6" x2="32.77" y2="19.63"/><line class="cls-2" x1="50.54" y1="19.6" x2="50.54" y2="19.63"/><line class="cls-2" x1="50.54" y1="19.6" x2="50.55" y2="17.93"/><line class="cls-2" x1="14.82" y1="17.93" x2="14.81" y2="19.6"/><line class="cls-2" x1="14.81" y1="19.63" x2="14.81" y2="19.6"/><line class="cls-2" x1="46.01" y1="21.05" x2="46" y2="22.75"/><line class="cls-2" x1="28.3" y1="21.05" x2="28.29" y2="22.75"/><line class="cls-2" x1="10.48" y1="22.75" x2="10.49" y2="21.05"/><line class="cls-2" x1="15.98" y1="25.77" x2="15.98" y2="25.76"/><line class="cls-2" x1="15.99" y1="24.08" x2="15.98" y2="25.76"/><line class="cls-2" x1="34" y1="25.76" x2="34" y2="25.77"/><line class="cls-2" x1="34" y1="25.76" x2="34.01" y2="24.08"/><line class="cls-2" x1="51.94" y1="25.76" x2="51.95" y2="24.08"/><line class="cls-2" x1="51.94" y1="25.76" x2="51.94" y2="25.77"/><line class="cls-2" x1="38.56" y1="28.88" x2="38.57" y2="27.18"/><line class="cls-2" x1="20.75" y1="28.88" x2="20.76" y2="27.18"/><line class="cls-2" x1="2.9" y1="28.88" x2="2.91" y2="27.18"/><line class="cls-2" x1="6.93" y1="30" x2="6.92" y2="31.7"/><line class="cls-2" x1="24.8" y1="31.7" x2="24.8" y2="30"/><line class="cls-2" x1="42.43" y1="30" x2="42.42" y2="31.7"/><line class="cls-2" x1="37.43" y1="33.11" x2="37.42" y2="34.8"/><line class="cls-2" x1="19.53" y1="34.8" x2="19.53" y2="33.11"/><line class="cls-2" x1="1.69" y1="34.8" x2="1.7" y2="33.11"/><line class="cls-2" x1="6.21" y1="37.68" x2="6.22" y2="35.98"/><line class="cls-2" x1="24.07" y1="37.68" x2="24.08" y2="35.98"/><line class="cls-2" x1="41.76" y1="35.98" x2="41.75" y2="37.68"/><line class="cls-2" x1="36.55" y1="40.78" x2="36.55" y2="39.09"/><line class="cls-2" x1="36.55" y1="40.78" x2="36.55" y2="40.78"/><line class="cls-2" x1="18.74" y1="39.09" x2="18.73" y2="40.78"/><line class="cls-2" x1="18.73" y1="40.78" x2="18.73" y2="40.78"/><line class="cls-2" x1="1.34" y1="40.78" x2="1.34" y2="40.78"/><line class="cls-2" x1="1.34" y1="40.78" x2="1.35" y2="39.09"/><line class="cls-2" x1="42.73" y1="43.49" x2="42.74" y2="41.79"/><line class="cls-2" x1="24.87" y1="41.79" x2="24.86" y2="43.49"/><line class="cls-2" x1="6.88" y1="43.49" x2="6.89" y2="41.79"/><line class="cls-2" x1="12.09" y1="46.67" x2="12.1" y2="44.97"/><line class="cls-2" x1="29.97" y1="44.97" x2="29.96" y2="46.67"/><line class="cls-2" x1="44.28" y1="49.67" x2="44.28" y2="47.97"/><line class="cls-2" x1="39.18" y1="52.64" x2="39.18" y2="50.95"/><line class="cls-2" x1="21.3" y1="52.64" x2="21.31" y2="50.95"/><line class="cls-2" x1="3.36" y1="52.64" x2="3.37" y2="50.95"/><line class="cls-2" x1="26.55" y1="47.97" x2="26.55" y2="49.67"/><line class="cls-2" x1="8.49" y1="47.97" x2="8.48" y2="49.67"/><line class="cls-2" x1="48.14" y1="44.97" x2="48.13" y2="46.67"/></pattern></defs><title>LiMudBasic</title><rect class="cls-3" width="72" height="72"/><rect class="cls-4" width="72" height="72"/></svg>