<svg id="Layer_1" data-name="Layer 1" xmlns="http://www.w3.org/2000/svg" xmlns:xlink="http://www.w3.org/1999/xlink" viewBox="0 0 72 72"><defs><style>.cls-1,.cls-2{fill:none;}.cls-2{stroke:#000;stroke-width:0.3px;}.cls-3{fill:#00bfda;}.cls-4{fill:url(#_627);}</style><pattern id="_627" data-name="627" width="54.13" height="54.13" patternTransform="translate(-5.72 -10.63)" patternUnits="userSpaceOnUse" viewBox="0 0 54.13 54.13"><rect class="cls-1" width="54.13" height="54.13"/><line class="cls-2" y1="3.75" x2="54.13" y2="3.75"/><line class="cls-2" y1="7.93" x2="54.13" y2="7.93"/><line class="cls-2" y1="12.11" x2="54.13" y2="12.11"/><line class="cls-2" y1="41.73" x2="54.19" y2="41.73"/><line class="cls-2" y1="45.5" x2="54.13" y2="45.5"/><line class="cls-2" y1="16.13" x2="54.13" y2="16.13"/><line class="cls-2" y1="19.41" x2="54.13" y2="19.41"/><line class="cls-2" y1="22.84" x2="54.13" y2="22.84"/><line class="cls-2" y1="26.89" x2="54.13" y2="26.89"/><line class="cls-2" y1="30.69" x2="54.13" y2="30.69"/><line class="cls-2" y1="34.89" x2="54.19" y2="34.89"/><line class="cls-2" y1="38.11" x2="54.13" y2="38.11"/><line class="cls-2" y1="53.29" x2="54.13" y2="53.29"/><line class="cls-2" x1="5.92" x2="5.92" y2="3.75"/><line class="cls-2" x1="18.67" x2="18.67" y2="3.75"/><line class="cls-2" x1="32.17" x2="32.17" y2="3.75"/><line class="cls-2" x1="46.55" x2="46.55" y2="3.75"/><line class="cls-2" x1="5.92" y1="53.28" x2="5.92" y2="54.13"/><line class="cls-2" x1="18.67" y1="53.28" x2="18.67" y2="54.13"/><line class="cls-2" x1="32.17" y1="53.28" x2="32.17" y2="54.13"/><line class="cls-2" x1="46.55" y1="53.28" x2="46.55" y2="54.13"/><line class="cls-2" x1="12.6" y1="3.69" x2="12.6" y2="7.91"/><line class="cls-2" x1="27.47" y1="3.69" x2="27.47" y2="7.91"/><line class="cls-2" x1="41.1" y1="3.69" x2="41.1" y2="7.91"/><line class="cls-2" x1="53.92" y1="3.69" x2="53.92" y2="7.91"/><line class="cls-2" x1="7.04" y1="8.05" x2="7.04" y2="12.1"/><line class="cls-2" x1="20.29" y1="8.05" x2="20.29" y2="12.1"/><line class="cls-2" x1="33.85" y1="8.05" x2="33.85" y2="12.1"/><line class="cls-2" x1="48.79" y1="8.05" x2="48.79" y2="12.1"/><line class="cls-2" x1="40.16" y1="12.1" x2="40.16" y2="16.1"/><line class="cls-2" x1="26.79" y1="12.1" x2="26.79" y2="16.1"/><line class="cls-2" x1="11.91" y1="12.1" x2="11.91" y2="16.1"/><line class="cls-2" x1="53.41" y1="12.1" x2="53.41" y2="16.1"/><line class="cls-2" x1="46.55" y1="16.1" x2="46.55" y2="19.4"/><line class="cls-2" x1="31.92" y1="16.1" x2="31.92" y2="19.4"/><line class="cls-2" x1="18.67" y1="16.1" x2="18.67" y2="19.4"/><line class="cls-2" x1="5.92" y1="16.1" x2="5.92" y2="19.4"/><line class="cls-2" x1="12.47" y1="19.4" x2="12.47" y2="22.83"/><line class="cls-2" x1="27.47" y1="19.4" x2="27.47" y2="22.83"/><line class="cls-2" x1="41.22" y1="19.4" x2="41.22" y2="22.83"/><line class="cls-2" x1="53.97" y1="19.4" x2="53.97" y2="22.83"/><line class="cls-2" x1="6.66" y1="22.83" x2="6.66" y2="26.88"/><line class="cls-2" x1="20.16" y1="22.83" x2="20.16" y2="26.88"/><line class="cls-2" x1="33.79" y1="22.83" x2="33.79" y2="26.88"/><line class="cls-2" x1="48.66" y1="22.83" x2="48.66" y2="26.88"/><line class="cls-2" x1="40.04" y1="26.94" x2="40.04" y2="30.68"/><line class="cls-2" x1="26.71" y1="26.94" x2="26.71" y2="30.68"/><line class="cls-2" x1="11.71" y1="26.94" x2="11.71" y2="30.68"/><line class="cls-2" x1="53.27" y1="26.94" x2="53.27" y2="30.68"/><line class="cls-2" x1="5.53" y1="30.74" x2="5.53" y2="34.88"/><line class="cls-2" x1="18.53" y1="30.74" x2="18.53" y2="34.88"/><line class="cls-2" x1="32.15" y1="30.74" x2="32.15" y2="34.88"/><line class="cls-2" x1="46.4" y1="30.74" x2="46.4" y2="34.88"/><line class="cls-2" x1="42.2" y1="34.94" x2="42.2" y2="38.1"/><line class="cls-2" x1="28.05" y1="34.94" x2="28.05" y2="38.1"/><line class="cls-2" x1="12.92" y1="34.94" x2="12.92" y2="38.1"/><line class="cls-2" x1="0.51" y1="34.94" x2="0.51" y2="38.1"/><line class="cls-2" x1="6.88" y1="38.16" x2="6.88" y2="41.73"/><line class="cls-2" x1="20.13" y1="38.16" x2="20.13" y2="41.73"/><line class="cls-2" x1="33.76" y1="38.16" x2="33.76" y2="41.73"/><line class="cls-2" x1="48.63" y1="38.16" x2="48.63" y2="41.73"/><line class="cls-2" x1="40.28" y1="41.78" x2="40.28" y2="45.54"/><line class="cls-2" x1="26.41" y1="41.78" x2="26.41" y2="45.54"/><line class="cls-2" x1="11.86" y1="41.78" x2="11.86" y2="45.54"/><line class="cls-2" x1="53.73" y1="41.78" x2="53.73" y2="45.54"/><line class="cls-2" y1="49.91" x2="54.13" y2="49.91"/><line class="cls-2" x1="10.3" y1="49.89" x2="10.3" y2="53.35"/><line class="cls-2" x1="24.73" y1="49.89" x2="24.73" y2="53.35"/><line class="cls-2" x1="38.36" y1="49.89" x2="38.36" y2="53.35"/><line class="cls-2" x1="51.73" y1="49.89" x2="51.73" y2="53.35"/><line class="cls-2" x1="4.57" y1="45.54" x2="4.57" y2="49.89"/><line class="cls-2" x1="17.57" y1="45.54" x2="17.57" y2="49.89"/><line class="cls-2" x1="31.57" y1="45.54" x2="31.57" y2="49.89"/><line class="cls-2" x1="46.13" y1="45.54" x2="46.13" y2="49.89"/></pattern></defs><title>LiPaBasic</title><rect class="cls-3" width="72" height="72"/><rect class="cls-4" width="72" height="72"/></svg>