<svg id="Layer_1" data-name="Layer 1" xmlns="http://www.w3.org/2000/svg" xmlns:xlink="http://www.w3.org/1999/xlink" viewBox="0 0 72 72"><defs><style>.cls-1,.cls-2,.cls-3{fill:none;}.cls-2,.cls-3{stroke:#000;}.cls-2{stroke-linecap:round;stroke-width:0.7px;}.cls-3{stroke-width:0.3px;}.cls-4{fill:#27bdbe;}.cls-5{fill:url(#_637);}</style><pattern id="_637" data-name="637" width="54.24" height="54.13" patternTransform="translate(-5.72 -10.63)" patternUnits="userSpaceOnUse" viewBox="0 0 54.24 54.13"><rect class="cls-1" width="54.24" height="54.13"/><line class="cls-2" x1="25.4" y1="1.69" x2="25.4" y2="1.69"/><line class="cls-2" x1="22.28" y1="1.69" x2="22.28" y2="1.69"/><line class="cls-2" x1="28.15" y1="1.69" x2="28.15" y2="1.69"/><line class="cls-2" x1="1.95" y1="1.69" x2="1.95" y2="1.69"/><line class="cls-2" x1="53.45" y1="1.69" x2="53.45" y2="1.69"/><line class="cls-2" x1="51.11" y1="1.69" x2="51.11" y2="1.69"/><line class="cls-2" x1="34.45" y1="5.95" x2="34.45" y2="5.95"/><line class="cls-2" x1="6.11" y1="5.95" x2="6.11" y2="5.95"/><line class="cls-2" x1="9.05" y1="5.95" x2="9.05" y2="5.95"/><line class="cls-2" x1="13.78" y1="9.97" x2="13.78" y2="9.97"/><line class="cls-2" x1="16.78" y1="9.97" x2="16.78" y2="9.97"/><line class="cls-2" x1="10.61" y1="9.97" x2="10.61" y2="9.97"/><line class="cls-2" x1="34.61" y1="21.07" x2="34.61" y2="21.07"/><line class="cls-2" x1="37.61" y1="21.07" x2="37.61" y2="21.07"/><line class="cls-2" x1="31.45" y1="21.07" x2="31.45" y2="21.07"/><line class="cls-2" x1="6.11" y1="21.07" x2="6.11" y2="21.07"/><line class="cls-2" x1="9.11" y1="21.07" x2="9.11" y2="21.07"/><line class="cls-2" x1="2.95" y1="21.07" x2="2.95" y2="21.07"/><line class="cls-2" x1="13.61" y1="24.87" x2="13.61" y2="24.87"/><line class="cls-2" x1="16.61" y1="24.87" x2="16.61" y2="24.87"/><line class="cls-2" x1="10.45" y1="24.87" x2="10.45" y2="24.87"/><line class="cls-2" x1="41.45" y1="24.87" x2="41.45" y2="24.87"/><line class="cls-2" x1="44.45" y1="24.87" x2="44.45" y2="24.87"/><line class="cls-2" x1="38.28" y1="24.87" x2="38.28" y2="24.87"/><line class="cls-2" x1="33.61" y1="28.87" x2="33.61" y2="28.87"/><line class="cls-2" x1="36.61" y1="28.87" x2="36.61" y2="28.87"/><line class="cls-2" x1="30.45" y1="28.87" x2="30.45" y2="28.87"/><line class="cls-2" x1="5.45" y1="28.87" x2="5.45" y2="28.87"/><line class="cls-2" x1="8.45" y1="28.87" x2="8.45" y2="28.87"/><line class="cls-2" x1="2.28" y1="28.87" x2="2.28" y2="28.87"/><line class="cls-2" x1="25.61" y1="32.87" x2="25.61" y2="32.87"/><line class="cls-2" x1="28.61" y1="32.87" x2="28.61" y2="32.87"/><line class="cls-2" x1="22.45" y1="32.87" x2="22.45" y2="32.87"/><line class="cls-2" x1="20.95" y1="36.54" x2="20.95" y2="36.54"/><line class="cls-2" x1="23.95" y1="36.54" x2="23.95" y2="36.54"/><line class="cls-2" x1="17.78" y1="36.54" x2="17.78" y2="36.54"/><line class="cls-2" x1="48.78" y1="36.54" x2="48.78" y2="36.54"/><line class="cls-2" x1="51.78" y1="36.54" x2="51.78" y2="36.54"/><line class="cls-2" x1="45.61" y1="36.54" x2="45.61" y2="36.54"/><line class="cls-2" x1="41.61" y1="40.04" x2="41.61" y2="40.04"/><line class="cls-2" x1="44.61" y1="40.04" x2="44.61" y2="40.04"/><line class="cls-2" x1="38.45" y1="40.04" x2="38.45" y2="40.04"/><line class="cls-2" x1="13.95" y1="40.04" x2="13.95" y2="40.04"/><line class="cls-2" x1="16.95" y1="40.04" x2="16.95" y2="40.04"/><line class="cls-2" x1="10.78" y1="40.04" x2="10.78" y2="40.04"/><line class="cls-2" x1="5.78" y1="43.7" x2="5.78" y2="43.7"/><line class="cls-2" x1="8.78" y1="43.7" x2="8.78" y2="43.7"/><line class="cls-2" x1="2.61" y1="43.7" x2="2.61" y2="43.7"/><line class="cls-2" x1="33.61" y1="43.7" x2="33.61" y2="43.7"/><line class="cls-2" x1="36.61" y1="43.7" x2="36.61" y2="43.7"/><line class="cls-2" x1="30.45" y1="43.7" x2="30.45" y2="43.7"/><line class="cls-2" x1="25.11" y1="47.8" x2="25.11" y2="47.8"/><line class="cls-2" x1="28.11" y1="47.8" x2="28.11" y2="47.8"/><line class="cls-2" x1="21.95" y1="47.8" x2="21.95" y2="47.8"/><line class="cls-2" x1="18.11" y1="51.59" x2="18.11" y2="51.59"/><line class="cls-2" x1="21.11" y1="51.59" x2="21.11" y2="51.59"/><line class="cls-2" x1="14.95" y1="51.59" x2="14.95" y2="51.59"/><line class="cls-2" x1="45.15" y1="51.64" x2="45.15" y2="51.64"/><line class="cls-2" x1="48.15" y1="51.64" x2="48.15" y2="51.64"/><line class="cls-2" x1="41.98" y1="51.64" x2="41.98" y2="51.64"/><line class="cls-2" x1="53.11" y1="47.8" x2="53.11" y2="47.8"/><line class="cls-2" x1="1.78" y1="47.8" x2="1.78" y2="47.8"/><line class="cls-2" x1="49.95" y1="47.8" x2="49.95" y2="47.8"/><line class="cls-2" x1="53.11" y1="32.87" x2="53.11" y2="32.87"/><line class="cls-2" x1="49.95" y1="32.87" x2="49.95" y2="32.87"/><line class="cls-2" x1="2.45" y1="32.87" x2="2.45" y2="32.87"/><line class="cls-2" x1="41.45" y1="9.97" x2="41.45" y2="9.97"/><line class="cls-2" x1="44.61" y1="9.97" x2="44.61" y2="9.97"/><line class="cls-2" x1="37.78" y1="9.97" x2="37.78" y2="9.97"/><line class="cls-2" x1="46.95" y1="14.12" x2="46.95" y2="14.12"/><line class="cls-2" x1="49.78" y1="14.12" x2="49.78" y2="14.12"/><line class="cls-2" x1="43.61" y1="14.12" x2="43.61" y2="14.12"/><line class="cls-2" x1="19.95" y1="14.12" x2="19.95" y2="14.12"/><line class="cls-2" x1="22.78" y1="14.12" x2="22.78" y2="14.12"/><line class="cls-2" x1="16.61" y1="14.12" x2="16.61" y2="14.12"/><line class="cls-2" x1="25.45" y1="17.87" x2="25.45" y2="17.87"/><line class="cls-2" x1="28.28" y1="17.87" x2="28.28" y2="17.87"/><line class="cls-2" x1="22.11" y1="17.87" x2="22.11" y2="17.87"/><line class="cls-2" x1="53.28" y1="17.87" x2="53.28" y2="17.87"/><line class="cls-2" x1="2.01" y1="17.87" x2="2.01" y2="17.87"/><line class="cls-2" x1="49.95" y1="17.87" x2="49.95" y2="17.87"/><line class="cls-2" x1="2.95" y1="5.95" x2="2.95" y2="5.95"/><line class="cls-2" x1="37.28" y1="5.95" x2="37.28" y2="5.95"/><line class="cls-2" x1="31.28" y1="5.95" x2="31.28" y2="5.95"/><line class="cls-3" x1="0.05" y1="3.75" x2="54.18" y2="3.75"/><line class="cls-3" x1="0.05" y1="7.93" x2="54.18" y2="7.93"/><line class="cls-3" x1="0.05" y1="12.11" x2="54.18" y2="12.11"/><line class="cls-3" x1="0.05" y1="41.73" x2="54.24" y2="41.73"/><line class="cls-3" x1="0.05" y1="45.5" x2="54.18" y2="45.5"/><line class="cls-3" x1="0.05" y1="16.13" x2="54.18" y2="16.13"/><line class="cls-3" x1="0.05" y1="19.41" x2="54.18" y2="19.41"/><line class="cls-3" x1="0.05" y1="22.84" x2="54.18" y2="22.84"/><line class="cls-3" x1="0.05" y1="26.89" x2="54.18" y2="26.89"/><line class="cls-3" x1="0.05" y1="30.69" x2="54.18" y2="30.69"/><line class="cls-3" x1="0.05" y1="34.89" x2="54.24" y2="34.89"/><line class="cls-3" x1="0.05" y1="38.11" x2="54.18" y2="38.11"/><line class="cls-3" x1="0.05" y1="53.29" x2="54.18" y2="53.29"/><line class="cls-3" x1="5.98" x2="5.98" y2="3.75"/><line class="cls-3" x1="18.73" x2="18.73" y2="3.75"/><line class="cls-3" x1="32.23" x2="32.23" y2="3.75"/><line class="cls-3" x1="46.6" x2="46.6" y2="3.75"/><line class="cls-3" x1="5.98" y1="53.28" x2="5.98" y2="54.13"/><line class="cls-3" x1="18.73" y1="53.28" x2="18.73" y2="54.13"/><line class="cls-3" x1="32.23" y1="53.28" x2="32.23" y2="54.13"/><line class="cls-3" x1="46.6" y1="53.28" x2="46.6" y2="54.13"/><line class="cls-3" x1="12.65" y1="3.69" x2="12.65" y2="7.91"/><line class="cls-3" x1="27.53" y1="3.69" x2="27.53" y2="7.91"/><line class="cls-3" x1="41.15" y1="3.69" x2="41.15" y2="7.91"/><line class="cls-3" x1="53.98" y1="3.69" x2="53.98" y2="7.91"/><line class="cls-3" x1="7.09" y1="8.05" x2="7.09" y2="12.1"/><line class="cls-3" x1="20.34" y1="8.05" x2="20.34" y2="12.1"/><line class="cls-3" x1="33.9" y1="8.05" x2="33.9" y2="12.1"/><line class="cls-3" x1="48.84" y1="8.05" x2="48.84" y2="12.1"/><line class="cls-3" x1="40.22" y1="12.1" x2="40.22" y2="16.1"/><line class="cls-3" x1="26.84" y1="12.1" x2="26.84" y2="16.1"/><line class="cls-3" x1="11.97" y1="12.1" x2="11.97" y2="16.1"/><line class="cls-3" x1="53.47" y1="12.1" x2="53.47" y2="16.1"/><line class="cls-3" x1="46.6" y1="16.1" x2="46.6" y2="19.4"/><line class="cls-3" x1="31.98" y1="16.1" x2="31.98" y2="19.4"/><line class="cls-3" x1="18.73" y1="16.1" x2="18.73" y2="19.4"/><line class="cls-3" x1="5.98" y1="16.1" x2="5.98" y2="19.4"/><line class="cls-3" x1="12.53" y1="19.4" x2="12.53" y2="22.83"/><line class="cls-3" x1="27.53" y1="19.4" x2="27.53" y2="22.83"/><line class="cls-3" x1="41.28" y1="19.4" x2="41.28" y2="22.83"/><line class="cls-3" x1="54.03" y1="19.4" x2="54.03" y2="22.83"/><line class="cls-3" x1="6.72" y1="22.83" x2="6.72" y2="26.88"/><line class="cls-3" x1="20.22" y1="22.83" x2="20.22" y2="26.88"/><line class="cls-3" x1="33.84" y1="22.83" x2="33.84" y2="26.88"/><line class="cls-3" x1="48.72" y1="22.83" x2="48.72" y2="26.88"/><line class="cls-3" x1="40.09" y1="26.94" x2="40.09" y2="30.68"/><line class="cls-3" x1="26.77" y1="26.94" x2="26.77" y2="30.68"/><line class="cls-3" x1="11.77" y1="26.94" x2="11.77" y2="30.68"/><line class="cls-3" x1="53.32" y1="26.94" x2="53.32" y2="30.68"/><line class="cls-3" x1="5.58" y1="30.74" x2="5.58" y2="34.88"/><line class="cls-3" x1="18.58" y1="30.74" x2="18.58" y2="34.88"/><line class="cls-3" x1="32.2" y1="30.74" x2="32.2" y2="34.88"/><line class="cls-3" x1="46.45" y1="30.74" x2="46.45" y2="34.88"/><line class="cls-3" x1="42.25" y1="34.94" x2="42.25" y2="38.1"/><line class="cls-3" x1="28.1" y1="34.94" x2="28.1" y2="38.1"/><line class="cls-3" x1="12.98" y1="34.94" x2="12.98" y2="38.1"/><line class="cls-3" x1="0.56" y1="34.94" x2="0.56" y2="38.1"/><line class="cls-3" x1="6.94" y1="38.16" x2="6.94" y2="41.73"/><line class="cls-3" x1="20.19" y1="38.16" x2="20.19" y2="41.73"/><line class="cls-3" x1="33.81" y1="38.16" x2="33.81" y2="41.73"/><line class="cls-3" x1="48.69" y1="38.16" x2="48.69" y2="41.73"/><line class="cls-3" x1="40.34" y1="41.78" x2="40.34" y2="45.54"/><line class="cls-3" x1="26.46" y1="41.78" x2="26.46" y2="45.54"/><line class="cls-3" x1="11.91" y1="41.78" x2="11.91" y2="45.54"/><line class="cls-3" x1="53.79" y1="41.78" x2="53.79" y2="45.54"/><line class="cls-3" x1="0.05" y1="49.91" x2="54.18" y2="49.91"/><line class="cls-3" x1="10.35" y1="49.89" x2="10.35" y2="53.35"/><line class="cls-3" x1="24.79" y1="49.89" x2="24.79" y2="53.35"/><line class="cls-3" x1="38.41" y1="49.89" x2="38.41" y2="53.35"/><line class="cls-3" x1="51.79" y1="49.89" x2="51.79" y2="53.35"/><line class="cls-3" x1="4.63" y1="45.54" x2="4.63" y2="49.89"/><line class="cls-3" x1="17.63" y1="45.54" x2="17.63" y2="49.89"/><line class="cls-3" x1="31.63" y1="45.54" x2="31.63" y2="49.89"/><line class="cls-3" x1="46.19" y1="45.54" x2="46.19" y2="49.89"/><line class="cls-3" x1="8.81" y1="1.66" x2="16.06" y2="1.66"/><line class="cls-3" x1="35.94" y1="1.66" x2="43.19" y2="1.66"/><line class="cls-3" x1="16.31" y1="5.92" x2="23.56" y2="5.92"/><line class="cls-3" x1="44.06" y1="5.92" x2="51.31" y2="5.92"/><line class="cls-3" x1="23.56" y1="9.98" x2="30.81" y2="9.98"/><line class="cls-3" y1="9.98" x2="4.49" y2="9.98"/><line class="cls-3" x1="30.24" y1="14.23" x2="37.49" y2="14.23"/><line class="cls-3" x1="1.86" y1="14.23" x2="9.11" y2="14.23"/><line class="cls-3" x1="35.49" y1="17.73" x2="42.74" y2="17.73"/><line class="cls-3" x1="44.24" y1="21.11" x2="51.49" y2="21.11"/><line class="cls-3" x1="51.36" y1="24.98" x2="54.15" y2="24.98"/><line class="cls-3" x1="43.24" y1="28.73" x2="50.49" y2="28.73"/><line class="cls-3" x1="35.86" y1="32.73" x2="43.11" y2="32.73"/><line class="cls-3" x1="31.74" y1="36.48" x2="38.99" y2="36.48"/><line class="cls-3" x1="23.61" y1="39.98" x2="30.86" y2="39.98"/><line class="cls-3" x1="15.49" y1="43.61" x2="22.74" y2="43.61"/><line class="cls-3" x1="7.36" y1="47.98" x2="14.61" y2="47.98"/><line class="cls-3" x1="0.24" y1="51.66" x2="7.49" y2="51.66"/><line class="cls-3" x1="8.61" y1="17.85" x2="15.86" y2="17.85"/><line class="cls-3" x1="15.99" y1="21.1" x2="23.24" y2="21.1"/><line class="cls-3" x1="23.36" y1="24.85" x2="30.61" y2="24.85"/><line class="cls-3" x1="15.86" y1="28.85" x2="23.11" y2="28.85"/><line class="cls-3" x1="8.49" y1="32.85" x2="15.74" y2="32.85"/><line class="cls-3" x1="3.24" y1="36.6" x2="10.49" y2="36.6"/><line class="cls-3" y1="40.1" x2="3.86" y2="40.1"/><line class="cls-3" x1="43.74" y1="43.72" x2="50.99" y2="43.72"/><line class="cls-3" x1="35.36" y1="47.85" x2="42.61" y2="47.85"/><line class="cls-3" x1="27.99" y1="51.6" x2="35.24" y2="51.6"/><line class="cls-3" x1="51.31" y1="9.98" x2="54.13" y2="9.98"/><line class="cls-3" x1="51.31" y1="40.1" x2="54.13" y2="40.1"/><line class="cls-3" x1="0.06" y1="24.98" x2="2.69" y2="24.98"/></pattern></defs><title>LiWaBasic</title><rect class="cls-4" width="72" height="72"/><rect class="cls-5" width="72" height="72"/></svg>