<?xml version="1.0" encoding="utf-8"?>
<!-- Generator: Adobe Illustrator 15.0.0, SVG Export Plug-In . SVG Version: 6.00 Build 0)  -->
<!DOCTYPE svg PUBLIC "-//W3C//DTD SVG 1.1//EN" "http://www.w3.org/Graphics/SVG/1.1/DTD/svg11.dtd">
<svg version="1.1" id="Layer_1" xmlns="http://www.w3.org/2000/svg" xmlns:xlink="http://www.w3.org/1999/xlink" x="0px" y="0px"
	 width="43.165px" height="8.558px" viewBox="0 0 43.165 8.558" enable-background="new 0 0 43.165 8.558" xml:space="preserve">
<g>
	<path d="M5.323,8.166C5.001,8.32,4.286,8.558,3.376,8.558C1.331,8.558,0,7.171,0,5.099c0-2.087,1.429-3.614,3.642-3.614
		c0.729,0,1.373,0.182,1.709,0.364l-0.28,0.938C4.777,2.633,4.314,2.465,3.642,2.465c-1.555,0-2.396,1.163-2.396,2.563
		c0,1.569,1.009,2.536,2.354,2.536c0.7,0,1.163-0.169,1.513-0.322L5.323,8.166z"/>
	<path d="M12.814,4.958c0,2.507-1.751,3.6-3.376,3.6c-1.82,0-3.25-1.345-3.25-3.488c0-2.255,1.499-3.586,3.362-3.586
		C11.497,1.484,12.814,2.899,12.814,4.958z M7.448,5.028c0,1.485,0.841,2.605,2.046,2.605c1.177,0,2.059-1.106,2.059-2.633
		c0-1.148-0.574-2.591-2.031-2.591C8.079,2.409,7.448,3.754,7.448,5.028z"/>
	<path d="M14.365,3.459c0-0.714-0.014-1.274-0.056-1.835h1.093l0.069,1.121H15.5c0.336-0.63,1.12-1.261,2.241-1.261
		c0.938,0,2.396,0.561,2.396,2.886v4.034h-1.233V4.496c0-1.092-0.405-2.003-1.568-2.003c-0.799,0-1.429,0.574-1.653,1.261
		c-0.056,0.154-0.084,0.364-0.084,0.574v4.076h-1.232V3.459z"/>
	<path d="M23.564,0v1.625h1.765v0.938h-1.765v3.656c0,0.84,0.237,1.316,0.924,1.316c0.336,0,0.532-0.028,0.715-0.084l0.056,0.938
		c-0.238,0.084-0.616,0.168-1.093,0.168c-0.574,0-1.036-0.196-1.33-0.519c-0.337-0.378-0.477-0.98-0.477-1.778V2.563h-1.051V1.625
		h1.051V0.364L23.564,0z"/>
	<path d="M31.475,6.779c0,0.589,0.028,1.163,0.098,1.625h-1.106l-0.098-0.854h-0.042c-0.378,0.532-1.106,1.009-2.073,1.009
		c-1.373,0-2.073-0.967-2.073-1.947c0-1.638,1.457-2.535,4.076-2.521V3.95c0-0.546-0.154-1.569-1.541-1.555
		c-0.645,0-1.303,0.182-1.778,0.504l-0.28-0.827c0.56-0.35,1.387-0.588,2.241-0.588c2.073,0,2.577,1.415,2.577,2.76V6.779z
		 M30.285,4.944c-1.345-0.028-2.872,0.21-2.872,1.527c0,0.812,0.532,1.177,1.148,1.177c0.896,0,1.472-0.561,1.667-1.135
		c0.042-0.14,0.057-0.28,0.057-0.392V4.944z"/>
	<path d="M38.293,8.166c-0.322,0.154-1.037,0.393-1.947,0.393c-2.045,0-3.376-1.387-3.376-3.459c0-2.087,1.429-3.614,3.642-3.614
		c0.729,0,1.373,0.182,1.709,0.364l-0.28,0.938c-0.294-0.154-0.756-0.322-1.429-0.322c-1.555,0-2.395,1.163-2.395,2.563
		c0,1.569,1.008,2.536,2.353,2.536c0.701,0,1.163-0.169,1.514-0.322L38.293,8.166z"/>
	<path d="M41.4,0v1.625h1.765v0.938H41.4v3.656c0,0.84,0.237,1.316,0.924,1.316c0.336,0,0.532-0.028,0.715-0.084l0.056,0.938
		c-0.238,0.084-0.616,0.168-1.093,0.168c-0.574,0-1.036-0.196-1.33-0.519c-0.337-0.378-0.477-0.98-0.477-1.778V2.563h-1.051V1.625
		h1.051V0.364L41.4,0z"/>
</g>
</svg>
