<?xml version="1.0" encoding="utf-8"?>
<!-- Generator: Adobe Illustrator 15.0.0, SVG Export Plug-In . SVG Version: 6.00 Build 0)  -->
<!DOCTYPE svg PUBLIC "-//W3C//DTD SVG 1.1//EN" "http://www.w3.org/Graphics/SVG/1.1/DTD/svg11.dtd">
<svg version="1.1" id="Layer_1" xmlns="http://www.w3.org/2000/svg" xmlns:xlink="http://www.w3.org/1999/xlink" x="0px" y="0px"
	 width="32.291px" height="12px" viewBox="0 0 32.291 12" enable-background="new 0 0 32.291 12" xml:space="preserve">
<g>
	<path d="M0,0.6h6.042v1.215H1.465v3.728h4.228v1.198H1.465v5.074H0V0.6z"/>
	<path d="M12.978,9.886c0,0.699,0.033,1.383,0.117,1.93H11.78l-0.116-1.013h-0.05C11.164,11.434,10.298,12,9.15,12
		c-1.631,0-2.463-1.148-2.463-2.313c0-1.947,1.732-3.012,4.844-2.996V6.524c0-0.648-0.183-1.864-1.831-1.847
		c-0.765,0-1.547,0.216-2.114,0.599L7.252,4.294c0.666-0.417,1.649-0.7,2.663-0.7c2.463,0,3.062,1.682,3.062,3.279V9.886z
		 M11.563,7.706c-1.597-0.033-3.411,0.25-3.411,1.815c0,0.964,0.632,1.397,1.365,1.397c1.065,0,1.747-0.666,1.98-1.35
		c0.049-0.166,0.066-0.331,0.066-0.467V7.706z"/>
	<path d="M22.079,9.604c0,0.848,0.018,1.582,0.065,2.212h-1.298l-0.084-1.312H20.73C20.364,11.15,19.499,12,18.067,12
		c-1.265,0-2.778-0.714-2.778-3.527V3.762h1.464v4.444c0,1.534,0.484,2.581,1.797,2.581c0.981,0,1.664-0.684,1.93-1.348
		c0.085-0.2,0.136-0.467,0.136-0.751V3.762h1.464V9.604z"/>
	<path d="M24.503,0h1.467v11.815h-1.467V0z"/>
	<path d="M30.191,1.832v1.93h2.1v1.115h-2.1v4.344c0,1,0.284,1.565,1.1,1.565c0.401,0,0.633-0.034,0.85-0.1l0.065,1.114
		C31.923,11.899,31.474,12,30.909,12c-0.682,0-1.231-0.231-1.582-0.614c-0.4-0.452-0.565-1.165-0.565-2.113V4.877h-1.249V3.762
		h1.249V2.264L30.191,1.832z"/>
</g>
</svg>
