<?xml version="1.0" encoding="utf-8"?>
<!-- Generator: Adobe Illustrator 15.0.0, SVG Export Plug-In . SVG Version: 6.00 Build 0)  -->
<!DOCTYPE svg PUBLIC "-//W3C//DTD SVG 1.1//EN" "http://www.w3.org/Graphics/SVG/1.1/DTD/svg11.dtd">
<svg version="1.1" id="Layer_1" xmlns="http://www.w3.org/2000/svg" xmlns:xlink="http://www.w3.org/1999/xlink" x="0px" y="0px"
	 width="35.094px" height="35.282px" viewBox="0 0 35.094 35.282" enable-background="new 0 0 35.094 35.282" xml:space="preserve">
<g id="XMLID_1_">
	<g>
		<path fill="#FFED9D" d="M35.047,25.78c-1.317,1.034-2.869,1.317-5.175,1.27s-2.822,0.005-2.822,0.005s0.235,2.394,0.235,3.617
			c0,1.223,0.564,2.963-1.6,4.563H0.047V0.047h35V25.78z"/>
		<linearGradient id="SVGID_1_" gradientUnits="userSpaceOnUse" x1="25.6855" y1="30.5078" x2="35.0469" y2="30.5078">
			<stop  offset="0" style="stop-color:#FFED9D"/>
			<stop  offset="1" style="stop-color:#000000"/>
		</linearGradient>
		<path fill="url(#SVGID_1_)" d="M29.872,27.05c2.306,0.047,3.857-0.236,5.175-1.27v0.141H35c-0.847,1.035-1.271,1.833-4.046,1.929
			c-2.775,0.094-3.151,0-3.151,0s0.141,2.117,0.141,2.634c0,2.023,0.376,2.634-2.07,4.751h-0.188c2.164-1.601,1.6-3.34,1.6-4.563
			c0-1.224-0.235-3.617-0.235-3.617S27.566,27.003,29.872,27.05z"/>
		<linearGradient id="SVGID_2_" gradientUnits="userSpaceOnUse" x1="29.3135" y1="29.8901" x2="37.1755" y2="34.6141">
			<stop  offset="0" style="stop-color:#FFED9D"/>
			<stop  offset="1" style="stop-color:#000000"/>
		</linearGradient>
		<path fill="url(#SVGID_2_)" d="M30.954,27.85c2.775-0.095,3.199-0.894,4.046-1.929h0.047v0.046
			c-0.753,2.259-6.351,7.904-9.032,9.269h-0.142c2.446-2.117,2.07-2.729,2.07-4.751c0-0.518-0.141-2.634-0.141-2.634
			S28.179,27.943,30.954,27.85z"/>
	</g>
	<g>
		<polyline fill="none" stroke="#000000" stroke-width="0.1" points="25.686,35.235 0.047,35.235 0.047,0.047 35.047,0.047 
			35.047,25.78 		"/>
		<path fill="none" stroke="#000000" stroke-width="0.1" d="M35,25.921c-0.847,1.035-1.271,1.833-4.046,1.929
			c-2.775,0.094-3.151,0-3.151,0s0.141,2.117,0.141,2.634c0,2.023,0.376,2.634-2.07,4.751"/>
		<path fill="none" stroke="#000000" stroke-width="0.1" d="M26.015,35.235c2.682-1.364,8.279-7.009,9.032-9.269"/>
	</g>
</g>
<path fill="none" stroke="#000000" stroke-width="0.6165" stroke-linecap="round" stroke-linejoin="round" stroke-miterlimit="10" d="
	M8.438,10.591c-0.103-3.822,1.975-2.264,3.329-0.663c0.813-2.711,0.952-0.926,2.562-0.575c0.421-1.825,2.49-0.681,3.222-0.115
	c1.087-2.951,0.612-2.528,2.604-1.466c1.705,0.909,5.659,0.199,7.528,0.19"/>
<path fill="none" stroke="#000000" stroke-width="0.6165" stroke-linecap="round" stroke-linejoin="round" stroke-miterlimit="10" d="
	M27.681,10.407c0.103,3.823-1.975,2.264-3.329,0.665c-0.813,2.71-0.952,0.925-2.562,0.574c-0.421,1.825-2.49,0.682-3.222,0.115
	c-1.087,2.951-0.612,2.528-2.604,1.466c-1.705-0.906-5.659-0.198-7.528-0.19"/>
<path fill="none" stroke="#000000" stroke-width="0.6165" stroke-linecap="round" stroke-linejoin="round" stroke-miterlimit="10" d="
	M8.438,19.276c-0.103-3.823,1.975-2.264,3.329-0.665c0.813-2.71,0.952-0.925,2.562-0.574c0.421-1.825,2.49-0.682,3.222-0.115
	c1.087-2.951,0.612-2.528,2.604-1.466c1.705,0.906,5.659,0.198,7.528,0.19"/>
</svg>
