<?xml version="1.0" encoding="utf-8"?>
<!-- Generator: Adobe Illustrator 15.0.0, SVG Export Plug-In . SVG Version: 6.00 Build 0)  -->
<!DOCTYPE svg PUBLIC "-//W3C//DTD SVG 1.1//EN" "http://www.w3.org/Graphics/SVG/1.1/DTD/svg11.dtd">
<svg version="1.1" id="Layer_1" xmlns="http://www.w3.org/2000/svg" xmlns:xlink="http://www.w3.org/1999/xlink" x="0px" y="0px"
	 width="10px" height="40px" viewBox="0 0 10 40" enable-background="new 0 0 10 40" xml:space="preserve">
<g>
	<g>
		<path d="M3.363,0.5l1.024,0.839c-1.051,2.801-1.576,5.84-1.576,9.12c0,2.24,0.552,5.42,1.654,9.539
			c1.104,4.122,1.654,7.302,1.654,9.541c0,3.601-0.577,6.921-1.732,9.961l-1.024-0.841c1.051-2.799,1.575-5.839,1.575-9.12
			c0-2.238-0.551-5.419-1.655-9.541c-1.103-4.119-1.654-7.299-1.654-9.539C1.63,6.94,2.208,3.62,3.363,0.5z"/>
	</g>
	<rect x="3.87" y="19.5" width="4.5" height="1"/>
</g>
</svg>
