<svg id="Layer_1" data-name="Layer 1" xmlns="http://www.w3.org/2000/svg" xmlns:xlink="http://www.w3.org/1999/xlink" viewBox="0 0 72 72"><defs><style>.cls-1{fill:none;}.cls-2{fill:#99d4c0;}.cls-3{fill:url(#_666);}</style><pattern id="_666" data-name="666" width="53.98" height="53.98" patternTransform="translate(-5.72 -10.63)" patternUnits="userSpaceOnUse" viewBox="0 0 53.98 53.98"><rect class="cls-1" width="53.98" height="53.98"/><path d="M4.75,2.23c-2.62-.12-3.5,1.25,0,1.25S7.88,2.1,4.75,2.23Z"/><path d="M11.5,3.6c.5.38,1.25,1,3.13.38,2.4-.8,1.25-1.75-1.25-1.87C11,2.23,11,3.23,11.5,3.6Z"/><path d="M22.5,2.23c-4,.25-2.25,1.75.38,1.63S25.38,2.35,22.5,2.23Z"/><path d="M31.13,2c-2.62.13-3,1.5.25,1.38S35,1.85,31.13,2Z"/><path d="M40.75,3.85c2.38-.12,2.75-1.25,0-1.87C35.75,1.85,38.38,4,40.75,3.85Z"/><path d="M48.13,2c-2.75.25-2.12,1.63.38,1.5S50.5,2,48.13,2Z"/><path d="M0,8.17a4.71,4.71,0,0,0,1,.05C3.63,8.1,3,6.48.25,6.48H0"/><path d="M10.38,6.73c-.37-1-.87-1-2.75-.37-2.37.5-.5,1.63,1.25,1.5S10.75,7.73,10.38,6.73Z"/><path d="M17.38,6.48c-3.62,0-2.25,1.62.25,1.62S20.25,6.85,17.38,6.48Z"/><path d="M27.63,6.6C23.63,5.48,24.63,8,27,8S29.63,7.48,27.63,6.6Z"/><path d="M35.88,6.35c-4.12.25-1,1.87,1.63,1.38S38.13,6.6,35.88,6.35Z"/><path d="M44.13,7.48C47.25,7.35,46.75,6.1,44,6.1,41.5,6,41,7.6,44.13,7.48Z"/><path d="M6,44.6c1.75-.12,1.88-.12,1.5-1.12s-.87-1-2.75-.37C2.38,43.6,4.25,44.73,6,44.6Z"/><path d="M14.75,44.85c2.5,0,2.63-1.25-.25-1.62C10.88,43.23,12.25,44.85,14.75,44.85Z"/><path d="M24.13,44.73c2.38,0,2.63-.5.63-1.37C20.75,42.23,21.75,44.73,24.13,44.73Z"/><path d="M34.63,44.48c2.63-.5.63-1.12-1.62-1.37C28.88,43.35,32,45,34.63,44.48Z"/><path d="M41.25,44.23c3.13-.12,2.63-1.37-.12-1.37C38.63,42.73,38.13,44.35,41.25,44.23Z"/><path d="M51.13,44.6c2.88.13,2.13-1.5-.5-1.62S47,44.6,51.13,44.6Z"/><path d="M45.63,12.85c-1.87.38-2.12,1.63.88,1.63s2.63-.62,1.75-1.25S47.5,12.48,45.63,12.85Z"/><path d="M34.5,14.48c-1.87,0-3,2,.25,1.88C38.63,16.6,36.38,14.48,34.5,14.48Z"/><path d="M9.33,51.72c3.88.25,1.63-1.87-.25-1.87S6.08,51.84,9.33,51.72Z"/><path d="M16.88,13.48c1.5.25,1.75.25,2.63-.5s.38-1.12-1.62-1.12C15.63,11.85,15.38,13.23,16.88,13.48Z"/><path d="M44.75,49.23c1.5.25,1.75.25,2.63-.5s.38-1.12-1.62-1.12C43.5,47.6,43.25,49,44.75,49.23Z"/><path d="M4.38,12.6c2.38-.37,2-1.5-.25-1.75C1.38,10.6,2,13,4.38,12.6Z"/><path d="M8.08,18.6c-2.87,0-2.87,1.63.25,1.63S10.33,18.48,8.08,18.6Z"/><path d="M33.92,25.52c3.13,0,2-1.75-.25-1.62C30.79,23.89,30.79,25.52,33.92,25.52Z"/><path d="M28.13,20.1c1.54-.54-.12-1.5-2-1.75C20.88,19.1,25.25,21.1,28.13,20.1Z"/><path d="M48,25.56c2.25-.75.75-1.5-1.5-1.5a6.77,6.77,0,0,0-1.87.25C43,25.94,45.75,26.31,48,25.56Z"/><path d="M20.67,27.23c3,.13,2.88-1.5,0-1.62C17.54,25.6,17.67,27.1,20.67,27.23Z"/><path d="M46.63,35.48c-3.12.13-2,1.75.38,1.75S49.75,35.35,46.63,35.48Z"/><path d="M36,34c2.75,0,2.75-1.75-.12-1.75C32.75,32.1,33.25,34,36,34Z"/><path d="M22.13,36.35c2.5,0,2.25-1.75-.5-1.75C18.25,35,19.63,36.35,22.13,36.35Z"/><path d="M8.13,31.23c2.63,0,3-1.75-.25-1.75C4.88,29.6,5.5,31.23,8.13,31.23Z"/><path d="M29.25,52c2.63,0,3-1.75-.25-1.75C26,50.35,26.63,52,29.25,52Z"/><path d="M3.88,38.73c2.5-.12,2.5-1.5-.37-1.37C.13,37.6,1.38,38.85,3.88,38.73Z"/><path d="M54,6.48c-2.19.09-1.76,1.39,0,1.69"/></pattern></defs><title>PhosBasic</title><rect class="cls-2" width="72" height="72"/><rect class="cls-3" width="72" height="72"/></svg>