<svg id="Layer_1" data-name="Layer 1" xmlns="http://www.w3.org/2000/svg" xmlns:xlink="http://www.w3.org/1999/xlink" viewBox="0 0 72 72"><defs><style>.cls-1,.cls-2,.cls-3{fill:none;}.cls-2,.cls-3{stroke:#000;}.cls-2{stroke-width:0.3px;}.cls-3{stroke-linecap:round;stroke-width:0.6px;}.cls-4{fill:#f49ac1;}.cls-5{fill:url(#_725);}</style><pattern id="_725" data-name="725" width="80.56" height="80.5" patternTransform="translate(-5.72 -10.63)" patternUnits="userSpaceOnUse" viewBox="0 0 80.56 80.5"><rect class="cls-1" width="80.56" height="80.5"/><line class="cls-2" x1="8.95" y1="2.32" x2="10.97" y2="4.35"/><line class="cls-2" x1="10.97" y1="2.32" x2="8.95" y2="4.35"/><line class="cls-2" x1="15.7" y1="9.01" x2="17.72" y2="11.03"/><line class="cls-2" x1="17.72" y1="9.01" x2="15.7" y2="11.03"/><line class="cls-2" x1="2.38" y1="9.01" x2="4.41" y2="11.03"/><line class="cls-2" x1="4.41" y1="9.01" x2="2.38" y2="11.03"/><line class="cls-2" x1="22.26" y1="2.32" x2="24.28" y2="4.35"/><line class="cls-2" x1="24.28" y1="2.32" x2="22.26" y2="4.35"/><line class="cls-2" x1="29.01" y1="9.01" x2="31.03" y2="11.03"/><line class="cls-2" x1="31.03" y1="9.01" x2="29.01" y2="11.03"/><line class="cls-2" x1="35.57" y1="2.32" x2="37.6" y2="4.35"/><line class="cls-2" x1="37.6" y1="2.32" x2="35.57" y2="4.35"/><line class="cls-2" x1="42.32" y1="9.01" x2="44.35" y2="11.03"/><line class="cls-2" x1="44.35" y1="9.01" x2="42.32" y2="11.03"/><line class="cls-2" x1="48.88" y1="2.32" x2="50.91" y2="4.35"/><line class="cls-2" x1="50.91" y1="2.32" x2="48.88" y2="4.35"/><line class="cls-2" x1="55.65" y1="9.01" x2="57.67" y2="11.03"/><line class="cls-2" x1="57.67" y1="9.01" x2="55.65" y2="11.03"/><line class="cls-2" x1="62.21" y1="2.32" x2="64.24" y2="4.35"/><line class="cls-2" x1="64.24" y1="2.32" x2="62.21" y2="4.35"/><line class="cls-2" x1="68.96" y1="9.01" x2="70.99" y2="11.03"/><line class="cls-2" x1="70.99" y1="9.01" x2="68.96" y2="11.03"/><line class="cls-2" x1="75.52" y1="2.32" x2="77.55" y2="4.35"/><line class="cls-2" x1="77.55" y1="2.32" x2="75.52" y2="4.35"/><line class="cls-2" x1="8.95" y1="28.95" x2="10.97" y2="30.97"/><line class="cls-2" x1="10.97" y1="28.95" x2="8.95" y2="30.97"/><line class="cls-2" x1="15.7" y1="35.63" x2="17.72" y2="37.66"/><line class="cls-2" x1="17.72" y1="35.63" x2="15.7" y2="37.66"/><line class="cls-2" x1="2.38" y1="35.63" x2="4.41" y2="37.66"/><line class="cls-2" x1="4.41" y1="35.63" x2="2.38" y2="37.66"/><line class="cls-2" x1="8.95" y1="15.63" x2="10.97" y2="17.66"/><line class="cls-2" x1="10.97" y1="15.63" x2="8.95" y2="17.66"/><line class="cls-2" x1="15.7" y1="22.32" x2="17.72" y2="24.35"/><line class="cls-2" x1="17.72" y1="22.32" x2="15.7" y2="24.35"/><line class="cls-2" x1="2.38" y1="22.32" x2="4.41" y2="24.35"/><line class="cls-2" x1="4.41" y1="22.32" x2="2.38" y2="24.35"/><line class="cls-2" x1="22.26" y1="28.95" x2="24.28" y2="30.97"/><line class="cls-2" x1="24.28" y1="28.95" x2="22.26" y2="30.97"/><line class="cls-2" x1="29.01" y1="35.63" x2="31.03" y2="37.66"/><line class="cls-2" x1="31.03" y1="35.63" x2="29.01" y2="37.66"/><line class="cls-2" x1="22.26" y1="15.63" x2="24.28" y2="17.66"/><line class="cls-2" x1="24.28" y1="15.63" x2="22.26" y2="17.66"/><line class="cls-2" x1="29.01" y1="22.32" x2="31.03" y2="24.35"/><line class="cls-2" x1="31.03" y1="22.32" x2="29.01" y2="24.35"/><line class="cls-2" x1="35.57" y1="28.95" x2="37.6" y2="30.97"/><line class="cls-2" x1="37.6" y1="28.95" x2="35.57" y2="30.97"/><line class="cls-2" x1="42.32" y1="35.63" x2="44.35" y2="37.66"/><line class="cls-2" x1="44.35" y1="35.63" x2="42.32" y2="37.66"/><line class="cls-2" x1="35.57" y1="15.63" x2="37.6" y2="17.66"/><line class="cls-2" x1="37.6" y1="15.63" x2="35.57" y2="17.66"/><line class="cls-2" x1="42.32" y1="22.32" x2="44.35" y2="24.35"/><line class="cls-2" x1="44.35" y1="22.32" x2="42.32" y2="24.35"/><line class="cls-2" x1="48.88" y1="28.95" x2="50.91" y2="30.97"/><line class="cls-2" x1="50.91" y1="28.95" x2="48.88" y2="30.97"/><line class="cls-2" x1="48.88" y1="15.63" x2="50.91" y2="17.66"/><line class="cls-2" x1="50.91" y1="15.63" x2="48.88" y2="17.66"/><line class="cls-2" x1="55.65" y1="35.63" x2="57.67" y2="37.66"/><line class="cls-2" x1="57.67" y1="35.63" x2="55.65" y2="37.66"/><line class="cls-2" x1="55.65" y1="22.32" x2="57.67" y2="24.35"/><line class="cls-2" x1="57.67" y1="22.32" x2="55.65" y2="24.35"/><line class="cls-2" x1="62.21" y1="28.95" x2="64.24" y2="30.97"/><line class="cls-2" x1="64.24" y1="28.95" x2="62.21" y2="30.97"/><line class="cls-2" x1="68.96" y1="35.63" x2="70.99" y2="37.66"/><line class="cls-2" x1="70.99" y1="35.63" x2="68.96" y2="37.66"/><line class="cls-2" x1="62.21" y1="15.63" x2="64.24" y2="17.66"/><line class="cls-2" x1="64.24" y1="15.63" x2="62.21" y2="17.66"/><line class="cls-2" x1="68.96" y1="22.32" x2="70.99" y2="24.35"/><line class="cls-2" x1="70.99" y1="22.32" x2="68.96" y2="24.35"/><line class="cls-2" x1="75.52" y1="28.95" x2="77.55" y2="30.97"/><line class="cls-2" x1="77.55" y1="28.95" x2="75.52" y2="30.97"/><line class="cls-2" x1="75.52" y1="15.63" x2="77.55" y2="17.66"/><line class="cls-2" x1="77.55" y1="15.63" x2="75.52" y2="17.66"/><line class="cls-2" x1="8.95" y1="55.51" x2="10.97" y2="57.53"/><line class="cls-2" x1="10.97" y1="55.51" x2="8.95" y2="57.53"/><line class="cls-2" x1="15.7" y1="62.2" x2="17.72" y2="64.22"/><line class="cls-2" x1="17.72" y1="62.2" x2="15.7" y2="64.22"/><line class="cls-2" x1="2.38" y1="62.2" x2="4.41" y2="64.22"/><line class="cls-2" x1="4.41" y1="62.2" x2="2.38" y2="64.22"/><line class="cls-2" x1="8.95" y1="42.2" x2="10.97" y2="44.22"/><line class="cls-2" x1="10.97" y1="42.2" x2="8.95" y2="44.22"/><line class="cls-2" x1="15.7" y1="48.88" x2="17.72" y2="50.91"/><line class="cls-2" x1="17.72" y1="48.88" x2="15.7" y2="50.91"/><line class="cls-2" x1="2.38" y1="48.88" x2="4.41" y2="50.91"/><line class="cls-2" x1="4.41" y1="48.88" x2="2.38" y2="50.91"/><line class="cls-2" x1="22.26" y1="55.51" x2="24.28" y2="57.53"/><line class="cls-2" x1="24.28" y1="55.51" x2="22.26" y2="57.53"/><line class="cls-2" x1="29.01" y1="62.2" x2="31.03" y2="64.22"/><line class="cls-2" x1="31.03" y1="62.2" x2="29.01" y2="64.22"/><line class="cls-2" x1="22.26" y1="42.2" x2="24.28" y2="44.22"/><line class="cls-2" x1="24.28" y1="42.2" x2="22.26" y2="44.22"/><line class="cls-2" x1="29.01" y1="48.88" x2="31.03" y2="50.91"/><line class="cls-2" x1="31.03" y1="48.88" x2="29.01" y2="50.91"/><line class="cls-2" x1="35.57" y1="55.51" x2="37.6" y2="57.53"/><line class="cls-2" x1="37.6" y1="55.51" x2="35.57" y2="57.53"/><line class="cls-2" x1="42.32" y1="62.2" x2="44.35" y2="64.22"/><line class="cls-2" x1="44.35" y1="62.2" x2="42.32" y2="64.22"/><line class="cls-2" x1="35.57" y1="42.2" x2="37.6" y2="44.22"/><line class="cls-2" x1="37.6" y1="42.2" x2="35.57" y2="44.22"/><line class="cls-2" x1="42.32" y1="48.88" x2="44.35" y2="50.91"/><line class="cls-2" x1="44.35" y1="48.88" x2="42.32" y2="50.91"/><line class="cls-2" x1="48.88" y1="55.51" x2="50.91" y2="57.53"/><line class="cls-2" x1="50.91" y1="55.51" x2="48.88" y2="57.53"/><line class="cls-2" x1="48.88" y1="42.2" x2="50.91" y2="44.22"/><line class="cls-2" x1="50.91" y1="42.2" x2="48.88" y2="44.22"/><line class="cls-2" x1="55.65" y1="62.2" x2="57.67" y2="64.22"/><line class="cls-2" x1="57.67" y1="62.2" x2="55.65" y2="64.22"/><line class="cls-2" x1="55.65" y1="48.88" x2="57.67" y2="50.91"/><line class="cls-2" x1="57.67" y1="48.88" x2="55.65" y2="50.91"/><line class="cls-2" x1="62.21" y1="55.51" x2="64.24" y2="57.53"/><line class="cls-2" x1="64.24" y1="55.51" x2="62.21" y2="57.53"/><line class="cls-2" x1="68.96" y1="62.2" x2="70.99" y2="64.22"/><line class="cls-2" x1="70.99" y1="62.2" x2="68.96" y2="64.22"/><line class="cls-2" x1="62.21" y1="42.2" x2="64.24" y2="44.22"/><line class="cls-2" x1="64.24" y1="42.2" x2="62.21" y2="44.22"/><line class="cls-2" x1="68.96" y1="48.88" x2="70.99" y2="50.91"/><line class="cls-2" x1="70.99" y1="48.88" x2="68.96" y2="50.91"/><line class="cls-2" x1="75.52" y1="55.51" x2="77.55" y2="57.53"/><line class="cls-2" x1="77.55" y1="55.51" x2="75.52" y2="57.53"/><line class="cls-2" x1="75.52" y1="42.2" x2="77.55" y2="44.22"/><line class="cls-2" x1="77.55" y1="42.2" x2="75.52" y2="44.22"/><line class="cls-2" x1="8.95" y1="68.81" x2="10.97" y2="70.83"/><line class="cls-2" x1="10.97" y1="68.81" x2="8.95" y2="70.83"/><line class="cls-2" x1="15.7" y1="75.5" x2="17.72" y2="77.52"/><line class="cls-2" x1="17.72" y1="75.5" x2="15.7" y2="77.52"/><line class="cls-2" x1="2.38" y1="75.5" x2="4.41" y2="77.52"/><line class="cls-2" x1="4.41" y1="75.5" x2="2.38" y2="77.52"/><line class="cls-2" x1="22.26" y1="68.81" x2="24.28" y2="70.83"/><line class="cls-2" x1="24.28" y1="68.81" x2="22.26" y2="70.83"/><line class="cls-2" x1="29.01" y1="75.5" x2="31.03" y2="77.52"/><line class="cls-2" x1="31.03" y1="75.5" x2="29.01" y2="77.52"/><line class="cls-2" x1="35.57" y1="68.81" x2="37.6" y2="70.83"/><line class="cls-2" x1="37.6" y1="68.81" x2="35.57" y2="70.83"/><line class="cls-2" x1="42.32" y1="75.5" x2="44.35" y2="77.52"/><line class="cls-2" x1="44.35" y1="75.5" x2="42.32" y2="77.52"/><line class="cls-2" x1="48.88" y1="68.81" x2="50.91" y2="70.83"/><line class="cls-2" x1="50.91" y1="68.81" x2="48.88" y2="70.83"/><line class="cls-2" x1="55.65" y1="75.5" x2="57.67" y2="77.52"/><line class="cls-2" x1="57.67" y1="75.5" x2="55.65" y2="77.52"/><line class="cls-2" x1="62.21" y1="68.81" x2="64.24" y2="70.83"/><line class="cls-2" x1="64.24" y1="68.81" x2="62.21" y2="70.83"/><line class="cls-2" x1="68.96" y1="75.5" x2="70.99" y2="77.52"/><line class="cls-2" x1="70.99" y1="75.5" x2="68.96" y2="77.52"/><line class="cls-2" x1="75.52" y1="68.81" x2="77.55" y2="70.83"/><line class="cls-2" x1="77.55" y1="68.81" x2="75.52" y2="70.83"/><line class="cls-3" x1="7.52" y1="10.02" x2="7.52" y2="10.02"/><line class="cls-3" x1="7.46" y1="13.33" x2="7.46" y2="13.33"/><line class="cls-3" x1="2.83" y1="13.4" x2="2.83" y2="13.4"/><line class="cls-3" x1="11.52" y1="12.96" x2="11.52" y2="12.96"/><line class="cls-3" x1="14.21" y1="14.83" x2="14.21" y2="14.83"/><line class="cls-3" x1="17.58" y1="15.46" x2="17.58" y2="15.46"/><line class="cls-3" x1="24.08" y1="6.96" x2="24.08" y2="6.96"/><line class="cls-3" x1="21.08" y1="12.71" x2="21.08" y2="12.71"/><line class="cls-3" x1="14.58" y1="18.08" x2="14.58" y2="18.08"/><line class="cls-3" x1="16.71" y1="12.08" x2="16.71" y2="12.08"/><line class="cls-3" x1="17.21" y1="6.33" x2="17.21" y2="6.33"/><line class="cls-3" x1="20.71" y1="8.71" x2="20.71" y2="8.71"/><line class="cls-3" x1="24.33" y1="10.08" x2="24.33" y2="10.08"/><line class="cls-3" x1="20.33" y1="3.71" x2="20.33" y2="3.71"/><line class="cls-3" x1="12.08" y1="8.9" x2="12.08" y2="8.9"/><line class="cls-3" x1="5.33" y1="7.08" x2="5.33" y2="7.08"/><line class="cls-3" x1="6.71" y1="2.46" x2="6.71" y2="2.46"/><line class="cls-3" x1="13.27" y1="0.77" x2="13.27" y2="0.77"/><line class="cls-3" x1="16.58" y1="2.65" x2="16.58" y2="2.65"/><line class="cls-3" x1="2.77" y1="3.33" x2="2.77" y2="3.33"/><line class="cls-3" x1="1.27" y1="7.52" x2="1.27" y2="7.52"/><line class="cls-3" x1="14.08" y1="5.02" x2="14.08" y2="5.02"/><line class="cls-3" x1="8.83" y1="6.52" x2="8.83" y2="6.52"/><line class="cls-3" x1="7.52" y1="27.73" x2="7.52" y2="27.73"/><line class="cls-3" x1="3.71" y1="27.96" x2="3.71" y2="27.96"/><line class="cls-3" x1="7.46" y1="31.04" x2="7.46" y2="31.04"/><line class="cls-3" x1="2.83" y1="31.1" x2="2.83" y2="31.1"/><line class="cls-3" x1="13.21" y1="29.83" x2="13.21" y2="29.83"/><line class="cls-3" x1="14.21" y1="32.54" x2="14.21" y2="32.54"/><line class="cls-3" x1="10.08" y1="33.83" x2="10.08" y2="33.83"/><line class="cls-3" x1="5.08" y1="34.08" x2="5.08" y2="34.08"/><line class="cls-3" x1="7.33" y1="36.83" x2="7.33" y2="36.83"/><line class="cls-3" x1="11.21" y1="38.21" x2="11.21" y2="38.21"/><line class="cls-3" x1="17.83" y1="33.08" x2="17.83" y2="33.08"/><line class="cls-3" x1="12.92" y1="35.96" x2="12.92" y2="35.96"/><line class="cls-3" x1="16.71" y1="29.79" x2="16.71" y2="29.79"/><line class="cls-3" x1="16.46" y1="26.46" x2="16.46" y2="26.46"/><line class="cls-3" x1="20.71" y1="26.42" x2="20.71" y2="26.42"/><line class="cls-3" x1="20.33" y1="21.42" x2="20.33" y2="21.42"/><line class="cls-3" x1="19.96" y1="17.04" x2="19.96" y2="17.04"/><line class="cls-3" x1="12.08" y1="26.6" x2="12.08" y2="26.6"/><line class="cls-3" x1="5.33" y1="24.79" x2="5.33" y2="24.79"/><line class="cls-3" x1="4.08" y1="17.17" x2="4.08" y2="17.17"/><line class="cls-3" x1="6.71" y1="20.17" x2="6.71" y2="20.17"/><line class="cls-3" x1="10.71" y1="20.46" x2="10.71" y2="20.46"/><line class="cls-3" x1="16.58" y1="20.35" x2="16.58" y2="20.35"/><line class="cls-3" x1="2.77" y1="21.04" x2="2.77" y2="21.04"/><line class="cls-3" x1="1.27" y1="25.23" x2="1.27" y2="25.23"/><line class="cls-3" x1="14.08" y1="22.73" x2="14.08" y2="22.73"/><line class="cls-3" x1="8.83" y1="24.23" x2="8.83" y2="24.23"/><line class="cls-3" x1="34.27" y1="10.02" x2="34.27" y2="10.02"/><line class="cls-3" x1="34.2" y1="13.33" x2="34.2" y2="13.33"/><line class="cls-3" x1="29.58" y1="13.4" x2="29.58" y2="13.4"/><line class="cls-3" x1="26.08" y1="13.21" x2="26.08" y2="13.21"/><line class="cls-3" x1="27.08" y1="16.58" x2="27.08" y2="16.58"/><line class="cls-3" x1="23.42" y1="19.79" x2="23.42" y2="19.79"/><line class="cls-3" x1="23.21" y1="23.21" x2="23.21" y2="23.21"/><line class="cls-3" x1="24.58" y1="26.58" x2="24.58" y2="26.58"/><line class="cls-3" x1="26.33" y1="21.58" x2="26.33" y2="21.58"/><line class="cls-3" x1="38.27" y1="12.96" x2="38.27" y2="12.96"/><line class="cls-3" x1="40.95" y1="14.83" x2="40.95" y2="14.83"/><line class="cls-3" x1="45.58" y1="14.83" x2="45.58" y2="14.83"/><line class="cls-3" x1="41.33" y1="18.08" x2="41.33" y2="18.08"/><line class="cls-3" x1="43.45" y1="12.08" x2="43.45" y2="12.08"/><line class="cls-3" x1="43.95" y1="6.33" x2="43.95" y2="6.33"/><line class="cls-3" x1="46.46" y1="10.08" x2="46.46" y2="10.08"/><line class="cls-3" x1="46.75" y1="6.96" x2="46.75" y2="6.96"/><line class="cls-3" x1="47.08" y1="3.71" x2="47.08" y2="3.71"/><line class="cls-3" x1="38.83" y1="8.9" x2="38.83" y2="8.9"/><line class="cls-3" x1="32.08" y1="7.08" x2="32.08" y2="7.08"/><line class="cls-3" x1="33.45" y1="2.46" x2="33.45" y2="2.46"/><line class="cls-3" x1="40.02" y1="0.77" x2="40.02" y2="0.77"/><line class="cls-3" x1="43.33" y1="2.65" x2="43.33" y2="2.65"/><line class="cls-3" x1="50.58" y1="79.29" x2="50.58" y2="79.29"/><line class="cls-3" x1="29.52" y1="3.33" x2="29.52" y2="3.33"/><line class="cls-3" x1="26.21" y1="4.33" x2="26.21" y2="4.33"/><line class="cls-3" x1="25.33" y1="0.71" x2="25.33" y2="0.71"/><line class="cls-3" x1="28.02" y1="7.52" x2="28.02" y2="7.52"/><line class="cls-3" x1="40.83" y1="5.02" x2="40.83" y2="5.02"/><line class="cls-3" x1="35.58" y1="6.52" x2="35.58" y2="6.52"/><line class="cls-3" x1="34.27" y1="27.73" x2="34.27" y2="27.73"/><line class="cls-3" x1="30.45" y1="27.96" x2="30.45" y2="27.96"/><line class="cls-3" x1="27.08" y1="28.71" x2="27.08" y2="28.71"/><line class="cls-3" x1="19.96" y1="29.83" x2="19.96" y2="29.83"/><line class="cls-3" x1="34.2" y1="31.04" x2="34.2" y2="31.04"/><line class="cls-3" x1="26.21" y1="32.08" x2="26.21" y2="32.08"/><line class="cls-3" x1="25.42" y1="35.46" x2="25.42" y2="35.46"/><line class="cls-3" x1="20.42" y1="36.29" x2="20.42" y2="36.29"/><line class="cls-3" x1="22.92" y1="37.79" x2="22.92" y2="37.79"/><line class="cls-3" x1="56.08" y1="33.63" x2="56.08" y2="33.63"/><line class="cls-3" x1="52.58" y1="35.96" x2="52.58" y2="35.96"/><line class="cls-3" x1="60.92" y1="35.79" x2="60.92" y2="35.79"/><line class="cls-3" x1="76.25" y1="36.13" x2="76.25" y2="36.13"/><line class="cls-3" x1="79.42" y1="38.79" x2="79.42" y2="38.79"/><line class="cls-3" x1="21.96" y1="33.21" x2="21.96" y2="33.21"/><line class="cls-3" x1="29.58" y1="31.1" x2="29.58" y2="31.1"/><line class="cls-3" x1="39.95" y1="29.83" x2="39.95" y2="29.83"/><line class="cls-3" x1="40.95" y1="32.54" x2="40.95" y2="32.54"/><line class="cls-3" x1="36.83" y1="33.83" x2="36.83" y2="33.83"/><line class="cls-3" x1="31.83" y1="34.08" x2="31.83" y2="34.08"/><line class="cls-3" x1="34.08" y1="36.83" x2="34.08" y2="36.83"/><line class="cls-3" x1="37.95" y1="38.21" x2="37.95" y2="38.21"/><line class="cls-3" x1="45.7" y1="33.08" x2="45.7" y2="33.08"/><line class="cls-3" x1="39.92" y1="35.96" x2="39.92" y2="35.96"/><line class="cls-3" x1="43.45" y1="29.79" x2="43.45" y2="29.79"/><line class="cls-3" x1="43.2" y1="26.46" x2="43.2" y2="26.46"/><line class="cls-3" x1="46.83" y1="29.46" x2="46.83" y2="29.46"/><line class="cls-3" x1="49.21" y1="26.58" x2="49.21" y2="26.58"/><line class="cls-3" x1="51.96" y1="24.08" x2="51.96" y2="24.08"/><line class="cls-3" x1="52.46" y1="27.58" x2="52.46" y2="27.58"/><line class="cls-3" x1="55.83" y1="26.71" x2="55.83" y2="26.71"/><line class="cls-3" x1="55.75" y1="30.13" x2="55.75" y2="30.13"/><line class="cls-3" x1="59.42" y1="29.13" x2="59.42" y2="29.13"/><line class="cls-3" x1="53.08" y1="31.21" x2="53.08" y2="31.21"/><line class="cls-3" x1="49.71" y1="33.83" x2="49.71" y2="33.83"/><line class="cls-3" x1="54.33" y1="21.21" x2="54.33" y2="21.21"/><line class="cls-3" x1="46.83" y1="20.46" x2="46.83" y2="20.46"/><line class="cls-3" x1="46.7" y1="17.04" x2="46.7" y2="17.04"/><line class="cls-3" x1="38.83" y1="26.6" x2="38.83" y2="26.6"/><line class="cls-3" x1="32.92" y1="24.96" x2="32.92" y2="24.96"/><line class="cls-3" x1="47.08" y1="36.58" x2="47.08" y2="36.58"/><line class="cls-3" x1="30.83" y1="17.17" x2="30.83" y2="17.17"/><line class="cls-3" x1="33.45" y1="20.17" x2="33.45" y2="20.17"/><line class="cls-3" x1="37.45" y1="20.46" x2="37.45" y2="20.46"/><line class="cls-3" x1="43.33" y1="20.35" x2="43.33" y2="20.35"/><line class="cls-3" x1="29.25" y1="20.13" x2="29.25" y2="20.13"/><line class="cls-3" x1="26.92" y1="25.13" x2="26.92" y2="25.13"/><line class="cls-3" x1="40.83" y1="22.73" x2="40.83" y2="22.73"/><line class="cls-3" x1="36.42" y1="23.96" x2="36.42" y2="23.96"/><line class="cls-3" x1="79.99" y1="11.4" x2="79.99" y2="11.4"/><line class="cls-3" x1="79.99" y1="29.1" x2="79.99" y2="29.1"/><line class="cls-3" x1="79.71" y1="17.96" x2="79.71" y2="17.96"/><line class="cls-3" x1="72.15" y1="9.46" x2="72.15" y2="9.46"/><line class="cls-3" x1="72.21" y1="12.77" x2="72.21" y2="12.77"/><line class="cls-3" x1="76.83" y1="12.83" x2="76.83" y2="12.83"/><line class="cls-3" x1="68.15" y1="12.4" x2="68.15" y2="12.4"/><line class="cls-3" x1="65.46" y1="14.27" x2="65.46" y2="14.27"/><line class="cls-3" x1="60.08" y1="12.96" x2="60.08" y2="12.96"/><line class="cls-3" x1="64.08" y1="8.33" x2="64.08" y2="8.33"/><line class="cls-3" x1="62.96" y1="11.52" x2="62.96" y2="11.52"/><line class="cls-3" x1="62.46" y1="5.77" x2="62.46" y2="5.77"/><line class="cls-3" x1="58.96" y1="8.15" x2="58.96" y2="8.15"/><line class="cls-3" x1="59.33" y1="3.15" x2="59.33" y2="3.15"/><line class="cls-3" x1="55.58" y1="1.33" x2="55.58" y2="1.33"/><line class="cls-3" x1="52.96" y1="3.33" x2="52.96" y2="3.33"/><line class="cls-3" x1="56.08" y1="4.21" x2="56.08" y2="4.21"/><line class="cls-3" x1="53.92" y1="6.46" x2="53.92" y2="6.46"/><line class="cls-3" x1="50.83" y1="7.83" x2="50.83" y2="7.83"/><line class="cls-3" x1="49.96" y1="11.08" x2="49.96" y2="11.08"/><line class="cls-3" x1="65.83" y1="18.71" x2="65.83" y2="18.71"/><line class="cls-3" x1="48.42" y1="13.46" x2="48.42" y2="13.46"/><line class="cls-3" x1="52.92" y1="14.46" x2="52.92" y2="14.46"/><line class="cls-3" x1="53.58" y1="9.96" x2="53.58" y2="9.96"/><line class="cls-3" x1="56.96" y1="13.96" x2="56.96" y2="13.96"/><line class="cls-3" x1="55.96" y1="17.33" x2="55.96" y2="17.33"/><line class="cls-3" x1="52.21" y1="18.46" x2="52.21" y2="18.46"/><line class="cls-3" x1="50.33" y1="21.33" x2="50.33" y2="21.33"/><line class="cls-3" x1="47.08" y1="24.58" x2="47.08" y2="24.58"/><line class="cls-3" x1="67.58" y1="8.33" x2="67.58" y2="8.33"/><line class="cls-3" x1="74.33" y1="6.52" x2="74.33" y2="6.52"/><line class="cls-3" x1="72.96" y1="1.9" x2="72.96" y2="1.9"/><line class="cls-3" x1="66.33" y1="0.71" x2="66.33" y2="0.71"/><line class="cls-3" x1="68.71" y1="2.96" x2="68.71" y2="2.96"/><line class="cls-3" x1="76.33" y1="9.46" x2="76.33" y2="9.46"/><line class="cls-3" x1="78.4" y1="6.96" x2="78.4" y2="6.96"/><line class="cls-3" x1="65.58" y1="4.46" x2="65.58" y2="4.46"/><line class="cls-3" x1="22.08" y1="78.46" x2="22.08" y2="78.46"/><line class="cls-3" x1="9.58" y1="79.79" x2="9.58" y2="79.79"/><line class="cls-3" x1="1.25" y1="79.46" x2="1.25" y2="79.46"/><line class="cls-3" x1="17.42" y1="79.13" x2="17.42" y2="79.13"/><line class="cls-3" x1="29.92" y1="56.96" x2="29.92" y2="56.96"/><line class="cls-3" x1="43.58" y1="78.63" x2="43.58" y2="78.63"/><line class="cls-3" x1="29.25" y1="79.29" x2="29.25" y2="79.29"/><line class="cls-3" x1="42.42" y1="71.46" x2="42.42" y2="71.46"/><line class="cls-3" x1="57.25" y1="79.13" x2="57.25" y2="79.13"/><line class="cls-3" x1="46.58" y1="79.79" x2="46.58" y2="79.79"/><line class="cls-3" x1="76.42" y1="79.46" x2="76.42" y2="79.46"/><line class="cls-3" x1="70.25" y1="79.63" x2="70.25" y2="79.63"/><line class="cls-3" x1="62.25" y1="79.46" x2="62.25" y2="79.46"/><line class="cls-3" x1="70.83" y1="5.96" x2="70.83" y2="5.96"/><line class="cls-3" x1="72.15" y1="27.17" x2="72.15" y2="27.17"/><line class="cls-3" x1="75.96" y1="27.4" x2="75.96" y2="27.4"/><line class="cls-3" x1="72.21" y1="30.48" x2="72.21" y2="30.48"/><line class="cls-3" x1="78.08" y1="33.21" x2="78.08" y2="33.21"/><line class="cls-3" x1="66.46" y1="29.27" x2="66.46" y2="29.27"/><line class="cls-3" x1="65.46" y1="31.98" x2="65.46" y2="31.98"/><line class="cls-3" x1="69.58" y1="33.27" x2="69.58" y2="33.27"/><line class="cls-3" x1="74.58" y1="33.52" x2="74.58" y2="33.52"/><line class="cls-3" x1="72.33" y1="36.27" x2="72.33" y2="36.27"/><line class="cls-3" x1="67.21" y1="38.71" x2="67.21" y2="38.71"/><line class="cls-3" x1="60.71" y1="32.52" x2="60.71" y2="32.52"/><line class="cls-3" x1="65.08" y1="35.23" x2="65.08" y2="35.23"/><line class="cls-3" x1="68.08" y1="16.21" x2="68.08" y2="16.21"/><line class="cls-3" x1="63.21" y1="25.9" x2="63.21" y2="25.9"/><line class="cls-3" x1="61.75" y1="22.79" x2="61.75" y2="22.79"/><line class="cls-3" x1="58.96" y1="25.85" x2="58.96" y2="25.85"/><line class="cls-3" x1="59.33" y1="20.85" x2="59.33" y2="20.85"/><line class="cls-3" x1="59.71" y1="16.48" x2="59.71" y2="16.48"/><line class="cls-3" x1="67.58" y1="26.04" x2="67.58" y2="26.04"/><line class="cls-3" x1="74.33" y1="24.23" x2="74.33" y2="24.23"/><line class="cls-3" x1="69.58" y1="29.33" x2="69.58" y2="29.33"/><line class="cls-3" x1="72.96" y1="19.6" x2="72.96" y2="19.6"/><line class="cls-3" x1="68.96" y1="19.9" x2="68.96" y2="19.9"/><line class="cls-3" x1="63.08" y1="19.79" x2="63.08" y2="19.79"/><line class="cls-3" x1="76.9" y1="20.48" x2="76.9" y2="20.48"/><line class="cls-3" x1="78.4" y1="24.67" x2="78.4" y2="24.67"/><line class="cls-3" x1="65.58" y1="22.17" x2="65.58" y2="22.17"/><line class="cls-3" x1="71.46" y1="16.08" x2="71.46" y2="16.08"/><line class="cls-3" x1="7.52" y1="70.48" x2="7.52" y2="70.48"/><line class="cls-3" x1="7.46" y1="67.17" x2="7.46" y2="67.17"/><line class="cls-3" x1="2.83" y1="67.11" x2="2.83" y2="67.11"/><line class="cls-3" x1="11.52" y1="67.54" x2="11.52" y2="67.54"/><line class="cls-3" x1="14.21" y1="65.67" x2="14.21" y2="65.67"/><line class="cls-3" x1="18.08" y1="56.71" x2="18.08" y2="56.71"/><line class="cls-3" x1="23.42" y1="64.46" x2="23.42" y2="64.46"/><line class="cls-3" x1="24.08" y1="73.54" x2="24.08" y2="73.54"/><line class="cls-3" x1="21.08" y1="67.79" x2="21.08" y2="67.79"/><line class="cls-3" x1="13.25" y1="62.63" x2="13.25" y2="62.63"/><line class="cls-3" x1="17.58" y1="66.79" x2="17.58" y2="66.79"/><line class="cls-3" x1="17.08" y1="71.79" x2="17.08" y2="71.79"/><line class="cls-3" x1="20.71" y1="71.79" x2="20.71" y2="71.79"/><line class="cls-3" x1="29.08" y1="43.13" x2="29.08" y2="43.13"/><line class="cls-3" x1="20.25" y1="75.63" x2="20.25" y2="75.63"/><line class="cls-3" x1="9.92" y1="72.29" x2="9.92" y2="72.29"/><line class="cls-3" x1="5.33" y1="73.42" x2="5.33" y2="73.42"/><line class="cls-3" x1="6.25" y1="78.79" x2="6.25" y2="78.79"/><line class="cls-3" x1="14.58" y1="69.79" x2="14.58" y2="69.79"/><line class="cls-3" x1="3.42" y1="70.13" x2="3.42" y2="70.13"/><line class="cls-3" x1="1.27" y1="72.98" x2="1.27" y2="72.98"/><line class="cls-3" x1="13.75" y1="73.96" x2="13.75" y2="73.96"/><line class="cls-3" x1="12.58" y1="77.13" x2="12.58" y2="77.13"/><line class="cls-3" x1="7.52" y1="52.77" x2="7.52" y2="52.77"/><line class="cls-3" x1="3.71" y1="52.54" x2="3.71" y2="52.54"/><line class="cls-3" x1="7.46" y1="49.46" x2="7.46" y2="49.46"/><line class="cls-3" x1="18.25" y1="40.13" x2="18.25" y2="40.13"/><line class="cls-3" x1="13.21" y1="50.67" x2="13.21" y2="50.67"/><line class="cls-3" x1="14.21" y1="47.96" x2="14.21" y2="47.96"/><line class="cls-3" x1="10.08" y1="46.67" x2="10.08" y2="46.67"/><line class="cls-3" x1="5.08" y1="46.42" x2="5.08" y2="46.42"/><line class="cls-3" x1="7.33" y1="43.67" x2="7.33" y2="43.67"/><line class="cls-3" x1="13.25" y1="41.29" x2="13.25" y2="41.29"/><line class="cls-3" x1="17.83" y1="47.42" x2="17.83" y2="47.42"/><line class="cls-3" x1="12.92" y1="44.54" x2="12.92" y2="44.54"/><line class="cls-3" x1="16.42" y1="43.96" x2="16.42" y2="43.96"/><line class="cls-3" x1="16.46" y1="54.04" x2="16.46" y2="54.04"/><line class="cls-3" x1="20.71" y1="54.09" x2="20.71" y2="54.09"/><line class="cls-3" x1="20.33" y1="59.09" x2="20.33" y2="59.09"/><line class="cls-3" x1="19.96" y1="63.46" x2="19.96" y2="63.46"/><line class="cls-3" x1="12.08" y1="53.9" x2="12.08" y2="53.9"/><line class="cls-3" x1="5.33" y1="55.71" x2="5.33" y2="55.71"/><line class="cls-3" x1="1.58" y1="44.46" x2="1.58" y2="44.46"/><line class="cls-3" x1="6.71" y1="60.34" x2="6.71" y2="60.34"/><line class="cls-3" x1="10.71" y1="60.04" x2="10.71" y2="60.04"/><line class="cls-3" x1="16.58" y1="60.15" x2="16.58" y2="60.15"/><line class="cls-3" x1="2.77" y1="59.46" x2="2.77" y2="59.46"/><line class="cls-3" x1="1.27" y1="55.27" x2="1.27" y2="55.27"/><line class="cls-3" x1="14.08" y1="57.77" x2="14.08" y2="57.77"/><line class="cls-3" x1="9.25" y1="63.96" x2="9.25" y2="63.96"/><line class="cls-3" x1="34.27" y1="70.48" x2="34.27" y2="70.48"/><line class="cls-3" x1="34.2" y1="67.17" x2="34.2" y2="67.17"/><line class="cls-3" x1="29.58" y1="67.11" x2="29.58" y2="67.11"/><line class="cls-3" x1="26.08" y1="67.29" x2="26.08" y2="67.29"/><line class="cls-3" x1="27.08" y1="63.92" x2="27.08" y2="63.92"/><line class="cls-3" x1="23.42" y1="60.71" x2="23.42" y2="60.71"/><line class="cls-3" x1="23.25" y1="50.29" x2="23.25" y2="50.29"/><line class="cls-3" x1="24.58" y1="53.92" x2="24.58" y2="53.92"/><line class="cls-3" x1="26.33" y1="58.92" x2="26.33" y2="58.92"/><line class="cls-3" x1="38.27" y1="67.54" x2="38.27" y2="67.54"/><line class="cls-3" x1="40.95" y1="65.67" x2="40.95" y2="65.67"/><line class="cls-3" x1="45.58" y1="65.67" x2="45.58" y2="65.67"/><line class="cls-3" x1="41.33" y1="62.42" x2="41.33" y2="62.42"/><line class="cls-3" x1="43.45" y1="68.42" x2="43.45" y2="68.42"/><line class="cls-3" x1="43.95" y1="74.17" x2="43.95" y2="74.17"/><line class="cls-3" x1="46.46" y1="70.42" x2="46.46" y2="70.42"/><line class="cls-3" x1="46.75" y1="73.54" x2="46.75" y2="73.54"/><line class="cls-3" x1="47.92" y1="75.96" x2="47.92" y2="75.96"/><line class="cls-3" x1="38.83" y1="71.61" x2="38.83" y2="71.61"/><line class="cls-3" x1="32.08" y1="73.42" x2="32.08" y2="73.42"/><line class="cls-3" x1="33.45" y1="78.04" x2="33.45" y2="78.04"/><line class="cls-3" x1="38.08" y1="78.46" x2="38.08" y2="78.46"/><line class="cls-3" x1="29.75" y1="69.96" x2="29.75" y2="69.96"/><line class="cls-3" x1="26.21" y1="76.17" x2="26.21" y2="76.17"/><line class="cls-3" x1="28.02" y1="72.98" x2="28.02" y2="72.98"/><line class="cls-3" x1="40.83" y1="75.48" x2="40.83" y2="75.48"/><line class="cls-3" x1="36.58" y1="74.96" x2="36.58" y2="74.96"/><line class="cls-3" x1="34.27" y1="52.77" x2="34.27" y2="52.77"/><line class="cls-3" x1="30.45" y1="52.54" x2="30.45" y2="52.54"/><line class="cls-3" x1="27.08" y1="51.79" x2="27.08" y2="51.79"/><line class="cls-3" x1="19.96" y1="50.67" x2="19.96" y2="50.67"/><line class="cls-3" x1="34.2" y1="49.46" x2="34.2" y2="49.46"/><line class="cls-3" x1="26.21" y1="48.42" x2="26.21" y2="48.42"/><line class="cls-3" x1="25.42" y1="45.04" x2="25.42" y2="45.04"/><line class="cls-3" x1="20.42" y1="44.21" x2="20.42" y2="44.21"/><line class="cls-3" x1="25.75" y1="39.79" x2="25.75" y2="39.79"/><line class="cls-3" x1="56.08" y1="46.88" x2="56.08" y2="46.88"/><line class="cls-3" x1="52.58" y1="44.54" x2="52.58" y2="44.54"/><line class="cls-3" x1="60.92" y1="44.71" x2="60.92" y2="44.71"/><line class="cls-3" x1="75.25" y1="39.46" x2="75.25" y2="39.46"/><line class="cls-3" x1="71.42" y1="40.63" x2="71.42" y2="40.63"/><line class="cls-3" x1="55.42" y1="39.13" x2="55.42" y2="39.13"/><line class="cls-3" x1="50.42" y1="39.13" x2="50.42" y2="39.13"/><line class="cls-3" x1="33.58" y1="40.13" x2="33.58" y2="40.13"/><line class="cls-3" x1="29.75" y1="39.63" x2="29.75" y2="39.63"/><line class="cls-3" x1="7.58" y1="39.96" x2="7.58" y2="39.96"/><line class="cls-3" x1="4.42" y1="41.96" x2="4.42" y2="41.96"/><line class="cls-3" x1="1.08" y1="38.96" x2="1.08" y2="38.96"/><line class="cls-3" x1="79.42" y1="41.71" x2="79.42" y2="41.71"/><line class="cls-3" x1="21.96" y1="47.29" x2="21.96" y2="47.29"/><line class="cls-3" x1="29.58" y1="49.4" x2="29.58" y2="49.4"/><line class="cls-3" x1="39.95" y1="50.67" x2="39.95" y2="50.67"/><line class="cls-3" x1="40.95" y1="47.96" x2="40.95" y2="47.96"/><line class="cls-3" x1="36.83" y1="46.67" x2="36.83" y2="46.67"/><line class="cls-3" x1="31.83" y1="46.42" x2="31.83" y2="46.42"/><line class="cls-3" x1="34.08" y1="43.67" x2="34.08" y2="43.67"/><line class="cls-3" x1="39.75" y1="41.29" x2="39.75" y2="41.29"/><line class="cls-3" x1="45.7" y1="47.42" x2="45.7" y2="47.42"/><line class="cls-3" x1="39.92" y1="44.54" x2="39.92" y2="44.54"/><line class="cls-3" x1="43.42" y1="43.63" x2="43.42" y2="43.63"/><line class="cls-3" x1="43.2" y1="54.04" x2="43.2" y2="54.04"/><line class="cls-3" x1="46.83" y1="51.04" x2="46.83" y2="51.04"/><line class="cls-3" x1="49.21" y1="53.92" x2="49.21" y2="53.92"/><line class="cls-3" x1="51.96" y1="56.42" x2="51.96" y2="56.42"/><line class="cls-3" x1="52.46" y1="52.92" x2="52.46" y2="52.92"/><line class="cls-3" x1="55.83" y1="53.79" x2="55.83" y2="53.79"/><line class="cls-3" x1="56.75" y1="42.29" x2="56.75" y2="42.29"/><line class="cls-3" x1="59.42" y1="51.38" x2="59.42" y2="51.38"/><line class="cls-3" x1="53.08" y1="49.29" x2="53.08" y2="49.29"/><line class="cls-3" x1="49.71" y1="46.67" x2="49.71" y2="46.67"/><line class="cls-3" x1="54.33" y1="59.29" x2="54.33" y2="59.29"/><line class="cls-3" x1="46.83" y1="60.04" x2="46.83" y2="60.04"/><line class="cls-3" x1="46.7" y1="63.46" x2="46.7" y2="63.46"/><line class="cls-3" x1="38.83" y1="53.9" x2="38.83" y2="53.9"/><line class="cls-3" x1="32.92" y1="55.54" x2="32.92" y2="55.54"/><line class="cls-3" x1="47.08" y1="43.92" x2="47.08" y2="43.92"/><line class="cls-3" x1="35.75" y1="63.79" x2="35.75" y2="63.79"/><line class="cls-3" x1="33.45" y1="60.34" x2="33.45" y2="60.34"/><line class="cls-3" x1="37.45" y1="60.04" x2="37.45" y2="60.04"/><line class="cls-3" x1="43.33" y1="60.15" x2="43.33" y2="60.15"/><line class="cls-3" x1="29.25" y1="60.38" x2="29.25" y2="60.38"/><line class="cls-3" x1="26.92" y1="55.38" x2="26.92" y2="55.38"/><line class="cls-3" x1="40.83" y1="57.77" x2="40.83" y2="57.77"/><line class="cls-3" x1="36.75" y1="51.13" x2="36.75" y2="51.13"/><line class="cls-3" x1="79.99" y1="69.11" x2="79.99" y2="69.11"/><line class="cls-3" x1="79.99" y1="51.4" x2="79.99" y2="51.4"/><line class="cls-3" x1="79.71" y1="62.54" x2="79.71" y2="62.54"/><line class="cls-3" x1="72.15" y1="71.04" x2="72.15" y2="71.04"/><line class="cls-3" x1="72.21" y1="67.73" x2="72.21" y2="67.73"/><line class="cls-3" x1="76.83" y1="67.67" x2="76.83" y2="67.67"/><line class="cls-3" x1="68.15" y1="68.11" x2="68.15" y2="68.11"/><line class="cls-3" x1="65.46" y1="66.23" x2="65.46" y2="66.23"/><line class="cls-3" x1="60.08" y1="67.54" x2="60.08" y2="67.54"/><line class="cls-3" x1="64.08" y1="72.17" x2="64.08" y2="72.17"/><line class="cls-3" x1="8.92" y1="76.29" x2="8.92" y2="76.29"/><line class="cls-3" x1="63.25" y1="74.96" x2="63.25" y2="74.96"/><line class="cls-3" x1="58.96" y1="72.36" x2="58.96" y2="72.36"/><line class="cls-3" x1="59.92" y1="76.46" x2="59.92" y2="76.46"/><line class="cls-3" x1="52.96" y1="77.17" x2="52.96" y2="77.17"/><line class="cls-3" x1="57.08" y1="70.29" x2="57.08" y2="70.29"/><line class="cls-3" x1="53.92" y1="74.04" x2="53.92" y2="74.04"/><line class="cls-3" x1="50.83" y1="72.67" x2="50.83" y2="72.67"/><line class="cls-3" x1="44.75" y1="39.79" x2="44.75" y2="39.79"/><line class="cls-3" x1="65.83" y1="61.79" x2="65.83" y2="61.79"/><line class="cls-3" x1="48.42" y1="67.04" x2="48.42" y2="67.04"/><line class="cls-3" x1="52.92" y1="66.04" x2="52.92" y2="66.04"/><line class="cls-3" x1="53.58" y1="70.54" x2="53.58" y2="70.54"/><line class="cls-3" x1="56.96" y1="66.54" x2="56.96" y2="66.54"/><line class="cls-3" x1="61.92" y1="39.29" x2="61.92" y2="39.29"/><line class="cls-3" x1="52.21" y1="62.04" x2="52.21" y2="62.04"/><line class="cls-3" x1="50.33" y1="59.17" x2="50.33" y2="59.17"/><line class="cls-3" x1="45.08" y1="56.63" x2="45.08" y2="56.63"/><line class="cls-3" x1="67.58" y1="72.17" x2="67.58" y2="72.17"/><line class="cls-3" x1="74.33" y1="73.98" x2="74.33" y2="73.98"/><line class="cls-3" x1="78.92" y1="76.29" x2="78.92" y2="76.29"/><line class="cls-3" x1="73.25" y1="77.29" x2="73.25" y2="77.29"/><line class="cls-3" x1="75.92" y1="64.29" x2="75.92" y2="64.29"/><line class="cls-3" x1="68.42" y1="43.96" x2="68.42" y2="43.96"/><line class="cls-3" x1="78.4" y1="73.54" x2="78.4" y2="73.54"/><line class="cls-3" x1="65.92" y1="77.46" x2="65.92" y2="77.46"/><line class="cls-3" x1="70.08" y1="73.63" x2="70.08" y2="73.63"/><line class="cls-3" x1="72.15" y1="53.34" x2="72.15" y2="53.34"/><line class="cls-3" x1="75.96" y1="53.11" x2="75.96" y2="53.11"/><line class="cls-3" x1="72.21" y1="50.02" x2="72.21" y2="50.02"/><line class="cls-3" x1="78.08" y1="47.29" x2="78.08" y2="47.29"/><line class="cls-3" x1="66.46" y1="51.23" x2="66.46" y2="51.23"/><line class="cls-3" x1="65.46" y1="48.52" x2="65.46" y2="48.52"/><line class="cls-3" x1="69.58" y1="47.23" x2="69.58" y2="47.23"/><line class="cls-3" x1="74.58" y1="46.98" x2="74.58" y2="46.98"/><line class="cls-3" x1="72.33" y1="44.23" x2="72.33" y2="44.23"/><line class="cls-3" x1="67.21" y1="41.79" x2="67.21" y2="41.79"/><line class="cls-3" x1="60.71" y1="47.98" x2="60.71" y2="47.98"/><line class="cls-3" x1="65.08" y1="45.27" x2="65.08" y2="45.27"/><line class="cls-3" x1="68.08" y1="64.29" x2="68.08" y2="64.29"/><line class="cls-3" x1="63.21" y1="54.61" x2="63.21" y2="54.61"/><line class="cls-3" x1="57.25" y1="56.96" x2="57.25" y2="56.96"/><line class="cls-3" x1="58.96" y1="54.65" x2="58.96" y2="54.65"/><line class="cls-3" x1="59.33" y1="59.65" x2="59.33" y2="59.65"/><line class="cls-3" x1="59.71" y1="64.02" x2="59.71" y2="64.02"/><line class="cls-3" x1="67.58" y1="54.46" x2="67.58" y2="54.46"/><line class="cls-3" x1="74.33" y1="56.27" x2="74.33" y2="56.27"/><line class="cls-3" x1="70.25" y1="56.96" x2="70.25" y2="56.96"/><line class="cls-3" x1="72.96" y1="60.9" x2="72.96" y2="60.9"/><line class="cls-3" x1="68.96" y1="60.61" x2="68.96" y2="60.61"/><line class="cls-3" x1="63.08" y1="60.71" x2="63.08" y2="60.71"/><line class="cls-3" x1="76.9" y1="60.02" x2="76.9" y2="60.02"/><line class="cls-3" x1="78.4" y1="55.84" x2="78.4" y2="55.84"/><line class="cls-3" x1="65.58" y1="58.34" x2="65.58" y2="58.34"/><line class="cls-3" x1="10.42" y1="49.79" x2="10.42" y2="49.79"/></pattern></defs><title>VolBasic</title><rect class="cls-4" width="72" height="72"/><rect class="cls-5" width="72" height="72"/></svg>